<svg xmlns="http://www.w3.org/2000/svg" xmlns:xlink="http://www.w3.org/1999/xlink" width="1000" zoomAndPan="magnify" viewBox="0 0 750 749.999995" height="1000" preserveAspectRatio="xMidYMid meet" version="1.0"><defs><clipPath id="2acde63382"><path d="M 428 225 L 515.605469 225 L 515.605469 313 L 428 313 Z M 428 225 " clip-rule="nonzero"/></clipPath><clipPath id="938cb9864d"><path d="M 234.355469 228 L 389 228 L 389 453 L 234.355469 453 Z M 234.355469 228 " clip-rule="nonzero"/></clipPath></defs><path fill="#192a2c" d="M 337.886719 328.386719 L 503.550781 328.386719 L 503.550781 391.570312 L 337.886719 391.570312 Z M 337.886719 328.386719 " fill-opacity="1" fill-rule="nonzero"/><path fill="#192a2c" d="M 503.550781 328.386719 L 503.550781 494.050781 L 440.367188 494.050781 L 440.367188 328.386719 Z M 503.550781 328.386719 " fill-opacity="1" fill-rule="nonzero"/><path fill="#192a2c" d="M 306.863281 480.183594 L 456.84375 330.203125 L 501.519531 374.878906 L 351.539062 524.859375 Z M 306.863281 480.183594 " fill-opacity="1" fill-rule="nonzero"/><g clip-path="url(#2acde63382)"><path fill="#192a2c" d="M 515.644531 268.683594 C 515.644531 270.113281 515.574219 271.542969 515.433594 272.964844 C 515.292969 274.390625 515.082031 275.800781 514.804688 277.207031 C 514.523438 278.609375 514.175781 279.996094 513.761719 281.363281 C 513.347656 282.734375 512.867188 284.078125 512.316406 285.398438 C 511.769531 286.722656 511.160156 288.011719 510.484375 289.273438 C 509.8125 290.539062 509.074219 291.761719 508.28125 292.953125 C 507.488281 294.140625 506.636719 295.289062 505.726562 296.394531 C 504.820312 297.5 503.859375 298.558594 502.847656 299.570312 C 501.835938 300.582031 500.777344 301.542969 499.671875 302.449219 C 498.566406 303.359375 497.417969 304.210938 496.230469 305.003906 C 495.039062 305.800781 493.8125 306.535156 492.550781 307.207031 C 491.289062 307.882812 490 308.492188 488.675781 309.042969 C 487.355469 309.589844 486.007812 310.070312 484.640625 310.484375 C 483.273438 310.902344 481.886719 311.246094 480.480469 311.527344 C 479.078125 311.804688 477.664062 312.015625 476.242188 312.15625 C 474.816406 312.296875 473.390625 312.367188 471.960938 312.367188 C 470.53125 312.367188 469.101562 312.296875 467.679688 312.15625 C 466.253906 312.015625 464.839844 311.804688 463.4375 311.527344 C 462.035156 311.246094 460.648438 310.902344 459.28125 310.484375 C 457.910156 310.070312 456.566406 309.589844 455.242188 309.042969 C 453.921875 308.492188 452.628906 307.882812 451.367188 307.207031 C 450.105469 306.535156 448.878906 305.800781 447.691406 305.003906 C 446.5 304.210938 445.355469 303.359375 444.246094 302.449219 C 443.140625 301.542969 442.082031 300.582031 441.070312 299.570312 C 440.058594 298.558594 439.101562 297.5 438.191406 296.394531 C 437.285156 295.289062 436.433594 294.140625 435.640625 292.953125 C 434.84375 291.761719 434.109375 290.539062 433.433594 289.273438 C 432.761719 288.011719 432.148438 286.722656 431.601562 285.398438 C 431.054688 284.078125 430.574219 282.734375 430.15625 281.363281 C 429.742188 279.996094 429.394531 278.609375 429.117188 277.207031 C 428.835938 275.800781 428.628906 274.390625 428.488281 272.964844 C 428.347656 271.542969 428.277344 270.113281 428.277344 268.683594 C 428.277344 267.253906 428.347656 265.824219 428.488281 264.402344 C 428.628906 262.976562 428.835938 261.5625 429.117188 260.160156 C 429.394531 258.757812 429.742188 257.371094 430.15625 256.003906 C 430.574219 254.632812 431.054688 253.289062 431.601562 251.964844 C 432.148438 250.644531 432.761719 249.351562 433.433594 248.089844 C 434.109375 246.828125 434.84375 245.605469 435.640625 244.414062 C 436.433594 243.226562 437.285156 242.078125 438.191406 240.972656 C 439.101562 239.863281 440.058594 238.804688 441.070312 237.792969 C 442.082031 236.78125 443.140625 235.824219 444.246094 234.914062 C 445.355469 234.007812 446.5 233.15625 447.691406 232.363281 C 448.878906 231.566406 450.105469 230.832031 451.367188 230.160156 C 452.628906 229.484375 453.921875 228.871094 455.242188 228.324219 C 456.566406 227.777344 457.910156 227.296875 459.28125 226.882812 C 460.648438 226.464844 462.035156 226.117188 463.4375 225.839844 C 464.839844 225.558594 466.253906 225.351562 467.679688 225.210938 C 469.101562 225.070312 470.53125 225 471.960938 225 C 473.390625 225 474.816406 225.070312 476.242188 225.210938 C 477.664062 225.351562 479.078125 225.558594 480.480469 225.839844 C 481.886719 226.117188 483.273438 226.464844 484.640625 226.882812 C 486.007812 227.296875 487.355469 227.777344 488.675781 228.324219 C 490 228.871094 491.289062 229.484375 492.550781 230.160156 C 493.8125 230.832031 495.039062 231.566406 496.230469 232.363281 C 497.417969 233.15625 498.566406 234.007812 499.671875 234.914062 C 500.777344 235.824219 501.835938 236.78125 502.847656 237.792969 C 503.859375 238.804688 504.820312 239.863281 505.726562 240.972656 C 506.636719 242.078125 507.488281 243.226562 508.28125 244.414062 C 509.074219 245.605469 509.8125 246.828125 510.484375 248.089844 C 511.160156 249.351562 511.769531 250.644531 512.316406 251.964844 C 512.867188 253.289062 513.347656 254.632812 513.761719 256.003906 C 514.175781 257.371094 514.523438 258.757812 514.804688 260.160156 C 515.082031 261.5625 515.292969 262.976562 515.433594 264.402344 C 515.574219 265.824219 515.644531 267.253906 515.644531 268.683594 Z M 515.644531 268.683594 " fill-opacity="1" fill-rule="nonzero"/></g><g clip-path="url(#938cb9864d)"><path fill="#192a2c" d="M 388.667969 231.046875 C 360.574219 225.9375 331.578125 230.15625 306.101562 243.0625 C 280.628906 255.964844 260.074219 276.847656 247.570312 302.519531 C 235.066406 328.195312 231.304688 357.253906 236.851562 385.265625 C 242.398438 413.277344 255.636719 433.21875 276.980469 452.1875 L 317.933594 413.082031 C 306.316406 402.757812 298.394531 388.917969 295.375 373.671875 C 292.355469 358.429688 294.402344 342.613281 301.207031 328.640625 C 308.011719 314.667969 319.199219 303.304688 333.0625 296.28125 C 346.925781 289.257812 362.707031 286.960938 377.996094 289.742188 Z M 388.667969 231.046875 " fill-opacity="1" fill-rule="nonzero"/></g></svg>