<svg xmlns="http://www.w3.org/2000/svg" xmlns:xlink="http://www.w3.org/1999/xlink" width="1000" zoomAndPan="magnify" viewBox="0 0 750 749.999995" height="1000" preserveAspectRatio="xMidYMid meet" version="1.0"><defs><clipPath id="7a4f2eae4d"><path d="M 428 225 L 515.605469 225 L 515.605469 313 L 428 313 Z M 428 225 " clip-rule="nonzero"/></clipPath><clipPath id="25c9f2436b"><path d="M 234.355469 228 L 389 228 L 389 453 L 234.355469 453 Z M 234.355469 228 " clip-rule="nonzero"/></clipPath></defs><path fill="#ffffff" d="M 337.875 328.386719 L 503.515625 328.386719 L 503.515625 391.570312 L 337.875 391.570312 Z M 337.875 328.386719 " fill-opacity="1" fill-rule="nonzero"/><path fill="#ffffff" d="M 503.515625 328.386719 L 503.515625 494.050781 L 440.34375 494.050781 L 440.34375 328.386719 Z M 503.515625 328.386719 " fill-opacity="1" fill-rule="nonzero"/><path fill="#ffffff" d="M 306.851562 480.183594 L 456.816406 330.203125 L 501.484375 374.878906 L 351.523438 524.859375 Z M 306.851562 480.183594 " fill-opacity="1" fill-rule="nonzero"/><g clip-path="url(#7a4f2eae4d)"><path fill="#ffffff" d="M 515.609375 268.683594 C 515.609375 270.113281 515.539062 271.542969 515.398438 272.964844 C 515.257812 274.390625 515.046875 275.800781 514.769531 277.207031 C 514.488281 278.609375 514.140625 279.996094 513.726562 281.363281 C 513.3125 282.734375 512.832031 284.078125 512.285156 285.398438 C 511.734375 286.722656 511.125 288.011719 510.449219 289.273438 C 509.777344 290.539062 509.042969 291.761719 508.246094 292.953125 C 507.453125 294.140625 506.601562 295.289062 505.695312 296.394531 C 504.785156 297.5 503.828125 298.558594 502.816406 299.570312 C 501.804688 300.582031 500.746094 301.542969 499.640625 302.449219 C 498.535156 303.359375 497.386719 304.210938 496.195312 305.003906 C 495.007812 305.800781 493.78125 306.535156 492.519531 307.207031 C 491.257812 307.882812 489.964844 308.492188 488.644531 309.042969 C 487.324219 309.589844 485.976562 310.070312 484.609375 310.484375 C 483.242188 310.902344 481.855469 311.246094 480.453125 311.527344 C 479.046875 311.804688 477.636719 312.015625 476.210938 312.15625 C 474.789062 312.296875 473.359375 312.367188 471.929688 312.367188 C 470.5 312.367188 469.074219 312.296875 467.648438 312.15625 C 466.226562 312.015625 464.8125 311.804688 463.410156 311.527344 C 462.007812 311.246094 460.621094 310.902344 459.25 310.484375 C 457.882812 310.070312 456.539062 309.589844 455.214844 309.042969 C 453.894531 308.492188 452.601562 307.882812 451.339844 307.207031 C 450.078125 306.535156 448.855469 305.800781 447.664062 305.003906 C 446.476562 304.210938 445.328125 303.359375 444.222656 302.449219 C 443.117188 301.542969 442.058594 300.582031 441.046875 299.570312 C 440.035156 298.558594 439.074219 297.5 438.167969 296.394531 C 437.257812 295.289062 436.410156 294.140625 435.613281 292.953125 C 434.820312 291.761719 434.085938 290.539062 433.410156 289.273438 C 432.734375 288.011719 432.125 286.722656 431.578125 285.398438 C 431.03125 284.078125 430.546875 282.734375 430.132812 281.363281 C 429.71875 279.996094 429.371094 278.609375 429.09375 277.207031 C 428.8125 275.800781 428.601562 274.390625 428.464844 272.964844 C 428.324219 271.542969 428.253906 270.113281 428.253906 268.683594 C 428.253906 267.253906 428.324219 265.824219 428.464844 264.402344 C 428.601562 262.976562 428.8125 261.5625 429.09375 260.160156 C 429.371094 258.757812 429.71875 257.371094 430.132812 256.003906 C 430.546875 254.632812 431.03125 253.289062 431.578125 251.964844 C 432.125 250.644531 432.734375 249.351562 433.410156 248.089844 C 434.085938 246.828125 434.820312 245.605469 435.613281 244.414062 C 436.410156 243.226562 437.257812 242.078125 438.167969 240.972656 C 439.074219 239.863281 440.035156 238.804688 441.046875 237.792969 C 442.058594 236.78125 443.117188 235.824219 444.222656 234.914062 C 445.328125 234.007812 446.476562 233.15625 447.664062 232.363281 C 448.855469 231.566406 450.078125 230.832031 451.339844 230.160156 C 452.601562 229.484375 453.894531 228.871094 455.214844 228.324219 C 456.539062 227.777344 457.882812 227.296875 459.25 226.882812 C 460.621094 226.464844 462.007812 226.117188 463.410156 225.839844 C 464.8125 225.558594 466.226562 225.351562 467.648438 225.210938 C 469.074219 225.070312 470.5 225 471.929688 225 C 473.359375 225 474.789062 225.070312 476.210938 225.210938 C 477.636719 225.351562 479.046875 225.558594 480.453125 225.839844 C 481.855469 226.117188 483.242188 226.464844 484.609375 226.882812 C 485.976562 227.296875 487.324219 227.777344 488.644531 228.324219 C 489.964844 228.871094 491.257812 229.484375 492.519531 230.160156 C 493.78125 230.832031 495.007812 231.566406 496.195312 232.363281 C 497.386719 233.15625 498.535156 234.007812 499.640625 234.914062 C 500.746094 235.824219 501.804688 236.78125 502.816406 237.792969 C 503.828125 238.804688 504.785156 239.863281 505.695312 240.972656 C 506.601562 242.078125 507.453125 243.226562 508.246094 244.414062 C 509.042969 245.605469 509.777344 246.828125 510.449219 248.089844 C 511.125 249.351562 511.734375 250.644531 512.285156 251.964844 C 512.832031 253.289062 513.3125 254.632812 513.726562 256.003906 C 514.140625 257.371094 514.488281 258.757812 514.769531 260.160156 C 515.046875 261.5625 515.257812 262.976562 515.398438 264.402344 C 515.539062 265.824219 515.609375 267.253906 515.609375 268.683594 Z M 515.609375 268.683594 " fill-opacity="1" fill-rule="nonzero"/></g><g clip-path="url(#25c9f2436b)"><path fill="#ffffff" d="M 388.648438 231.046875 C 360.558594 225.9375 331.566406 230.15625 306.09375 243.0625 C 280.625 255.964844 260.070312 276.847656 247.570312 302.519531 C 235.066406 328.195312 231.304688 357.253906 236.851562 385.265625 C 242.398438 413.277344 255.632812 433.21875 276.976562 452.1875 L 317.921875 413.082031 C 306.304688 402.757812 298.386719 388.917969 295.367188 373.671875 C 292.347656 358.429688 294.394531 342.613281 301.199219 328.640625 C 308.003906 314.667969 319.1875 303.304688 333.050781 296.28125 C 346.914062 289.257812 362.691406 286.960938 377.980469 289.742188 Z M 388.648438 231.046875 " fill-opacity="1" fill-rule="nonzero"/></g></svg>