<svg xmlns="http://www.w3.org/2000/svg" xmlns:xlink="http://www.w3.org/1999/xlink" width="1000" zoomAndPan="magnify" viewBox="0 0 750 749.999995" height="1000" preserveAspectRatio="xMidYMid meet" version="1.0"><defs><clipPath id="85ddf07ce8"><path d="M 225 298.425781 L 426 298.425781 L 426 451.425781 L 225 451.425781 Z M 225 298.425781 " clip-rule="nonzero"/></clipPath><clipPath id="6804316523"><path d="M 442 368 L 525 368 L 525 451.425781 L 442 451.425781 Z M 442 368 " clip-rule="nonzero"/></clipPath></defs><rect x="-75" width="900" fill="#ffffff" y="-74.999999" height="899.999994" fill-opacity="1"/><rect x="-75" width="900" fill="#ffffff" y="-74.999999" height="899.999994" fill-opacity="1"/><g clip-path="url(#85ddf07ce8)"><path fill="#f69605" d="M 225.003906 327.5 L 259.777344 298.425781 L 425.863281 298.425781 L 425.863281 451.566406 L 389.535156 451.566406 L 389.535156 345.667969 L 368.773438 345.667969 L 290.917969 451.566406 L 225.003906 451.566406 L 302.855469 327.5 Z M 225.003906 327.5 " fill-opacity="1" fill-rule="nonzero"/></g><g clip-path="url(#6804316523)"><path fill="#f69605" d="M 524.996094 410 C 524.996094 411.363281 524.929688 412.722656 524.796875 414.074219 C 524.664062 415.429688 524.464844 416.777344 524.199219 418.109375 C 523.933594 419.445312 523.601562 420.765625 523.207031 422.066406 C 522.8125 423.371094 522.355469 424.652344 521.835938 425.910156 C 521.316406 427.167969 520.738281 428.394531 520.09375 429.597656 C 519.453125 430.796875 518.757812 431.960938 518.003906 433.09375 C 517.246094 434.226562 516.4375 435.320312 515.574219 436.371094 C 514.714844 437.421875 513.800781 438.429688 512.839844 439.394531 C 511.878906 440.355469 510.875 441.269531 509.824219 442.132812 C 508.773438 442.996094 507.683594 443.804688 506.550781 444.5625 C 505.421875 445.320312 504.257812 446.019531 503.058594 446.660156 C 501.859375 447.300781 500.632812 447.882812 499.378906 448.402344 C 498.121094 448.925781 496.84375 449.382812 495.542969 449.777344 C 494.242188 450.171875 492.925781 450.503906 491.59375 450.769531 C 490.261719 451.035156 488.917969 451.234375 487.566406 451.367188 C 486.210938 451.5 484.855469 451.566406 483.496094 451.566406 C 482.136719 451.566406 480.78125 451.5 479.429688 451.367188 C 478.078125 451.234375 476.734375 451.035156 475.402344 450.769531 C 474.070312 450.503906 472.75 450.171875 471.449219 449.777344 C 470.152344 449.382812 468.871094 448.925781 467.617188 448.402344 C 466.359375 447.882812 465.132812 447.300781 463.933594 446.660156 C 462.738281 446.019531 461.570312 445.320312 460.441406 444.5625 C 459.3125 443.804688 458.222656 442.996094 457.171875 442.132812 C 456.121094 441.269531 455.113281 440.355469 454.152344 439.394531 C 453.191406 438.429688 452.28125 437.421875 451.417969 436.371094 C 450.554688 435.320312 449.746094 434.226562 448.992188 433.09375 C 448.238281 431.960938 447.539062 430.796875 446.898438 429.597656 C 446.257812 428.394531 445.679688 427.167969 445.15625 425.910156 C 444.636719 424.652344 444.179688 423.371094 443.785156 422.066406 C 443.390625 420.765625 443.0625 419.445312 442.796875 418.109375 C 442.53125 416.777344 442.332031 415.429688 442.199219 414.074219 C 442.066406 412.722656 442 411.363281 442 410 C 442 408.640625 442.066406 407.28125 442.199219 405.925781 C 442.332031 404.574219 442.53125 403.226562 442.796875 401.890625 C 443.0625 400.558594 443.390625 399.238281 443.785156 397.933594 C 444.179688 396.632812 444.636719 395.351562 445.15625 394.09375 C 445.679688 392.835938 446.257812 391.609375 446.898438 390.40625 C 447.539062 389.207031 448.238281 388.039062 448.992188 386.910156 C 449.746094 385.777344 450.554688 384.683594 451.417969 383.632812 C 452.28125 382.578125 453.191406 381.570312 454.152344 380.609375 C 455.113281 379.648438 456.121094 378.734375 457.171875 377.871094 C 458.222656 377.007812 459.3125 376.195312 460.441406 375.441406 C 461.570312 374.683594 462.738281 373.984375 463.933594 373.34375 C 465.132812 372.699219 466.359375 372.121094 467.617188 371.597656 C 468.871094 371.078125 470.152344 370.621094 471.449219 370.222656 C 472.75 369.828125 474.070312 369.5 475.402344 369.234375 C 476.734375 368.96875 478.078125 368.769531 479.429688 368.636719 C 480.78125 368.5 482.136719 368.433594 483.496094 368.433594 C 484.855469 368.433594 486.210938 368.5 487.566406 368.636719 C 488.917969 368.769531 490.261719 368.96875 491.59375 369.234375 C 492.925781 369.5 494.242188 369.828125 495.542969 370.222656 C 496.84375 370.621094 498.121094 371.078125 499.378906 371.597656 C 500.632812 372.121094 501.859375 372.699219 503.058594 373.34375 C 504.257812 373.984375 505.421875 374.683594 506.550781 375.441406 C 507.683594 376.195312 508.773438 377.007812 509.824219 377.871094 C 510.875 378.734375 511.878906 379.648438 512.839844 380.609375 C 513.800781 381.570312 514.714844 382.578125 515.574219 383.632812 C 516.4375 384.683594 517.246094 385.777344 518.003906 386.910156 C 518.757812 388.039062 519.453125 389.207031 520.09375 390.40625 C 520.738281 391.609375 521.316406 392.835938 521.835938 394.09375 C 522.355469 395.351562 522.8125 396.632812 523.207031 397.933594 C 523.601562 399.238281 523.933594 400.558594 524.199219 401.890625 C 524.464844 403.226562 524.664062 404.574219 524.796875 405.925781 C 524.929688 407.28125 524.996094 408.640625 524.996094 410 Z M 524.996094 410 " fill-opacity="1" fill-rule="nonzero"/></g></svg>