<?xml version="1.0" encoding="UTF-8"?>
<svg version="1.1" xmlns="http://www.w3.org/2000/svg" width="500" height="500">
<path d="M0 0 C1.14035411 -0.00427212 2.28070821 -0.00854425 3.4556185 -0.01294583 C7.27921155 -0.02118583 11.10170931 0.00632829 14.92520142 0.03364563 C17.66497492 0.0378401 20.40472699 0.03448479 23.14450073 0.03143311 C29.04423753 0.02881314 34.94369754 0.04448145 40.84336472 0.0726223 C49.37321146 0.11328233 57.90292456 0.12628205 66.43285771 0.13256226 C80.27250385 0.14350153 94.11200252 0.17676572 107.9515686 0.22407532 C121.39426956 0.26998043 134.83693023 0.30531032 148.2796936 0.32661438 C149.53558039 0.32862436 149.53558039 0.32862436 150.81683862 0.33067495 C157.36488431 0.34107225 163.91293088 0.3508568 170.46097779 0.36044776 C202.54895983 0.40760408 234.63657265 0.5081981 266.72451782 0.60127258 C266.72451782 85.08127258 266.72451782 169.56127258 266.72451782 256.60127258 C246.59451782 256.60127258 226.46451782 256.60127258 205.72451782 256.60127258 C205.72451782 198.52127258 205.72451782 140.44127258 205.72451782 80.60127258 C194.17451782 80.60127258 182.62451782 80.60127258 170.72451782 80.60127258 C169.73451782 82.58127258 169.73451782 82.58127258 168.72451782 84.60127258 C167.33494498 86.64830861 165.92498774 88.66089332 164.47451782 90.66377258 C164.03978149 91.2681012 163.60504517 91.87242981 163.15713501 92.49507141 C157.67765261 100.08902306 152.10574559 107.61567599 146.53897095 115.14570618 C143.59657097 119.1277647 140.66081342 123.11471197 137.72451782 127.10127258 C136.55788449 128.68463047 135.39121778 130.26796378 134.22451782 131.85127258 C133.64701782 132.63502258 133.06951782 133.41877258 132.47451782 134.22627258 C71.22451782 217.35127258 71.22451782 217.35127258 69.47207642 219.72944641 C68.31336985 221.30206924 67.15483924 222.87482173 65.99649048 224.44770813 C62.95951458 228.57102973 59.91890048 232.69160241 56.87295532 236.80830383 C55.92549438 238.09027649 55.92549438 238.09027649 54.95889282 239.39814758 C53.75429831 241.0278931 52.54863639 242.65685043 51.34170532 244.28486633 C50.79514282 245.02478821 50.24858032 245.76471008 49.68545532 246.52705383 C49.2089856 247.17069885 48.73251587 247.81434387 48.24160767 248.47749329 C46.57731012 250.66823671 46.57731012 250.66823671 45.29492188 253.69143677 C42.43945333 256.92398095 42.07835212 257.04369958 38.0295105 257.32279968 C36.04669212 257.34020765 34.0634177 257.32420578 32.08096313 257.28242493 C30.9977327 257.28330109 29.91450226 257.28417725 28.79844666 257.28507996 C25.21578007 257.28089773 21.63498256 257.23421143 18.05264282 257.18721008 C15.56972273 257.17602032 13.08678939 257.1674791 10.60385132 257.16148376 C4.73523413 257.14091118 -1.13269231 257.09361916 -7.00102639 257.03338683 C-14.33849705 256.95971208 -21.67600726 256.92751116 -29.01376343 256.89424133 C-42.1013441 256.82988151 -55.18837065 256.72862051 -68.27548218 256.60127258 C-66.99566181 253.33695088 -65.6471905 250.34345099 -63.84188843 247.33564758 C-63.36388794 246.53739563 -62.88588745 245.73914368 -62.3934021 244.91670227 C-61.88011353 244.07011047 -61.36682495 243.22351868 -60.83798218 242.35127258 C-60.30084595 241.46085266 -59.76370972 240.57043274 -59.21029663 239.6530304 C-55.45866364 233.46738423 -51.59052695 227.36868067 -47.63095093 221.31465149 C-43.61818769 215.16904207 -39.72000719 208.95514703 -35.83798218 202.72627258 C-31.33736554 195.5049442 -26.82751377 188.29031654 -22.27548218 181.10127258 C-17.74947495 173.95074854 -13.25660171 166.78000683 -8.77548218 159.60127258 C-1.83570418 148.48514269 5.15401088 137.40138776 12.16299438 126.32881165 C18.85901407 115.74828561 25.51606844 105.14424199 32.14639282 94.52241516 C36.52258223 87.51500817 40.91908885 80.52087908 45.34170532 73.54267883 C50.1709027 65.91687163 54.94017628 58.25621904 59.72451782 50.60127258 C17.48451782 50.27127258 -24.75548218 49.94127258 -68.27548218 49.60127258 C-60.96194796 42.28773837 -53.29649366 35.55471831 -45.25985718 29.05049133 C-41.88786764 26.28316484 -38.57885095 23.44977771 -35.27548218 20.60127258 C-30.1692899 16.20125583 -25.01113029 11.88221223 -19.77548218 7.63642883 C-17.18393334 5.61622978 -17.18393334 5.61622978 -14.82394981 3.01165485 C-10.40494363 -0.63504886 -5.48494024 -0.07506419 0 0 Z " fill="#F69605" transform="translate(68.27548217773438,109.39872741699219)"/>
<path d="M0 0 C1.46566406 0.49306641 1.46566406 0.49306641 2.9609375 0.99609375 C20.71042258 7.58941147 32.87895201 21.33531556 41 38 C47.74692233 54.90630538 49.00726732 74.96149582 42 92 C41.525625 93.16660156 41.05125 94.33320313 40.5625 95.53515625 C36.45880952 104.60076093 31.05266928 111.10593648 24 118 C23.43925781 118.59296875 22.87851562 119.1859375 22.30078125 119.796875 C9.84820016 131.95530063 -9.68119897 136.38938855 -26.4375 136.21484375 C-41.75717693 135.29095972 -54.93745093 130.36323739 -67 121 C-67.92039062 120.32710937 -67.92039062 120.32710937 -68.859375 119.640625 C-82.32273742 109.14167265 -89.37407535 92.89090283 -92.6875 76.625 C-94.39879024 56.77403325 -90.13486105 38.04191859 -78 22 C-59.23505971 0.04742563 -27.77670095 -10.11924061 0 0 Z " fill="#F69605" transform="translate(454,230)"/>
</svg>
