<?xml version="1.0" encoding="UTF-8"?>
<svg version="1.1" xmlns="http://www.w3.org/2000/svg" width="500" height="260">
<path d="M0 0 C1.7069691 -0.00768982 1.7069691 -0.00768982 3.44842243 -0.015535 C7.25216615 -0.02539856 11.05431334 0.00755163 14.85791016 0.04037476 C17.58812969 0.04541181 20.31831832 0.0413805 23.04853821 0.03771973 C28.92155405 0.03457928 34.79416879 0.05334409 40.66708374 0.08714676 C49.15817631 0.13598693 57.64907567 0.15154333 66.14029348 0.15907471 C79.91785757 0.17219434 93.69520807 0.21209086 107.47265625 0.26889038 C120.85317943 0.32399603 134.23364423 0.36638228 147.61425781 0.39193726 C148.44796217 0.39354524 149.28166653 0.39515322 150.14063466 0.39680994 C156.66111336 0.40928706 163.18159334 0.4210284 169.70207381 0.43253732 C201.64223617 0.48910129 233.5818636 0.60981946 265.52197266 0.7215271 C265.52197266 85.5315271 265.52197266 170.3415271 265.52197266 257.7215271 C245.39197266 257.7215271 225.26197266 257.7215271 204.52197266 257.7215271 C204.52197266 199.6415271 204.52197266 141.5615271 204.52197266 81.7215271 C192.97197266 81.7215271 181.42197266 81.7215271 169.52197266 81.7215271 C168.53197266 83.7015271 168.53197266 83.7015271 167.52197266 85.7215271 C166.13239981 87.76856313 164.72244258 89.78114784 163.27197266 91.7840271 C162.83723633 92.38835571 162.4025 92.99268433 161.95458984 93.61532593 C156.47510745 101.20927758 150.90320042 108.7359305 145.33642578 116.26596069 C142.39402581 120.24801922 139.45826826 124.23496648 136.52197266 128.2215271 C135.35533932 129.80488499 134.18867262 131.3882183 133.02197266 132.9715271 C132.44447266 133.7552771 131.86697266 134.5390271 131.27197266 135.3465271 C70.02197266 218.4715271 70.02197266 218.4715271 68.26953125 220.84970093 C67.11082469 222.42232376 65.95229407 223.99507625 64.79394531 225.56796265 C61.75696941 229.69128425 58.71635532 233.81185692 55.67041016 237.92855835 C54.72294922 239.21053101 54.72294922 239.21053101 53.75634766 240.5184021 C52.55175314 242.14814762 51.34609122 243.77710494 50.13916016 245.40512085 C49.59259766 246.14504272 49.04603516 246.8849646 48.48291016 247.64730835 C48.00644043 248.29095337 47.5299707 248.93459839 47.0390625 249.5977478 C45.37476495 251.78849123 45.37476495 251.78849123 44.09237671 254.81169128 C41.23690816 258.04423546 40.87580696 258.1639541 36.82696533 258.4430542 C34.84414695 258.46046217 32.86087254 258.44446029 30.87841797 258.40267944 C29.79518753 258.4035556 28.71195709 258.40443176 27.59590149 258.40533447 C24.0132349 258.40115224 20.4324374 258.35446595 16.85009766 258.3074646 C14.36717756 258.29627483 11.88424422 258.28773362 9.40130615 258.28173828 C3.53268897 258.2611657 -2.33523747 258.21387368 -8.20357156 258.15364134 C-15.54104221 258.0799666 -22.87855243 258.04776567 -30.21630859 258.01449585 C-43.30388927 257.95013602 -56.39091581 257.84887502 -69.47802734 257.7215271 C-68.77479004 253.77093912 -67.7760859 251.24605617 -65.52099609 247.90512085 C-64.60302246 246.52671021 -64.60302246 246.52671021 -63.66650391 245.12045288 C-63.00618164 244.14318237 -62.34585938 243.16591187 -61.66552734 242.1590271 C-56.67494985 234.65178285 -51.81321845 227.10849144 -47.22802734 219.3465271 C-43.23722387 212.60742725 -39.11778632 205.98439691 -34.83032227 199.43051147 C-30.81916933 193.28600887 -26.92159957 187.07387278 -23.04052734 180.8465271 C-18.53991071 173.62519871 -14.03005894 166.41057106 -9.47802734 159.2215271 C-4.95202032 152.07100339 -0.45909745 144.90029194 4.02197266 137.7215271 C8.97879506 129.78059747 13.95702017 121.85395881 18.96337891 113.94418335 C23.65166299 106.53044345 28.29591076 99.08940201 32.94018555 91.64804077 C37.37315474 84.54901834 41.82870905 77.46475422 46.31494141 70.39926147 C50.44825583 63.87713445 54.47361442 57.30010924 58.52197266 50.7215271 C16.28197266 50.7215271 -25.95802734 50.7215271 -69.47802734 50.7215271 C-67.44455742 46.65458725 -66.14797767 45.38686154 -62.66552734 42.6590271 C-61.67681641 41.87140991 -60.68810547 41.08379272 -59.66943359 40.27230835 C-59.14623535 39.85674683 -58.62303711 39.4411853 -58.08398438 39.01303101 C-55.38200656 36.84011178 -52.74379408 34.59311381 -50.10302734 32.3465271 C-49.56137939 31.88705688 -49.01973145 31.42758667 -48.46166992 30.95419312 C-46.79970679 29.54418369 -45.13872693 28.1330244 -43.47802734 26.7215271 C-26.60212806 12.37800192 -26.60212806 12.37800192 -19.47802734 6.7215271 C-18.94569677 6.22690676 -18.4133662 5.73228642 -17.8649044 5.22267759 C-12.10411978 0.24016452 -7.43611825 -0.12324575 0 0 Z " fill="#F09204" transform="translate(69.47802734375,1.278472900390625)"/>
<path d="M0 0 C13.44926549 10.34558884 22.83484511 25.90146318 26.41015625 42.46875 C28.16708113 56.00015387 28.08683027 70.17813285 22.85546875 82.8984375 C22.38109375 84.06503906 21.90671875 85.23164063 21.41796875 86.43359375 C17.31427827 95.49919843 11.90813803 102.00437398 4.85546875 108.8984375 C4.29472656 109.49140625 3.73398437 110.084375 3.15625 110.6953125 C-9.29633109 122.85373813 -28.82573022 127.28782605 -45.58203125 127.11328125 C-60.90170818 126.18939722 -74.08198218 121.26167489 -86.14453125 111.8984375 C-87.06492187 111.22554687 -87.06492187 111.22554687 -88.00390625 110.5390625 C-101.46726867 100.04011015 -108.5186066 83.78934033 -111.83203125 67.5234375 C-113.69344561 45.9310309 -108.76944604 27.44097796 -95.15234375 10.40625 C-70.76830637 -18.1430322 -30.27840903 -20.23575659 0 0 Z " fill="#F09204" transform="translate(473.14453125,132.1015625)"/>
<path d="M0 0 C0.66 0.33 1.32 0.66 2 1 C0.90653119 2.34212062 -0.2001575 3.67347975 -1.3125 5 C-2.23482422 6.11375 -2.23482422 6.11375 -3.17578125 7.25 C-5 9 -5 9 -8 9 C-6.4169423 4.7257442 -3.49431596 2.73468206 0 0 Z " fill="#6E4302" transform="translate(8,43)"/>
</svg>
