<svg id="Layer_1" data-name="Layer 1" xmlns="http://www.w3.org/2000/svg" xmlns:xlink="http://www.w3.org/1999/xlink" viewBox="0 0 949.98 484.5"><defs><style>.cls-1{fill:none;}.cls-2{clip-path:url(#clip-path);}.cls-3{fill:#fff;}.cls-4{clip-path:url(#clip-path-2);}</style><clipPath id="clip-path" transform="translate(-25.01 -257.65)"><rect class="cls-1" x="25" y="257.65" width="636.5" height="484.5"/></clipPath><clipPath id="clip-path-2" transform="translate(-25.01 -257.65)"><rect class="cls-1" x="712.17" y="477.97" width="262.83" height="264.18"/></clipPath></defs><g class="cls-2"><path class="cls-3" d="M25,349.63l110.12-92H661.07v484.5H546v-335H480.28l-246.54,335H25L271.54,349.63Z" transform="translate(-25.01 -257.65)"/></g><g class="cls-4"><path class="cls-3" d="M975,610.65c0,4.3-.21,8.61-.63,12.89a127.43,127.43,0,0,1-1.9,12.76q-1.26,6.35-3.14,12.52T965,661a128,128,0,0,1-5.52,11.67q-3,5.69-6.61,11.07t-7.7,10.36a131.38,131.38,0,0,1-18.21,18.22q-5,4.11-10.36,7.7c-3.58,2.38-7.26,4.6-11.06,6.63s-7.68,3.87-11.65,5.51-8,3.11-12.15,4.36-8.29,2.29-12.51,3.13-8.47,1.47-12.75,1.89-8.58.63-12.89.63-8.6-.21-12.88-.63-8.53-1-12.75-1.89-8.4-1.88-12.52-3.13-8.16-2.71-12.13-4.36a128.06,128.06,0,0,1-11.67-5.51c-3.78-2-7.48-4.25-11.06-6.63s-7-5-10.35-7.7a128.51,128.51,0,0,1-9.56-8.66q-4.56-4.57-8.66-9.56t-7.68-10.36q-3.59-5.38-6.63-11.07c-2-3.8-3.86-7.7-5.52-11.67s-3.09-8-4.34-12.16-2.29-8.29-3.13-12.52-1.47-8.47-1.89-12.76-.63-8.59-.63-12.89.21-8.6.63-12.89,1.05-8.54,1.89-12.77,1.88-8.4,3.13-12.52,2.7-8.17,4.34-12.14,3.49-7.87,5.52-11.67,4.24-7.49,6.63-11.07A127.84,127.84,0,0,1,742,527.23q4.1-5,8.66-9.57t9.56-8.67q5-4.1,10.35-7.68c3.58-2.4,7.28-4.61,11.06-6.64s7.68-3.87,11.67-5.52,8-3.09,12.13-4.34,8.3-2.3,12.52-3.14,8.47-1.47,12.75-1.89a128.86,128.86,0,0,1,12.88-.64q6.46,0,12.89.64c4.28.42,8.54,1.05,12.75,1.89s8.39,1.89,12.51,3.14,8.16,2.7,12.15,4.34,7.85,3.49,11.65,5.52a129,129,0,0,1,11.06,6.64Q922,504.9,926.94,509t9.55,8.67a134,134,0,0,1,16.36,19.93c2.38,3.58,4.58,7.26,6.61,11.07A125.53,125.53,0,0,1,965,560.33c1.65,4,3.09,8,4.34,12.14s2.3,8.3,3.14,12.52a128.49,128.49,0,0,1,1.9,12.77Q975,604.19,975,610.65Z" transform="translate(-25.01 -257.65)"/></g></svg>