<svg xmlns="http://www.w3.org/2000/svg" xmlns:xlink="http://www.w3.org/1999/xlink" width="1000" zoomAndPan="magnify" viewBox="0 0 750 749.999995" height="1000" preserveAspectRatio="xMidYMid meet" version="1.0"><defs><clipPath id="83705ef8a9"><path d="M 264.558594 402 L 409 402 L 409 474.015625 L 264.558594 474.015625 Z M 264.558594 402 " clip-rule="nonzero"/></clipPath><clipPath id="94666db969"><path d="M 396 240.015625 L 480.558594 240.015625 L 480.558594 324 L 396 324 Z M 396 240.015625 " clip-rule="nonzero"/></clipPath></defs><g clip-path="url(#83705ef8a9)"><path fill="#001f3f" d="M 264.558594 402.820312 L 408.816406 402.820312 L 408.816406 474.082031 L 264.558594 474.082031 Z M 264.558594 402.820312 " fill-opacity="1" fill-rule="nonzero"/></g><path fill="#001f3f" d="M 331.472656 327.210938 L 475.734375 327.210938 L 475.734375 398.761719 L 331.472656 398.761719 Z M 331.472656 327.210938 " fill-opacity="1" fill-rule="nonzero"/><g clip-path="url(#94666db969)"><path fill="#001f3f" d="M 480.371094 281.875 C 480.371094 304.996094 461.628906 323.734375 438.511719 323.734375 C 415.390625 323.734375 396.652344 304.996094 396.652344 281.875 C 396.652344 258.757812 415.390625 240.019531 438.511719 240.019531 C 461.628906 240.019531 480.371094 258.757812 480.371094 281.875 Z M 480.371094 281.875 " fill-opacity="1" fill-rule="nonzero"/></g></svg>