<svg xmlns="http://www.w3.org/2000/svg" xmlns:xlink="http://www.w3.org/1999/xlink" width="1000" zoomAndPan="magnify" viewBox="0 0 750 749.999995" height="1000" preserveAspectRatio="xMidYMid meet" version="1.0"><defs><g/></defs><g fill="#000000" fill-opacity="1"><g transform="translate(160.867759, 415.633105)"><g><path d="M 78.578125 -42.9375 L 78.578125 0 L 63.765625 0 L 63.765625 -5.921875 C 57.160156 -1.210938 49.757812 1.140625 41.5625 1.140625 C 31.007812 1.140625 22.015625 -2.578125 14.578125 -10.015625 C 7.140625 -17.460938 3.421875 -26.460938 3.421875 -37.015625 C 3.421875 -47.566406 7.140625 -56.5625 14.578125 -64 C 22.015625 -71.4375 31.007812 -75.15625 41.5625 -75.15625 C 50.976562 -75.15625 59.253906 -72.117188 66.390625 -66.046875 L 55 -54.78125 C 50.976562 -57.738281 46.5 -59.21875 41.5625 -59.21875 C 35.34375 -59.21875 30.144531 -57.050781 25.96875 -52.71875 C 21.5625 -48.320312 19.359375 -43.085938 19.359375 -37.015625 C 19.359375 -30.941406 21.5625 -25.703125 25.96875 -21.296875 C 30.289062 -16.960938 35.488281 -14.796875 41.5625 -14.796875 C 47.5625 -14.796875 52.800781 -16.960938 57.28125 -21.296875 C 57.425781 -21.441406 57.578125 -21.59375 57.734375 -21.75 L 58.296875 -22.3125 C 58.828125 -22.925781 59.320312 -23.5 59.78125 -24.03125 C 61.070312 -25.625 61.945312 -26.988281 62.40625 -28.125 L 45.328125 -28.125 L 45.328125 -42.9375 Z M 63.65625 -28.125 L 63.765625 -28.015625 L 63.765625 -28.125 Z M 63.65625 -28.125 "/></g></g></g><g fill="#000000" fill-opacity="1"><g transform="translate(242.845064, 415.633105)"><g><path d="M 21.1875 -29.03125 L 21.1875 -15.9375 L 55.109375 -15.9375 L 55.109375 0 L 3.421875 0 L 3.421875 -74.015625 L 55.109375 -74.015625 L 55.109375 -58.078125 L 21.1875 -58.078125 L 21.1875 -44.984375 L 49.984375 -44.984375 L 49.984375 -29.03125 Z M 21.1875 -29.03125 "/></g></g></g><g fill="#000000" fill-opacity="1"><g transform="translate(301.367763, 415.633105)"><g><path d="M 51.8125 -74.015625 L 69.578125 -74.015625 L 69.578125 0 L 20.5 -36.09375 L 20.5 0 L 2.734375 0 L 2.734375 -74.015625 L 51.8125 -36.21875 Z M 51.8125 -74.015625 "/></g></g></g><g fill="#000000" fill-opacity="1"><g transform="translate(373.667197, 415.633105)"><g><path d="M 21.1875 -29.03125 L 21.1875 -15.9375 L 55.109375 -15.9375 L 55.109375 0 L 3.421875 0 L 3.421875 -74.015625 L 55.109375 -74.015625 L 55.109375 -58.078125 L 21.1875 -58.078125 L 21.1875 -44.984375 L 49.984375 -44.984375 L 49.984375 -29.03125 Z M 21.1875 -29.03125 "/></g></g></g><g fill="#000000" fill-opacity="1"><g transform="translate(432.189896, 415.633105)"><g><path d="M 33.59375 0.109375 C 28.582031 0.109375 24.179688 -0.609375 20.390625 -2.046875 C 17.347656 -3.265625 14.234375 -5.273438 11.046875 -8.078125 C 7.398438 -11.421875 5.082031 -15.5625 4.09375 -20.5 C 3.71875 -22.09375 3.53125 -23.6875 3.53125 -25.28125 C 3.457031 -25.8125 3.457031 -26.34375 3.53125 -26.875 L 3.53125 -27.671875 L 19.125 -27.4375 L 19.125 -27.5625 C 19.125 -24.75 19.734375 -22.429688 20.953125 -20.609375 C 23.234375 -17.191406 27.445312 -15.484375 33.59375 -15.484375 C 43.457031 -15.484375 48.390625 -17.800781 48.390625 -22.4375 C 48.390625 -26.914062 43.304688 -29.722656 33.140625 -30.859375 C 27.296875 -31.546875 22.285156 -32.757812 18.109375 -34.5 C 14.234375 -36.09375 11.082031 -38.21875 8.65625 -40.875 C 5.238281 -44.675781 3.53125 -49.082031 3.53125 -54.09375 C 3.53125 -57.207031 4.097656 -60.128906 5.234375 -62.859375 C 6.066406 -64.910156 7.207031 -66.769531 8.65625 -68.4375 C 13.96875 -74.4375 22.394531 -77.4375 33.9375 -77.4375 C 40.84375 -77.4375 46.6875 -76.066406 51.46875 -73.328125 C 55.113281 -71.285156 58.078125 -68.554688 60.359375 -65.140625 C 62.023438 -62.554688 63.203125 -59.59375 63.890625 -56.25 C 64.109375 -55.113281 64.257812 -53.976562 64.34375 -52.84375 C 64.414062 -52.457031 64.453125 -52.078125 64.453125 -51.703125 L 64.453125 -51.015625 L 48.859375 -51.015625 L 48.859375 -50.90625 C 48.929688 -53.175781 48.359375 -55.109375 47.140625 -56.703125 C 44.710938 -60.117188 40.3125 -61.828125 33.9375 -61.828125 C 30.0625 -61.828125 26.875 -61.335938 24.375 -60.359375 C 21.257812 -59.140625 19.703125 -57.390625 19.703125 -55.109375 C 19.703125 -50.410156 24.75 -47.488281 34.84375 -46.34375 C 46.226562 -45.050781 54.425781 -41.519531 59.4375 -35.75 C 62.78125 -31.800781 64.453125 -27.363281 64.453125 -22.4375 L 64.453125 -21.40625 C 64.453125 -20.945312 64.414062 -20.492188 64.34375 -20.046875 C 64.257812 -18.828125 64.109375 -17.6875 63.890625 -16.625 C 63.128906 -13.59375 61.6875 -10.898438 59.5625 -8.546875 C 57.050781 -5.734375 53.671875 -3.566406 49.421875 -2.046875 C 45.171875 -0.609375 39.894531 0.109375 33.59375 0.109375 Z M 33.59375 0.109375 "/></g></g></g><g fill="#000000" fill-opacity="1"><g transform="translate(500.048899, 415.633105)"><g><path d="M 1.703125 -74.015625 L 19.46875 -74.015625 L 19.46875 0 L 1.703125 0 Z M 1.703125 -74.015625 "/></g></g></g><g fill="#000000" fill-opacity="1"><g transform="translate(521.226381, 415.633105)"><g><path d="M 33.59375 0.109375 C 28.582031 0.109375 24.179688 -0.609375 20.390625 -2.046875 C 17.347656 -3.265625 14.234375 -5.273438 11.046875 -8.078125 C 7.398438 -11.421875 5.082031 -15.5625 4.09375 -20.5 C 3.71875 -22.09375 3.53125 -23.6875 3.53125 -25.28125 C 3.457031 -25.8125 3.457031 -26.34375 3.53125 -26.875 L 3.53125 -27.671875 L 19.125 -27.4375 L 19.125 -27.5625 C 19.125 -24.75 19.734375 -22.429688 20.953125 -20.609375 C 23.234375 -17.191406 27.445312 -15.484375 33.59375 -15.484375 C 43.457031 -15.484375 48.390625 -17.800781 48.390625 -22.4375 C 48.390625 -26.914062 43.304688 -29.722656 33.140625 -30.859375 C 27.296875 -31.546875 22.285156 -32.757812 18.109375 -34.5 C 14.234375 -36.09375 11.082031 -38.21875 8.65625 -40.875 C 5.238281 -44.675781 3.53125 -49.082031 3.53125 -54.09375 C 3.53125 -57.207031 4.097656 -60.128906 5.234375 -62.859375 C 6.066406 -64.910156 7.207031 -66.769531 8.65625 -68.4375 C 13.96875 -74.4375 22.394531 -77.4375 33.9375 -77.4375 C 40.84375 -77.4375 46.6875 -76.066406 51.46875 -73.328125 C 55.113281 -71.285156 58.078125 -68.554688 60.359375 -65.140625 C 62.023438 -62.554688 63.203125 -59.59375 63.890625 -56.25 C 64.109375 -55.113281 64.257812 -53.976562 64.34375 -52.84375 C 64.414062 -52.457031 64.453125 -52.078125 64.453125 -51.703125 L 64.453125 -51.015625 L 48.859375 -51.015625 L 48.859375 -50.90625 C 48.929688 -53.175781 48.359375 -55.109375 47.140625 -56.703125 C 44.710938 -60.117188 40.3125 -61.828125 33.9375 -61.828125 C 30.0625 -61.828125 26.875 -61.335938 24.375 -60.359375 C 21.257812 -59.140625 19.703125 -57.390625 19.703125 -55.109375 C 19.703125 -50.410156 24.75 -47.488281 34.84375 -46.34375 C 46.226562 -45.050781 54.425781 -41.519531 59.4375 -35.75 C 62.78125 -31.800781 64.453125 -27.363281 64.453125 -22.4375 L 64.453125 -21.40625 C 64.453125 -20.945312 64.414062 -20.492188 64.34375 -20.046875 C 64.257812 -18.828125 64.109375 -17.6875 63.890625 -16.625 C 63.128906 -13.59375 61.6875 -10.898438 59.5625 -8.546875 C 57.050781 -5.734375 53.671875 -3.566406 49.421875 -2.046875 C 45.171875 -0.609375 39.894531 0.109375 33.59375 0.109375 Z M 33.59375 0.109375 "/></g></g></g></svg>