<svg xmlns="http://www.w3.org/2000/svg" xmlns:xlink="http://www.w3.org/1999/xlink" width="500" zoomAndPan="magnify" viewBox="0 0 375 374.999991" height="500" preserveAspectRatio="xMidYMid meet" version="1.0"><defs><g/></defs><g fill="#000000" fill-opacity="1"><g transform="translate(54.819628, 201.105141)"><g><path d="M 24.84375 -36.609375 C 21.78125 -36.609375 18.867188 -36.113281 16.109375 -35.125 C 13.359375 -34.132812 10.992188 -32.789062 9.015625 -31.09375 C 7.035156 -29.40625 5.4375 -27.410156 4.21875 -25.109375 C 3 -22.804688 2.34375 -20.351562 2.25 -17.75 C 2.175781 -14.382812 3.15625 -11.242188 5.1875 -8.328125 C 7.21875 -5.421875 9.976562 -3.140625 13.46875 -1.484375 C 16.96875 0.171875 20.757812 1 24.84375 1 C 29.226562 1 33.179688 0.0507812 36.703125 -1.84375 C 40.222656 -3.738281 42.992188 -6.320312 45.015625 -9.59375 L 36.390625 -12.171875 C 35.128906 -10.429688 33.492188 -9.054688 31.484375 -8.046875 C 29.484375 -7.046875 27.269531 -6.546875 24.84375 -6.546875 C 21.738281 -6.546875 18.953125 -7.34375 16.484375 -8.9375 C 14.015625 -10.539062 12.410156 -12.5625 11.671875 -15 L 36.71875 -15 L 36.71875 -20.65625 L 11.8125 -20.65625 C 12.625 -23.113281 14.222656 -25.128906 16.609375 -26.703125 C 18.992188 -28.273438 21.738281 -29.0625 24.84375 -29.0625 C 27.300781 -29.0625 29.609375 -28.546875 31.765625 -27.515625 C 33.921875 -26.492188 35.570312 -25.132812 36.71875 -23.4375 L 45.125 -26.484375 C 43.289062 -29.554688 40.535156 -32.007812 36.859375 -33.84375 C 33.191406 -35.6875 29.1875 -36.609375 24.84375 -36.609375 Z M 24.84375 -36.609375 "/></g></g></g><g fill="#000000" fill-opacity="1"><g transform="translate(101.218458, 201.105141)"><g><path d="M 20.1875 -36.65625 C 16.769531 -36.65625 13.671875 -35.804688 10.890625 -34.109375 C 8.117188 -32.410156 5.96875 -30.125 4.4375 -27.25 C 2.90625 -24.375 2.140625 -21.207031 2.140625 -17.75 L 2.140625 0.03125 L 11.234375 0.03125 L 11.234375 -19.296875 C 11.234375 -22.015625 12.175781 -24.320312 14.0625 -26.21875 C 15.945312 -28.113281 18.238281 -29.0625 20.9375 -29.0625 C 23.632812 -29.0625 25.9375 -28.113281 27.84375 -26.21875 C 29.75 -24.320312 30.703125 -22.015625 30.703125 -19.296875 L 30.703125 0.03125 L 39.90625 0.03125 L 39.90625 -19.296875 C 39.90625 -22.015625 40.851562 -24.320312 42.75 -26.21875 C 44.644531 -28.113281 46.945312 -29.0625 49.65625 -29.0625 C 52.363281 -29.0625 54.664062 -28.113281 56.5625 -26.21875 C 58.457031 -24.320312 59.40625 -22.015625 59.40625 -19.296875 L 59.40625 0.03125 L 68.640625 0.03125 L 68.640625 -17.75 C 68.640625 -21.207031 67.867188 -24.375 66.328125 -27.25 C 64.796875 -30.125 62.640625 -32.410156 59.859375 -34.109375 C 57.078125 -35.804688 53.984375 -36.65625 50.578125 -36.65625 C 47.347656 -36.65625 44.410156 -35.894531 41.765625 -34.375 C 39.117188 -32.863281 36.992188 -30.796875 35.390625 -28.171875 C 33.773438 -30.796875 31.644531 -32.863281 29 -34.375 C 26.363281 -35.894531 23.425781 -36.65625 20.1875 -36.65625 Z M 20.1875 -36.65625 "/></g></g></g><g fill="#000000" fill-opacity="1"><g transform="translate(171.131237, 201.105141)"><g><path d="M 24.84375 -36.609375 C 21.78125 -36.609375 18.867188 -36.113281 16.109375 -35.125 C 13.359375 -34.132812 10.992188 -32.789062 9.015625 -31.09375 C 7.035156 -29.40625 5.4375 -27.410156 4.21875 -25.109375 C 3 -22.804688 2.34375 -20.351562 2.25 -17.75 C 2.175781 -14.382812 3.15625 -11.242188 5.1875 -8.328125 C 7.21875 -5.421875 9.976562 -3.140625 13.46875 -1.484375 C 16.96875 0.171875 20.757812 1 24.84375 1 C 29.226562 1 33.179688 0.0507812 36.703125 -1.84375 C 40.222656 -3.738281 42.992188 -6.320312 45.015625 -9.59375 L 36.390625 -12.171875 C 35.128906 -10.429688 33.492188 -9.054688 31.484375 -8.046875 C 29.484375 -7.046875 27.269531 -6.546875 24.84375 -6.546875 C 21.738281 -6.546875 18.953125 -7.34375 16.484375 -8.9375 C 14.015625 -10.539062 12.410156 -12.5625 11.671875 -15 L 36.71875 -15 L 36.71875 -20.65625 L 11.8125 -20.65625 C 12.625 -23.113281 14.222656 -25.128906 16.609375 -26.703125 C 18.992188 -28.273438 21.738281 -29.0625 24.84375 -29.0625 C 27.300781 -29.0625 29.609375 -28.546875 31.765625 -27.515625 C 33.921875 -26.492188 35.570312 -25.132812 36.71875 -23.4375 L 45.125 -26.484375 C 43.289062 -29.554688 40.535156 -32.007812 36.859375 -33.84375 C 33.191406 -35.6875 29.1875 -36.609375 24.84375 -36.609375 Z M 24.84375 -36.609375 "/></g></g></g><g fill="#000000" fill-opacity="1"><g transform="translate(217.530066, 201.105141)"><g><path d="M 2.140625 -54.046875 L 2.140625 0 L 11.203125 0 L 11.203125 -54.046875 Z M 2.140625 -54.046875 "/></g></g></g><g fill="#000000" fill-opacity="1"><g transform="translate(230.000096, 201.105141)"><g><path d="M 24.84375 -36.609375 C 21.78125 -36.609375 18.867188 -36.113281 16.109375 -35.125 C 13.359375 -34.132812 10.992188 -32.789062 9.015625 -31.09375 C 7.035156 -29.40625 5.4375 -27.410156 4.21875 -25.109375 C 3 -22.804688 2.34375 -20.351562 2.25 -17.75 C 2.175781 -14.382812 3.15625 -11.242188 5.1875 -8.328125 C 7.21875 -5.421875 9.976562 -3.140625 13.46875 -1.484375 C 16.96875 0.171875 20.757812 1 24.84375 1 C 29.226562 1 33.179688 0.0507812 36.703125 -1.84375 C 40.222656 -3.738281 42.992188 -6.320312 45.015625 -9.59375 L 36.390625 -12.171875 C 35.128906 -10.429688 33.492188 -9.054688 31.484375 -8.046875 C 29.484375 -7.046875 27.269531 -6.546875 24.84375 -6.546875 C 21.738281 -6.546875 18.953125 -7.34375 16.484375 -8.9375 C 14.015625 -10.539062 12.410156 -12.5625 11.671875 -15 L 36.71875 -15 L 36.71875 -20.65625 L 11.8125 -20.65625 C 12.625 -23.113281 14.222656 -25.128906 16.609375 -26.703125 C 18.992188 -28.273438 21.738281 -29.0625 24.84375 -29.0625 C 27.300781 -29.0625 29.609375 -28.546875 31.765625 -27.515625 C 33.921875 -26.492188 35.570312 -25.132812 36.71875 -23.4375 L 45.125 -26.484375 C 43.289062 -29.554688 40.535156 -32.007812 36.859375 -33.84375 C 33.191406 -35.6875 29.1875 -36.609375 24.84375 -36.609375 Z M 24.84375 -36.609375 "/></g></g></g><g fill="#000000" fill-opacity="1"><g transform="translate(272.970572, 201.105141)"><g><path d="M 4.46875 -35.578125 L 19.6875 -18.828125 L 2.140625 0 L 13.953125 0 L 25.453125 -12.234375 L 36.90625 0 L 48.703125 0 L 31.140625 -18.828125 L 46.34375 -35.578125 L 34.640625 -35.578125 L 25.453125 -24.59375 L 16.21875 -35.578125 Z M 4.46875 -35.578125 "/></g></g></g><g fill="#000000" fill-opacity="1"><g transform="translate(53.670229, 230.892403)"><g><path d="M 3.265625 -23.515625 L 11.71875 -23.515625 C 13.15625 -23.515625 14.441406 -23.285156 15.578125 -22.828125 C 16.722656 -22.378906 17.625 -21.710938 18.28125 -20.828125 C 18.945312 -19.953125 19.28125 -18.875 19.28125 -17.59375 C 19.28125 -17.332031 19.242188 -16.976562 19.171875 -16.53125 C 19.097656 -16.082031 18.945312 -15.597656 18.71875 -15.078125 C 18.488281 -14.554688 18.132812 -14.039062 17.65625 -13.53125 C 17.175781 -13.019531 16.523438 -12.582031 15.703125 -12.21875 C 16.867188 -11.914062 17.785156 -11.425781 18.453125 -10.75 C 19.117188 -10.070312 19.597656 -9.335938 19.890625 -8.546875 C 20.179688 -7.753906 20.328125 -7.054688 20.328125 -6.453125 C 20.328125 -4.953125 19.941406 -3.722656 19.171875 -2.765625 C 18.398438 -1.816406 17.382812 -1.117188 16.125 -0.671875 C 14.863281 -0.222656 13.492188 0 12.015625 0 L 3.265625 0 Z M 5.703125 -13.0625 L 11.328125 -13.0625 C 12.628906 -13.0625 13.675781 -13.253906 14.46875 -13.640625 C 15.269531 -14.035156 15.851562 -14.554688 16.21875 -15.203125 C 16.59375 -15.859375 16.78125 -16.566406 16.78125 -17.328125 C 16.78125 -18.285156 16.53125 -19.050781 16.03125 -19.625 C 15.53125 -20.195312 14.875 -20.613281 14.0625 -20.875 C 13.257812 -21.132812 12.40625 -21.265625 11.5 -21.265625 L 5.703125 -21.265625 Z M 5.703125 -2.25 L 12.078125 -2.25 C 12.710938 -2.25 13.363281 -2.316406 14.03125 -2.453125 C 14.707031 -2.597656 15.328125 -2.835938 15.890625 -3.171875 C 16.460938 -3.515625 16.925781 -3.96875 17.28125 -4.53125 C 17.632812 -5.09375 17.8125 -5.796875 17.8125 -6.640625 C 17.8125 -7.472656 17.617188 -8.160156 17.234375 -8.703125 C 16.859375 -9.242188 16.359375 -9.675781 15.734375 -10 C 15.117188 -10.320312 14.445312 -10.546875 13.71875 -10.671875 C 13 -10.804688 12.300781 -10.875 11.625 -10.875 L 5.703125 -10.875 Z M 5.703125 -2.25 "/></g></g></g><g fill="#000000" fill-opacity="1"><g transform="translate(75.320995, 230.892403)"><g><path d="M 4.78125 -16.03125 L 4.78125 -6.703125 C 4.78125 -5.273438 5.148438 -4.101562 5.890625 -3.1875 C 6.628906 -2.28125 7.738281 -1.828125 9.21875 -1.828125 C 10.15625 -1.828125 10.976562 -2.046875 11.6875 -2.484375 C 12.40625 -2.929688 12.96875 -3.539062 13.375 -4.3125 C 13.789062 -5.082031 14 -5.9375 14 -6.875 L 14 -16.03125 L 16.3125 -16.03125 L 16.3125 0 L 14.03125 0 L 14.03125 -2.9375 C 13.40625 -1.84375 12.625 -1.03125 11.6875 -0.5 C 10.757812 0.03125 9.707031 0.296875 8.53125 0.296875 C 7.226562 0.296875 6.117188 0.0234375 5.203125 -0.515625 C 4.296875 -1.066406 3.613281 -1.828125 3.15625 -2.796875 C 2.695312 -3.773438 2.46875 -4.882812 2.46875 -6.125 L 2.46875 -16.03125 Z M 4.78125 -16.03125 "/></g></g></g><g fill="#000000" fill-opacity="1"><g transform="translate(93.938851, 230.892403)"><g><path d="M 13.28125 -4.5625 C 13.28125 -3.644531 13.023438 -2.816406 12.515625 -2.078125 C 12.015625 -1.347656 11.328125 -0.773438 10.453125 -0.359375 C 9.585938 0.0546875 8.601562 0.265625 7.5 0.265625 C 5.882812 0.265625 4.578125 -0.113281 3.578125 -0.875 C 2.578125 -1.632812 1.796875 -2.632812 1.234375 -3.875 L 3.15625 -4.921875 C 3.414062 -4.398438 3.722656 -3.898438 4.078125 -3.421875 C 4.441406 -2.941406 4.898438 -2.550781 5.453125 -2.25 C 6.003906 -1.945312 6.679688 -1.796875 7.484375 -1.796875 C 8.054688 -1.796875 8.601562 -1.894531 9.125 -2.09375 C 9.644531 -2.300781 10.070312 -2.597656 10.40625 -2.984375 C 10.738281 -3.378906 10.90625 -3.859375 10.90625 -4.421875 C 10.90625 -5.117188 10.585938 -5.664062 9.953125 -6.0625 C 9.328125 -6.46875 8.300781 -6.828125 6.875 -7.140625 C 5.8125 -7.378906 4.960938 -7.644531 4.328125 -7.9375 C 3.703125 -8.226562 3.160156 -8.625 2.703125 -9.125 C 2.117188 -9.8125 1.828125 -10.613281 1.828125 -11.53125 C 1.828125 -12.507812 2.109375 -13.351562 2.671875 -14.0625 C 3.234375 -14.78125 3.9375 -15.332031 4.78125 -15.71875 C 5.632812 -16.113281 6.515625 -16.3125 7.421875 -16.3125 C 8.484375 -16.3125 9.382812 -16.140625 10.125 -15.796875 C 10.863281 -15.453125 11.472656 -14.992188 11.953125 -14.421875 C 12.429688 -13.859375 12.8125 -13.242188 13.09375 -12.578125 L 11.171875 -11.53125 C 10.804688 -12.289062 10.335938 -12.929688 9.765625 -13.453125 C 9.203125 -13.972656 8.421875 -14.234375 7.421875 -14.234375 C 6.554688 -14.234375 5.796875 -13.988281 5.140625 -13.5 C 4.492188 -13.007812 4.171875 -12.414062 4.171875 -11.71875 C 4.171875 -11.269531 4.273438 -10.894531 4.484375 -10.59375 C 4.703125 -10.300781 5.082031 -10.046875 5.625 -9.828125 C 6.175781 -9.617188 6.941406 -9.40625 7.921875 -9.1875 C 8.910156 -8.988281 9.738281 -8.734375 10.40625 -8.421875 C 11.070312 -8.109375 11.644531 -7.703125 12.125 -7.203125 C 12.46875 -6.867188 12.742188 -6.472656 12.953125 -6.015625 C 13.171875 -5.566406 13.28125 -5.082031 13.28125 -4.5625 Z M 13.28125 -4.5625 "/></g></g></g><g fill="#000000" fill-opacity="1"><g transform="translate(108.382699, 230.892403)"><g><path d="M 2.078125 -21.765625 C 2.078125 -22.265625 2.242188 -22.6875 2.578125 -23.03125 C 2.921875 -23.375 3.332031 -23.546875 3.8125 -23.546875 C 4.3125 -23.546875 4.726562 -23.375 5.0625 -23.03125 C 5.40625 -22.6875 5.578125 -22.265625 5.578125 -21.765625 C 5.578125 -21.285156 5.40625 -20.875 5.0625 -20.53125 C 4.726562 -20.195312 4.3125 -20.03125 3.8125 -20.03125 C 3.332031 -20.03125 2.921875 -20.195312 2.578125 -20.53125 C 2.242188 -20.875 2.078125 -21.285156 2.078125 -21.765625 Z M 5.015625 0 L 2.640625 0 L 2.640625 -16.03125 L 5.015625 -16.03125 Z M 5.015625 0 "/></g></g></g><g fill="#000000" fill-opacity="1"><g transform="translate(115.679695, 230.892403)"><g><path d="M 14.203125 0 L 14.203125 -9.34375 C 14.203125 -10.757812 13.832031 -11.921875 13.09375 -12.828125 C 12.351562 -13.742188 11.242188 -14.203125 9.765625 -14.203125 C 8.835938 -14.203125 8.015625 -13.976562 7.296875 -13.53125 C 6.578125 -13.082031 6.007812 -12.476562 5.59375 -11.71875 C 5.1875 -10.957031 4.984375 -10.09375 4.984375 -9.125 L 4.984375 0 L 2.640625 0 L 2.640625 -16.03125 L 4.953125 -16.03125 L 4.953125 -13.09375 C 6.210938 -15.257812 8.054688 -16.34375 10.484375 -16.34375 C 11.804688 -16.34375 12.914062 -16.066406 13.8125 -15.515625 C 14.71875 -14.960938 15.398438 -14.203125 15.859375 -13.234375 C 16.316406 -12.273438 16.546875 -11.164062 16.546875 -9.90625 L 16.546875 0 Z M 14.203125 0 "/></g></g></g><g fill="#000000" fill-opacity="1"><g transform="translate(134.297552, 230.892403)"><g><path d="M 16.8125 -7.296875 L 3.84375 -7.296875 C 3.90625 -6.253906 4.195312 -5.316406 4.71875 -4.484375 C 5.238281 -3.660156 5.914062 -3.003906 6.75 -2.515625 C 7.59375 -2.035156 8.535156 -1.796875 9.578125 -1.796875 C 10.765625 -1.796875 11.796875 -2.101562 12.671875 -2.71875 C 13.554688 -3.332031 14.21875 -4.097656 14.65625 -5.015625 L 16.390625 -3.875 C 15.710938 -2.53125 14.769531 -1.503906 13.5625 -0.796875 C 12.351562 -0.0859375 11.035156 0.265625 9.609375 0.265625 C 8.046875 0.265625 6.65625 -0.101562 5.4375 -0.84375 C 4.21875 -1.582031 3.25 -2.582031 2.53125 -3.84375 C 1.820312 -5.101562 1.46875 -6.503906 1.46875 -8.046875 C 1.46875 -9.128906 1.660156 -10.164062 2.046875 -11.15625 C 2.441406 -12.144531 2.988281 -13.023438 3.6875 -13.796875 C 4.394531 -14.566406 5.222656 -15.175781 6.171875 -15.625 C 7.117188 -16.082031 8.15625 -16.3125 9.28125 -16.3125 C 10.9375 -16.3125 12.328125 -15.945312 13.453125 -15.21875 C 14.578125 -14.5 15.421875 -13.519531 15.984375 -12.28125 C 16.554688 -11.039062 16.84375 -9.640625 16.84375 -8.078125 C 16.84375 -7.941406 16.84375 -7.804688 16.84375 -7.671875 C 16.84375 -7.546875 16.832031 -7.421875 16.8125 -7.296875 Z M 3.875 -9.28125 L 14.46875 -9.28125 C 14.332031 -10.738281 13.816406 -11.929688 12.921875 -12.859375 C 12.035156 -13.796875 10.820312 -14.265625 9.28125 -14.265625 C 8.351562 -14.265625 7.503906 -14.035156 6.734375 -13.578125 C 5.960938 -13.117188 5.328125 -12.507812 4.828125 -11.75 C 4.328125 -11 4.007812 -10.175781 3.875 -9.28125 Z M 3.875 -9.28125 "/></g></g></g><g fill="#000000" fill-opacity="1"><g transform="translate(152.16468, 230.892403)"><g><path d="M 13.28125 -4.5625 C 13.28125 -3.644531 13.023438 -2.816406 12.515625 -2.078125 C 12.015625 -1.347656 11.328125 -0.773438 10.453125 -0.359375 C 9.585938 0.0546875 8.601562 0.265625 7.5 0.265625 C 5.882812 0.265625 4.578125 -0.113281 3.578125 -0.875 C 2.578125 -1.632812 1.796875 -2.632812 1.234375 -3.875 L 3.15625 -4.921875 C 3.414062 -4.398438 3.722656 -3.898438 4.078125 -3.421875 C 4.441406 -2.941406 4.898438 -2.550781 5.453125 -2.25 C 6.003906 -1.945312 6.679688 -1.796875 7.484375 -1.796875 C 8.054688 -1.796875 8.601562 -1.894531 9.125 -2.09375 C 9.644531 -2.300781 10.070312 -2.597656 10.40625 -2.984375 C 10.738281 -3.378906 10.90625 -3.859375 10.90625 -4.421875 C 10.90625 -5.117188 10.585938 -5.664062 9.953125 -6.0625 C 9.328125 -6.46875 8.300781 -6.828125 6.875 -7.140625 C 5.8125 -7.378906 4.960938 -7.644531 4.328125 -7.9375 C 3.703125 -8.226562 3.160156 -8.625 2.703125 -9.125 C 2.117188 -9.8125 1.828125 -10.613281 1.828125 -11.53125 C 1.828125 -12.507812 2.109375 -13.351562 2.671875 -14.0625 C 3.234375 -14.78125 3.9375 -15.332031 4.78125 -15.71875 C 5.632812 -16.113281 6.515625 -16.3125 7.421875 -16.3125 C 8.484375 -16.3125 9.382812 -16.140625 10.125 -15.796875 C 10.863281 -15.453125 11.472656 -14.992188 11.953125 -14.421875 C 12.429688 -13.859375 12.8125 -13.242188 13.09375 -12.578125 L 11.171875 -11.53125 C 10.804688 -12.289062 10.335938 -12.929688 9.765625 -13.453125 C 9.203125 -13.972656 8.421875 -14.234375 7.421875 -14.234375 C 6.554688 -14.234375 5.796875 -13.988281 5.140625 -13.5 C 4.492188 -13.007812 4.171875 -12.414062 4.171875 -11.71875 C 4.171875 -11.269531 4.273438 -10.894531 4.484375 -10.59375 C 4.703125 -10.300781 5.082031 -10.046875 5.625 -9.828125 C 6.175781 -9.617188 6.941406 -9.40625 7.921875 -9.1875 C 8.910156 -8.988281 9.738281 -8.734375 10.40625 -8.421875 C 11.070312 -8.109375 11.644531 -7.703125 12.125 -7.203125 C 12.46875 -6.867188 12.742188 -6.472656 12.953125 -6.015625 C 13.171875 -5.566406 13.28125 -5.082031 13.28125 -4.5625 Z M 13.28125 -4.5625 "/></g></g></g><g fill="#000000" fill-opacity="1"><g transform="translate(166.608525, 230.892403)"><g><path d="M 13.28125 -4.5625 C 13.28125 -3.644531 13.023438 -2.816406 12.515625 -2.078125 C 12.015625 -1.347656 11.328125 -0.773438 10.453125 -0.359375 C 9.585938 0.0546875 8.601562 0.265625 7.5 0.265625 C 5.882812 0.265625 4.578125 -0.113281 3.578125 -0.875 C 2.578125 -1.632812 1.796875 -2.632812 1.234375 -3.875 L 3.15625 -4.921875 C 3.414062 -4.398438 3.722656 -3.898438 4.078125 -3.421875 C 4.441406 -2.941406 4.898438 -2.550781 5.453125 -2.25 C 6.003906 -1.945312 6.679688 -1.796875 7.484375 -1.796875 C 8.054688 -1.796875 8.601562 -1.894531 9.125 -2.09375 C 9.644531 -2.300781 10.070312 -2.597656 10.40625 -2.984375 C 10.738281 -3.378906 10.90625 -3.859375 10.90625 -4.421875 C 10.90625 -5.117188 10.585938 -5.664062 9.953125 -6.0625 C 9.328125 -6.46875 8.300781 -6.828125 6.875 -7.140625 C 5.8125 -7.378906 4.960938 -7.644531 4.328125 -7.9375 C 3.703125 -8.226562 3.160156 -8.625 2.703125 -9.125 C 2.117188 -9.8125 1.828125 -10.613281 1.828125 -11.53125 C 1.828125 -12.507812 2.109375 -13.351562 2.671875 -14.0625 C 3.234375 -14.78125 3.9375 -15.332031 4.78125 -15.71875 C 5.632812 -16.113281 6.515625 -16.3125 7.421875 -16.3125 C 8.484375 -16.3125 9.382812 -16.140625 10.125 -15.796875 C 10.863281 -15.453125 11.472656 -14.992188 11.953125 -14.421875 C 12.429688 -13.859375 12.8125 -13.242188 13.09375 -12.578125 L 11.171875 -11.53125 C 10.804688 -12.289062 10.335938 -12.929688 9.765625 -13.453125 C 9.203125 -13.972656 8.421875 -14.234375 7.421875 -14.234375 C 6.554688 -14.234375 5.796875 -13.988281 5.140625 -13.5 C 4.492188 -13.007812 4.171875 -12.414062 4.171875 -11.71875 C 4.171875 -11.269531 4.273438 -10.894531 4.484375 -10.59375 C 4.703125 -10.300781 5.082031 -10.046875 5.625 -9.828125 C 6.175781 -9.617188 6.941406 -9.40625 7.921875 -9.1875 C 8.910156 -8.988281 9.738281 -8.734375 10.40625 -8.421875 C 11.070312 -8.109375 11.644531 -7.703125 12.125 -7.203125 C 12.46875 -6.867188 12.742188 -6.472656 12.953125 -6.015625 C 13.171875 -5.566406 13.28125 -5.082031 13.28125 -4.5625 Z M 13.28125 -4.5625 "/></g></g></g><g fill="#000000" fill-opacity="1"><g transform="translate(181.052369, 230.892403)"><g/></g></g><g fill="#000000" fill-opacity="1"><g transform="translate(189.070053, 230.892403)"><g><path d="M 9.609375 0.234375 C 7.546875 0.234375 5.84375 -0.273438 4.5 -1.296875 C 3.164062 -2.316406 2.15625 -3.71875 1.46875 -5.5 L 3.609375 -6.609375 C 4.160156 -5.242188 4.894531 -4.144531 5.8125 -3.3125 C 6.738281 -2.488281 8.003906 -2.078125 9.609375 -2.078125 C 10.523438 -2.078125 11.363281 -2.242188 12.125 -2.578125 C 12.894531 -2.921875 13.507812 -3.394531 13.96875 -4 C 14.425781 -4.613281 14.65625 -5.332031 14.65625 -6.15625 C 14.65625 -7.394531 14.175781 -8.378906 13.21875 -9.109375 C 12.269531 -9.835938 10.925781 -10.414062 9.1875 -10.84375 C 6.769531 -11.425781 4.992188 -12.242188 3.859375 -13.296875 C 2.722656 -14.359375 2.15625 -15.710938 2.15625 -17.359375 C 2.15625 -18.703125 2.5 -19.851562 3.1875 -20.8125 C 3.882812 -21.769531 4.789062 -22.503906 5.90625 -23.015625 C 7.03125 -23.523438 8.242188 -23.78125 9.546875 -23.78125 C 11.515625 -23.78125 13.113281 -23.3125 14.34375 -22.375 C 15.570312 -21.445312 16.445312 -20.285156 16.96875 -18.890625 L 14.859375 -17.71875 C 14.597656 -18.375 14.25 -18.988281 13.8125 -19.5625 C 13.375 -20.132812 12.800781 -20.59375 12.09375 -20.9375 C 11.394531 -21.289062 10.523438 -21.46875 9.484375 -21.46875 C 8.648438 -21.46875 7.859375 -21.304688 7.109375 -20.984375 C 6.367188 -20.671875 5.769531 -20.210938 5.3125 -19.609375 C 4.851562 -19.003906 4.625 -18.296875 4.625 -17.484375 C 4.625 -16.421875 5.019531 -15.566406 5.8125 -14.921875 C 6.601562 -14.285156 7.878906 -13.738281 9.640625 -13.28125 C 10.898438 -12.957031 12.039062 -12.554688 13.0625 -12.078125 C 14.082031 -11.597656 14.914062 -11.003906 15.5625 -10.296875 C 16.0625 -9.753906 16.453125 -9.148438 16.734375 -8.484375 C 17.023438 -7.828125 17.171875 -7.113281 17.171875 -6.34375 C 17.171875 -5.195312 16.863281 -4.125 16.25 -3.125 C 15.644531 -2.125 14.78125 -1.3125 13.65625 -0.6875 C 12.539062 -0.0703125 11.191406 0.234375 9.609375 0.234375 Z M 9.609375 0.234375 "/></g></g></g><g fill="#000000" fill-opacity="1"><g transform="translate(207.567793, 230.892403)"><g><path d="M 9.734375 0.265625 C 8.171875 0.265625 6.765625 -0.101562 5.515625 -0.84375 C 4.273438 -1.582031 3.289062 -2.570312 2.5625 -3.8125 C 1.832031 -5.050781 1.46875 -6.429688 1.46875 -7.953125 C 1.46875 -9.535156 1.832031 -10.957031 2.5625 -12.21875 C 3.289062 -13.476562 4.28125 -14.472656 5.53125 -15.203125 C 6.789062 -15.941406 8.210938 -16.3125 9.796875 -16.3125 C 11.335938 -16.3125 12.734375 -15.941406 13.984375 -15.203125 C 15.234375 -14.472656 16.222656 -13.488281 16.953125 -12.25 C 17.679688 -11.007812 18.046875 -9.617188 18.046875 -8.078125 C 18.046875 -6.492188 17.679688 -5.070312 16.953125 -3.8125 C 16.222656 -2.550781 15.226562 -1.554688 13.96875 -0.828125 C 12.707031 -0.0976562 11.296875 0.265625 9.734375 0.265625 Z M 9.796875 -1.796875 C 10.929688 -1.796875 11.9375 -2.078125 12.8125 -2.640625 C 13.695312 -3.203125 14.390625 -3.953125 14.890625 -4.890625 C 15.390625 -5.835938 15.640625 -6.859375 15.640625 -7.953125 C 15.640625 -9.078125 15.390625 -10.117188 14.890625 -11.078125 C 14.390625 -12.035156 13.691406 -12.804688 12.796875 -13.390625 C 11.910156 -13.972656 10.890625 -14.265625 9.734375 -14.265625 C 8.566406 -14.265625 7.539062 -13.984375 6.65625 -13.421875 C 5.78125 -12.859375 5.097656 -12.109375 4.609375 -11.171875 C 4.117188 -10.234375 3.875 -9.203125 3.875 -8.078125 C 3.875 -6.953125 4.125 -5.914062 4.625 -4.96875 C 5.125 -4.019531 5.816406 -3.253906 6.703125 -2.671875 C 7.597656 -2.085938 8.628906 -1.796875 9.796875 -1.796875 Z M 9.796875 -1.796875 "/></g></g></g><g fill="#000000" fill-opacity="1"><g transform="translate(226.726162, 230.892403)"><g><path d="M 5.015625 0 L 2.640625 0 L 2.640625 -24.46875 L 5.015625 -24.46875 Z M 5.015625 0 "/></g></g></g><g fill="#000000" fill-opacity="1"><g transform="translate(234.023155, 230.892403)"><g><path d="M 4.78125 -16.03125 L 4.78125 -6.703125 C 4.78125 -5.273438 5.148438 -4.101562 5.890625 -3.1875 C 6.628906 -2.28125 7.738281 -1.828125 9.21875 -1.828125 C 10.15625 -1.828125 10.976562 -2.046875 11.6875 -2.484375 C 12.40625 -2.929688 12.96875 -3.539062 13.375 -4.3125 C 13.789062 -5.082031 14 -5.9375 14 -6.875 L 14 -16.03125 L 16.3125 -16.03125 L 16.3125 0 L 14.03125 0 L 14.03125 -2.9375 C 13.40625 -1.84375 12.625 -1.03125 11.6875 -0.5 C 10.757812 0.03125 9.707031 0.296875 8.53125 0.296875 C 7.226562 0.296875 6.117188 0.0234375 5.203125 -0.515625 C 4.296875 -1.066406 3.613281 -1.828125 3.15625 -2.796875 C 2.695312 -3.773438 2.46875 -4.882812 2.46875 -6.125 L 2.46875 -16.03125 Z M 4.78125 -16.03125 "/></g></g></g><g fill="#000000" fill-opacity="1"><g transform="translate(252.641005, 230.892403)"><g><path d="M 8.265625 0.125 C 7.097656 0.125 6.179688 -0.0664062 5.515625 -0.453125 C 4.859375 -0.847656 4.394531 -1.363281 4.125 -2 C 3.851562 -2.644531 3.71875 -3.359375 3.71875 -4.140625 L 3.71875 -13.96875 L 0.75 -13.96875 L 0.75 -16.03125 L 3.71875 -16.03125 L 3.71875 -20.65625 L 6.03125 -20.65625 L 6.03125 -16.03125 L 10.09375 -16.03125 L 10.09375 -13.96875 L 6.03125 -13.96875 L 6.03125 -4.203125 C 6.03125 -2.703125 6.90625 -1.953125 8.65625 -1.953125 C 8.914062 -1.953125 9.171875 -1.960938 9.421875 -1.984375 C 9.679688 -2.003906 9.90625 -2.035156 10.09375 -2.078125 L 10.09375 -0.125 C 9.851562 -0.0390625 9.539062 0.0195312 9.15625 0.0625 C 8.78125 0.101562 8.484375 0.125 8.265625 0.125 Z M 8.265625 0.125 "/></g></g></g><g fill="#000000" fill-opacity="1"><g transform="translate(263.691597, 230.892403)"><g><path d="M 2.078125 -21.765625 C 2.078125 -22.265625 2.242188 -22.6875 2.578125 -23.03125 C 2.921875 -23.375 3.332031 -23.546875 3.8125 -23.546875 C 4.3125 -23.546875 4.726562 -23.375 5.0625 -23.03125 C 5.40625 -22.6875 5.578125 -22.265625 5.578125 -21.765625 C 5.578125 -21.285156 5.40625 -20.875 5.0625 -20.53125 C 4.726562 -20.195312 4.3125 -20.03125 3.8125 -20.03125 C 3.332031 -20.03125 2.921875 -20.195312 2.578125 -20.53125 C 2.242188 -20.875 2.078125 -21.285156 2.078125 -21.765625 Z M 5.015625 0 L 2.640625 0 L 2.640625 -16.03125 L 5.015625 -16.03125 Z M 5.015625 0 "/></g></g></g><g fill="#000000" fill-opacity="1"><g transform="translate(270.98859, 230.892403)"><g><path d="M 9.734375 0.265625 C 8.171875 0.265625 6.765625 -0.101562 5.515625 -0.84375 C 4.273438 -1.582031 3.289062 -2.570312 2.5625 -3.8125 C 1.832031 -5.050781 1.46875 -6.429688 1.46875 -7.953125 C 1.46875 -9.535156 1.832031 -10.957031 2.5625 -12.21875 C 3.289062 -13.476562 4.28125 -14.472656 5.53125 -15.203125 C 6.789062 -15.941406 8.210938 -16.3125 9.796875 -16.3125 C 11.335938 -16.3125 12.734375 -15.941406 13.984375 -15.203125 C 15.234375 -14.472656 16.222656 -13.488281 16.953125 -12.25 C 17.679688 -11.007812 18.046875 -9.617188 18.046875 -8.078125 C 18.046875 -6.492188 17.679688 -5.070312 16.953125 -3.8125 C 16.222656 -2.550781 15.226562 -1.554688 13.96875 -0.828125 C 12.707031 -0.0976562 11.296875 0.265625 9.734375 0.265625 Z M 9.796875 -1.796875 C 10.929688 -1.796875 11.9375 -2.078125 12.8125 -2.640625 C 13.695312 -3.203125 14.390625 -3.953125 14.890625 -4.890625 C 15.390625 -5.835938 15.640625 -6.859375 15.640625 -7.953125 C 15.640625 -9.078125 15.390625 -10.117188 14.890625 -11.078125 C 14.390625 -12.035156 13.691406 -12.804688 12.796875 -13.390625 C 11.910156 -13.972656 10.890625 -14.265625 9.734375 -14.265625 C 8.566406 -14.265625 7.539062 -13.984375 6.65625 -13.421875 C 5.78125 -12.859375 5.097656 -12.109375 4.609375 -11.171875 C 4.117188 -10.234375 3.875 -9.203125 3.875 -8.078125 C 3.875 -6.953125 4.125 -5.914062 4.625 -4.96875 C 5.125 -4.019531 5.816406 -3.253906 6.703125 -2.671875 C 7.597656 -2.085938 8.628906 -1.796875 9.796875 -1.796875 Z M 9.796875 -1.796875 "/></g></g></g><g fill="#000000" fill-opacity="1"><g transform="translate(290.146959, 230.892403)"><g><path d="M 14.203125 0 L 14.203125 -9.34375 C 14.203125 -10.757812 13.832031 -11.921875 13.09375 -12.828125 C 12.351562 -13.742188 11.242188 -14.203125 9.765625 -14.203125 C 8.835938 -14.203125 8.015625 -13.976562 7.296875 -13.53125 C 6.578125 -13.082031 6.007812 -12.476562 5.59375 -11.71875 C 5.1875 -10.957031 4.984375 -10.09375 4.984375 -9.125 L 4.984375 0 L 2.640625 0 L 2.640625 -16.03125 L 4.953125 -16.03125 L 4.953125 -13.09375 C 6.210938 -15.257812 8.054688 -16.34375 10.484375 -16.34375 C 11.804688 -16.34375 12.914062 -16.066406 13.8125 -15.515625 C 14.71875 -14.960938 15.398438 -14.203125 15.859375 -13.234375 C 16.316406 -12.273438 16.546875 -11.164062 16.546875 -9.90625 L 16.546875 0 Z M 14.203125 0 "/></g></g></g><g fill="#000000" fill-opacity="1"><g transform="translate(308.764809, 230.892403)"><g><path d="M 13.28125 -4.5625 C 13.28125 -3.644531 13.023438 -2.816406 12.515625 -2.078125 C 12.015625 -1.347656 11.328125 -0.773438 10.453125 -0.359375 C 9.585938 0.0546875 8.601562 0.265625 7.5 0.265625 C 5.882812 0.265625 4.578125 -0.113281 3.578125 -0.875 C 2.578125 -1.632812 1.796875 -2.632812 1.234375 -3.875 L 3.15625 -4.921875 C 3.414062 -4.398438 3.722656 -3.898438 4.078125 -3.421875 C 4.441406 -2.941406 4.898438 -2.550781 5.453125 -2.25 C 6.003906 -1.945312 6.679688 -1.796875 7.484375 -1.796875 C 8.054688 -1.796875 8.601562 -1.894531 9.125 -2.09375 C 9.644531 -2.300781 10.070312 -2.597656 10.40625 -2.984375 C 10.738281 -3.378906 10.90625 -3.859375 10.90625 -4.421875 C 10.90625 -5.117188 10.585938 -5.664062 9.953125 -6.0625 C 9.328125 -6.46875 8.300781 -6.828125 6.875 -7.140625 C 5.8125 -7.378906 4.960938 -7.644531 4.328125 -7.9375 C 3.703125 -8.226562 3.160156 -8.625 2.703125 -9.125 C 2.117188 -9.8125 1.828125 -10.613281 1.828125 -11.53125 C 1.828125 -12.507812 2.109375 -13.351562 2.671875 -14.0625 C 3.234375 -14.78125 3.9375 -15.332031 4.78125 -15.71875 C 5.632812 -16.113281 6.515625 -16.3125 7.421875 -16.3125 C 8.484375 -16.3125 9.382812 -16.140625 10.125 -15.796875 C 10.863281 -15.453125 11.472656 -14.992188 11.953125 -14.421875 C 12.429688 -13.859375 12.8125 -13.242188 13.09375 -12.578125 L 11.171875 -11.53125 C 10.804688 -12.289062 10.335938 -12.929688 9.765625 -13.453125 C 9.203125 -13.972656 8.421875 -14.234375 7.421875 -14.234375 C 6.554688 -14.234375 5.796875 -13.988281 5.140625 -13.5 C 4.492188 -13.007812 4.171875 -12.414062 4.171875 -11.71875 C 4.171875 -11.269531 4.273438 -10.894531 4.484375 -10.59375 C 4.703125 -10.300781 5.082031 -10.046875 5.625 -9.828125 C 6.175781 -9.617188 6.941406 -9.40625 7.921875 -9.1875 C 8.910156 -8.988281 9.738281 -8.734375 10.40625 -8.421875 C 11.070312 -8.109375 11.644531 -7.703125 12.125 -7.203125 C 12.46875 -6.867188 12.742188 -6.472656 12.953125 -6.015625 C 13.171875 -5.566406 13.28125 -5.082031 13.28125 -4.5625 Z M 13.28125 -4.5625 "/></g></g></g></svg>