<svg xmlns="http://www.w3.org/2000/svg" xmlns:xlink="http://www.w3.org/1999/xlink" width="1000" zoomAndPan="magnify" viewBox="0 0 750 749.999995" height="1000" preserveAspectRatio="xMidYMid meet" version="1.0"><defs><g/><clipPath id="5a968bbd7c"><path d="M 264.558594 402 L 409 402 L 409 474.015625 L 264.558594 474.015625 Z M 264.558594 402 " clip-rule="nonzero"/></clipPath><clipPath id="422df4a2b9"><path d="M 396 240.015625 L 480.558594 240.015625 L 480.558594 324 L 396 324 Z M 396 240.015625 " clip-rule="nonzero"/></clipPath></defs><g clip-path="url(#5a968bbd7c)"><path fill="#000000" d="M 264.558594 402.820312 L 408.816406 402.820312 L 408.816406 474.082031 L 264.558594 474.082031 Z M 264.558594 402.820312 " fill-opacity="1" fill-rule="nonzero"/></g><path fill="#000000" d="M 331.472656 327.210938 L 475.734375 327.210938 L 475.734375 398.761719 L 331.472656 398.761719 Z M 331.472656 327.210938 " fill-opacity="1" fill-rule="nonzero"/><g clip-path="url(#422df4a2b9)"><path fill="#000000" d="M 480.371094 281.875 C 480.371094 304.996094 461.628906 323.734375 438.511719 323.734375 C 415.390625 323.734375 396.652344 304.996094 396.652344 281.875 C 396.652344 258.757812 415.390625 240.019531 438.511719 240.019531 C 461.628906 240.019531 480.371094 258.757812 480.371094 281.875 Z M 480.371094 281.875 " fill-opacity="1" fill-rule="nonzero"/></g><g fill="#000000" fill-opacity="1"><g transform="translate(165.095135, 550.712356)"><g><path d="M 14.953125 -20.484375 L 14.953125 -11.25 L 38.890625 -11.25 L 38.890625 0 L 2.40625 0 L 2.40625 -52.234375 L 38.890625 -52.234375 L 38.890625 -40.984375 L 14.953125 -40.984375 L 14.953125 -31.734375 L 35.28125 -31.734375 L 35.28125 -20.484375 Z M 14.953125 -20.484375 "/></g></g></g><g fill="#000000" fill-opacity="1"><g transform="translate(206.39636, 550.712356)"><g><path d="M 22.265625 -51.90625 C 29.441406 -51.90625 35.601562 -49.363281 40.75 -44.28125 C 45.832031 -39.1875 48.375 -33.023438 48.375 -25.796875 C 48.375 -18.617188 45.832031 -12.457031 40.75 -7.3125 C 35.601562 -2.21875 29.441406 0.328125 22.265625 0.328125 L 2.40625 0.328125 L 2.40625 -51.90625 Z M 32.21875 -15.828125 C 34.957031 -18.554688 36.328125 -21.878906 36.328125 -25.796875 C 36.328125 -29.648438 34.957031 -33 32.21875 -35.84375 C 29.488281 -38.570312 26.140625 -39.9375 22.171875 -39.9375 L 14.953125 -39.9375 L 14.953125 -11.734375 L 22.265625 -11.734375 C 26.171875 -11.734375 29.488281 -13.097656 32.21875 -15.828125 Z M 32.21875 -15.828125 "/></g></g></g><g fill="#000000" fill-opacity="1"><g transform="translate(257.179186, 550.712356)"><g><path d="M 35.4375 -52.234375 L 47.09375 -52.234375 L 47.09375 -22.09375 C 47.09375 -15.5625 44.628906 -10.125 39.703125 -5.78125 C 35.253906 -1.925781 30.242188 0 24.671875 0 C 19.316406 0 14.441406 -1.875 10.046875 -5.625 C 4.953125 -9.90625 2.40625 -15.453125 2.40625 -22.265625 L 2.40625 -52.234375 L 14.0625 -52.234375 L 14.0625 -22.265625 C 14.0625 -19.046875 15.210938 -16.472656 17.515625 -14.546875 C 18.585938 -13.578125 19.847656 -12.851562 21.296875 -12.375 C 22.523438 -11.894531 23.648438 -11.65625 24.671875 -11.65625 C 25.628906 -11.65625 26.832031 -11.894531 28.28125 -12.375 C 29.894531 -13.019531 31.15625 -13.769531 32.0625 -14.625 C 33.238281 -15.695312 34.066406 -16.769531 34.546875 -17.84375 C 35.140625 -19.019531 35.4375 -20.4375 35.4375 -22.09375 Z M 35.4375 -52.234375 "/></g></g></g><g fill="#000000" fill-opacity="1"><g transform="translate(306.676376, 550.712356)"><g><path d="M 23.703125 0.078125 C 20.171875 0.078125 17.066406 -0.429688 14.390625 -1.453125 C 12.242188 -2.304688 10.046875 -3.722656 7.796875 -5.703125 C 5.222656 -8.054688 3.585938 -10.976562 2.890625 -14.46875 C 2.617188 -15.59375 2.484375 -16.71875 2.484375 -17.84375 C 2.429688 -18.21875 2.429688 -18.59375 2.484375 -18.96875 L 2.484375 -19.53125 L 13.5 -19.359375 L 13.5 -19.453125 C 13.5 -17.460938 13.925781 -15.828125 14.78125 -14.546875 C 16.394531 -12.128906 19.367188 -10.921875 23.703125 -10.921875 C 30.671875 -10.921875 34.15625 -12.554688 34.15625 -15.828125 C 34.15625 -18.992188 30.566406 -20.976562 23.390625 -21.78125 C 19.265625 -22.257812 15.726562 -23.113281 12.78125 -24.34375 C 10.039062 -25.46875 7.816406 -26.96875 6.109375 -28.84375 C 3.691406 -31.519531 2.484375 -34.628906 2.484375 -38.171875 C 2.484375 -40.367188 2.890625 -42.429688 3.703125 -44.359375 C 4.285156 -45.804688 5.085938 -47.117188 6.109375 -48.296875 C 9.859375 -52.523438 15.804688 -54.640625 23.953125 -54.640625 C 28.828125 -54.640625 32.953125 -53.675781 36.328125 -51.75 C 38.898438 -50.300781 40.988281 -48.375 42.59375 -45.96875 C 43.769531 -44.144531 44.597656 -42.054688 45.078125 -39.703125 C 45.242188 -38.890625 45.351562 -38.082031 45.40625 -37.28125 C 45.457031 -37.019531 45.484375 -36.753906 45.484375 -36.484375 L 45.484375 -36 L 34.46875 -36 L 34.46875 -35.921875 C 34.519531 -37.523438 34.117188 -38.890625 33.265625 -40.015625 C 31.554688 -42.429688 28.453125 -43.640625 23.953125 -43.640625 C 21.210938 -43.640625 18.960938 -43.289062 17.203125 -42.59375 C 15.003906 -41.738281 13.90625 -40.503906 13.90625 -38.890625 C 13.90625 -35.566406 17.46875 -33.503906 24.59375 -32.703125 C 32.625 -31.796875 38.410156 -29.304688 41.953125 -25.234375 C 44.304688 -22.441406 45.484375 -19.304688 45.484375 -15.828125 L 45.484375 -15.109375 C 45.484375 -14.785156 45.457031 -14.460938 45.40625 -14.140625 C 45.351562 -13.285156 45.242188 -12.484375 45.078125 -11.734375 C 44.546875 -9.585938 43.53125 -7.6875 42.03125 -6.03125 C 40.257812 -4.039062 37.875 -2.515625 34.875 -1.453125 C 31.875 -0.429688 28.148438 0.078125 23.703125 0.078125 Z M 23.703125 0.078125 "/></g></g></g><g fill="#000000" fill-opacity="1"><g transform="translate(354.56651, 550.712356)"><g><path d="M 27.484375 -52.234375 C 33.429688 -52.234375 38.144531 -50.28125 41.625 -46.375 C 44.625 -42.9375 46.125 -38.941406 46.125 -34.390625 C 46.125 -29.941406 44.734375 -26.054688 41.953125 -22.734375 C 38.460938 -18.671875 33.585938 -16.640625 27.328125 -16.640625 L 14.953125 -16.640625 L 14.953125 0 L 2.40625 0 L 2.40625 -52.234375 Z M 33.34375 -29.96875 C 33.882812 -30.613281 34.285156 -31.363281 34.546875 -32.21875 C 34.765625 -32.96875 34.875 -33.691406 34.875 -34.390625 C 34.875 -35.085938 34.738281 -35.835938 34.46875 -36.640625 C 34.144531 -37.492188 33.71875 -38.242188 33.1875 -38.890625 C 31.957031 -40.285156 30.054688 -40.984375 27.484375 -40.984375 L 14.953125 -40.984375 L 14.953125 -27.890625 L 27.328125 -27.890625 C 28.984375 -27.890625 30.375 -28.128906 31.5 -28.609375 C 32.25 -29.035156 32.863281 -29.488281 33.34375 -29.96875 Z M 33.34375 -29.96875 "/></g></g></g><g fill="#000000" fill-opacity="1"><g transform="translate(403.099462, 550.712356)"><g><path d="M 30.703125 -52.234375 L 43.234375 -52.234375 L 43.234375 0 L 30.703125 0 L 30.703125 -20.484375 L 14.953125 -20.484375 L 14.953125 0 L 2.40625 0 L 2.40625 -52.234375 L 14.953125 -52.234375 L 14.953125 -31.734375 L 30.703125 -31.734375 Z M 30.703125 -52.234375 "/></g></g></g><g fill="#000000" fill-opacity="1"><g transform="translate(448.739723, 550.712356)"><g><path d="M 14.953125 -20.484375 L 14.953125 -11.25 L 38.890625 -11.25 L 38.890625 0 L 2.40625 0 L 2.40625 -52.234375 L 38.890625 -52.234375 L 38.890625 -40.984375 L 14.953125 -40.984375 L 14.953125 -31.734375 L 35.28125 -31.734375 L 35.28125 -20.484375 Z M 14.953125 -20.484375 "/></g></g></g><g fill="#000000" fill-opacity="1"><g transform="translate(490.040948, 550.712356)"><g><path d="M 46.046875 -34.390625 C 46.046875 -31.015625 45.1875 -27.878906 43.46875 -24.984375 C 41.382812 -21.554688 38.441406 -19.175781 34.640625 -17.84375 L 45.890625 0 L 31.828125 0 L 20.890625 -16.640625 L 14.953125 -16.640625 L 14.953125 0 L 2.40625 0 L 2.40625 -52.234375 L 27.40625 -52.234375 C 33.351562 -52.234375 38.066406 -50.28125 41.546875 -46.375 C 44.546875 -42.9375 46.046875 -38.941406 46.046875 -34.390625 Z M 14.953125 -40.984375 L 14.953125 -27.890625 L 27.328125 -27.890625 C 29.035156 -27.890625 30.398438 -28.128906 31.421875 -28.609375 C 32.273438 -29.085938 32.890625 -29.539062 33.265625 -29.96875 C 33.804688 -30.613281 34.207031 -31.363281 34.46875 -32.21875 C 34.6875 -32.96875 34.796875 -33.691406 34.796875 -34.390625 C 34.796875 -35.140625 34.6875 -35.890625 34.46875 -36.640625 C 34.144531 -37.492188 33.691406 -38.242188 33.109375 -38.890625 C 31.929688 -40.285156 30.03125 -40.984375 27.40625 -40.984375 Z M 14.953125 -40.984375 "/></g></g></g><g fill="#000000" fill-opacity="1"><g transform="translate(538.493535, 550.712356)"><g><path d="M 14.953125 -20.484375 L 14.953125 -11.25 L 38.890625 -11.25 L 38.890625 0 L 2.40625 0 L 2.40625 -52.234375 L 38.890625 -52.234375 L 38.890625 -40.984375 L 14.953125 -40.984375 L 14.953125 -31.734375 L 35.28125 -31.734375 L 35.28125 -20.484375 Z M 14.953125 -20.484375 "/></g></g></g></svg>