<svg xmlns="http://www.w3.org/2000/svg" xmlns:xlink="http://www.w3.org/1999/xlink" width="1000" zoomAndPan="magnify" viewBox="0 0 750 749.999995" height="1000" preserveAspectRatio="xMidYMid meet" version="1.0"><defs><g/></defs><g fill="#000000" fill-opacity="1"><g transform="translate(81.15947, 415.633105)"><g><path d="M 21.1875 -29.03125 L 21.1875 -15.9375 L 55.109375 -15.9375 L 55.109375 0 L 3.421875 0 L 3.421875 -74.015625 L 55.109375 -74.015625 L 55.109375 -58.078125 L 21.1875 -58.078125 L 21.1875 -44.984375 L 49.984375 -44.984375 L 49.984375 -29.03125 Z M 21.1875 -29.03125 "/></g></g></g><g fill="#000000" fill-opacity="1"><g transform="translate(139.682169, 415.633105)"><g><path d="M 31.546875 -73.5625 C 41.710938 -73.5625 50.441406 -69.957031 57.734375 -62.75 C 64.941406 -55.53125 68.546875 -46.796875 68.546875 -36.546875 C 68.546875 -26.378906 64.941406 -17.648438 57.734375 -10.359375 C 50.441406 -3.148438 41.710938 0.453125 31.546875 0.453125 L 3.421875 0.453125 L 3.421875 -73.5625 Z M 45.65625 -22.4375 C 49.53125 -26.300781 51.46875 -31.003906 51.46875 -36.546875 C 51.46875 -42.015625 49.53125 -46.757812 45.65625 -50.78125 C 41.789062 -54.65625 37.046875 -56.59375 31.421875 -56.59375 L 21.1875 -56.59375 L 21.1875 -16.625 L 31.546875 -16.625 C 37.085938 -16.625 41.789062 -18.5625 45.65625 -22.4375 Z M 45.65625 -22.4375 "/></g></g></g><g fill="#000000" fill-opacity="1"><g transform="translate(211.640036, 415.633105)"><g><path d="M 50.21875 -74.015625 L 66.734375 -74.015625 L 66.734375 -31.3125 C 66.734375 -22.050781 63.238281 -14.347656 56.25 -8.203125 C 49.945312 -2.734375 42.847656 0 34.953125 0 C 27.367188 0 20.460938 -2.65625 14.234375 -7.96875 C 7.023438 -14.039062 3.421875 -21.898438 3.421875 -31.546875 L 3.421875 -74.015625 L 19.921875 -74.015625 L 19.921875 -31.546875 C 19.921875 -26.984375 21.554688 -23.335938 24.828125 -20.609375 C 26.347656 -19.242188 28.128906 -18.21875 30.171875 -17.53125 C 31.921875 -16.851562 33.515625 -16.515625 34.953125 -16.515625 C 36.328125 -16.515625 38.035156 -16.851562 40.078125 -17.53125 C 42.359375 -18.445312 44.144531 -19.507812 45.4375 -20.71875 C 47.101562 -22.238281 48.28125 -23.757812 48.96875 -25.28125 C 49.800781 -26.945312 50.21875 -28.957031 50.21875 -31.3125 Z M 50.21875 -74.015625 "/></g></g></g><g fill="#000000" fill-opacity="1"><g transform="translate(281.776192, 415.633105)"><g><path d="M 33.59375 0.109375 C 28.582031 0.109375 24.179688 -0.609375 20.390625 -2.046875 C 17.347656 -3.265625 14.234375 -5.273438 11.046875 -8.078125 C 7.398438 -11.421875 5.082031 -15.5625 4.09375 -20.5 C 3.71875 -22.09375 3.53125 -23.6875 3.53125 -25.28125 C 3.457031 -25.8125 3.457031 -26.34375 3.53125 -26.875 L 3.53125 -27.671875 L 19.125 -27.4375 L 19.125 -27.5625 C 19.125 -24.75 19.734375 -22.429688 20.953125 -20.609375 C 23.234375 -17.191406 27.445312 -15.484375 33.59375 -15.484375 C 43.457031 -15.484375 48.390625 -17.800781 48.390625 -22.4375 C 48.390625 -26.914062 43.304688 -29.722656 33.140625 -30.859375 C 27.296875 -31.546875 22.285156 -32.757812 18.109375 -34.5 C 14.234375 -36.09375 11.082031 -38.21875 8.65625 -40.875 C 5.238281 -44.675781 3.53125 -49.082031 3.53125 -54.09375 C 3.53125 -57.207031 4.097656 -60.128906 5.234375 -62.859375 C 6.066406 -64.910156 7.207031 -66.769531 8.65625 -68.4375 C 13.96875 -74.4375 22.394531 -77.4375 33.9375 -77.4375 C 40.84375 -77.4375 46.6875 -76.066406 51.46875 -73.328125 C 55.113281 -71.285156 58.078125 -68.554688 60.359375 -65.140625 C 62.023438 -62.554688 63.203125 -59.59375 63.890625 -56.25 C 64.109375 -55.113281 64.257812 -53.976562 64.34375 -52.84375 C 64.414062 -52.457031 64.453125 -52.078125 64.453125 -51.703125 L 64.453125 -51.015625 L 48.859375 -51.015625 L 48.859375 -50.90625 C 48.929688 -53.175781 48.359375 -55.109375 47.140625 -56.703125 C 44.710938 -60.117188 40.3125 -61.828125 33.9375 -61.828125 C 30.0625 -61.828125 26.875 -61.335938 24.375 -60.359375 C 21.257812 -59.140625 19.703125 -57.390625 19.703125 -55.109375 C 19.703125 -50.410156 24.75 -47.488281 34.84375 -46.34375 C 46.226562 -45.050781 54.425781 -41.519531 59.4375 -35.75 C 62.78125 -31.800781 64.453125 -27.363281 64.453125 -22.4375 L 64.453125 -21.40625 C 64.453125 -20.945312 64.414062 -20.492188 64.34375 -20.046875 C 64.257812 -18.828125 64.109375 -17.6875 63.890625 -16.625 C 63.128906 -13.59375 61.6875 -10.898438 59.5625 -8.546875 C 57.050781 -5.734375 53.671875 -3.566406 49.421875 -2.046875 C 45.171875 -0.609375 39.894531 0.109375 33.59375 0.109375 Z M 33.59375 0.109375 "/></g></g></g><g fill="#000000" fill-opacity="1"><g transform="translate(349.635194, 415.633105)"><g><path d="M 38.9375 -74.015625 C 47.363281 -74.015625 54.046875 -71.242188 58.984375 -65.703125 C 63.234375 -60.847656 65.359375 -55.191406 65.359375 -48.734375 C 65.359375 -42.429688 63.382812 -36.929688 59.4375 -32.234375 C 54.507812 -26.460938 47.601562 -23.578125 38.71875 -23.578125 L 21.1875 -23.578125 L 21.1875 0 L 3.421875 0 L 3.421875 -74.015625 Z M 47.265625 -42.46875 C 48.015625 -43.382812 48.582031 -44.445312 48.96875 -45.65625 C 49.269531 -46.726562 49.421875 -47.753906 49.421875 -48.734375 C 49.421875 -49.722656 49.234375 -50.785156 48.859375 -51.921875 C 48.398438 -53.140625 47.789062 -54.203125 47.03125 -55.109375 C 45.28125 -57.085938 42.582031 -58.078125 38.9375 -58.078125 L 21.1875 -58.078125 L 21.1875 -39.515625 L 38.71875 -39.515625 C 41.070312 -39.515625 43.046875 -39.859375 44.640625 -40.546875 C 45.703125 -41.148438 46.578125 -41.789062 47.265625 -42.46875 Z M 47.265625 -42.46875 "/></g></g></g><g fill="#000000" fill-opacity="1"><g transform="translate(418.405053, 415.633105)"><g><path d="M 43.5 -74.015625 L 61.265625 -74.015625 L 61.265625 0 L 43.5 0 L 43.5 -29.03125 L 21.1875 -29.03125 L 21.1875 0 L 3.421875 0 L 3.421875 -74.015625 L 21.1875 -74.015625 L 21.1875 -44.984375 L 43.5 -44.984375 Z M 43.5 -74.015625 "/></g></g></g><g fill="#000000" fill-opacity="1"><g transform="translate(483.076046, 415.633105)"><g><path d="M 21.1875 -29.03125 L 21.1875 -15.9375 L 55.109375 -15.9375 L 55.109375 0 L 3.421875 0 L 3.421875 -74.015625 L 55.109375 -74.015625 L 55.109375 -58.078125 L 21.1875 -58.078125 L 21.1875 -44.984375 L 49.984375 -44.984375 L 49.984375 -29.03125 Z M 21.1875 -29.03125 "/></g></g></g><g fill="#000000" fill-opacity="1"><g transform="translate(541.598746, 415.633105)"><g><path d="M 65.25 -48.734375 C 65.25 -43.953125 64.035156 -39.515625 61.609375 -35.421875 C 58.648438 -30.554688 54.472656 -27.175781 49.078125 -25.28125 L 65.015625 0 L 45.09375 0 L 29.609375 -23.578125 L 21.1875 -23.578125 L 21.1875 0 L 3.421875 0 L 3.421875 -74.015625 L 38.828125 -74.015625 C 47.253906 -74.015625 53.9375 -71.242188 58.875 -65.703125 C 63.125 -60.847656 65.25 -55.191406 65.25 -48.734375 Z M 21.1875 -58.078125 L 21.1875 -39.515625 L 38.71875 -39.515625 C 41.144531 -39.515625 43.082031 -39.859375 44.53125 -40.546875 C 45.738281 -41.222656 46.609375 -41.863281 47.140625 -42.46875 C 47.898438 -43.382812 48.472656 -44.445312 48.859375 -45.65625 C 49.160156 -46.726562 49.3125 -47.753906 49.3125 -48.734375 C 49.3125 -49.796875 49.160156 -50.859375 48.859375 -51.921875 C 48.398438 -53.140625 47.753906 -54.203125 46.921875 -55.109375 C 45.242188 -57.085938 42.546875 -58.078125 38.828125 -58.078125 Z M 21.1875 -58.078125 "/></g></g></g><g fill="#000000" fill-opacity="1"><g transform="translate(610.254729, 415.633105)"><g><path d="M 21.1875 -29.03125 L 21.1875 -15.9375 L 55.109375 -15.9375 L 55.109375 0 L 3.421875 0 L 3.421875 -74.015625 L 55.109375 -74.015625 L 55.109375 -58.078125 L 21.1875 -58.078125 L 21.1875 -44.984375 L 49.984375 -44.984375 L 49.984375 -29.03125 Z M 21.1875 -29.03125 "/></g></g></g></svg>