<svg xmlns="http://www.w3.org/2000/svg" xmlns:xlink="http://www.w3.org/1999/xlink" width="1000" zoomAndPan="magnify" viewBox="0 0 750 749.999995" height="1000" preserveAspectRatio="xMidYMid meet" version="1.0"><defs><clipPath id="26284aac67"><path d="M 142.210938 335.324219 L 224 335.324219 L 224 414.824219 L 142.210938 414.824219 Z M 142.210938 335.324219 " clip-rule="nonzero"/></clipPath><clipPath id="d1d8b9089a"><path d="M 236 335.324219 L 249 335.324219 L 249 414.824219 L 236 414.824219 Z M 236 335.324219 " clip-rule="nonzero"/></clipPath><clipPath id="04ff53d5db"><path d="M 321 335.324219 L 404 335.324219 L 404 414.824219 L 321 414.824219 Z M 321 335.324219 " clip-rule="nonzero"/></clipPath><clipPath id="33f49cf2f2"><path d="M 416 335.324219 L 508 335.324219 L 508 414.824219 L 416 414.824219 Z M 416 335.324219 " clip-rule="nonzero"/></clipPath><clipPath id="3d78b7f012"><path d="M 521 335.324219 L 607.960938 335.324219 L 607.960938 414.824219 L 521 414.824219 Z M 521 335.324219 " clip-rule="nonzero"/></clipPath></defs><rect x="-75" width="900" fill="#ffffff" y="-74.999999" height="899.999994" fill-opacity="1"/><rect x="-75" width="900" fill="#ffffff" y="-74.999999" height="899.999994" fill-opacity="1"/><g clip-path="url(#26284aac67)"><path fill="#000000" d="M 142.226562 391.925781 C 142.226562 387.164062 143.597656 382.800781 146.339844 378.832031 C 149.171875 374.863281 152.890625 372.085938 157.492188 370.5 C 159.878906 369.617188 162.402344 369.175781 165.054688 369.175781 L 200.761719 369.175781 C 202 369.175781 203.148438 369 204.210938 368.648438 C 205.359375 368.296875 206.378906 367.765625 207.261719 367.0625 C 208.238281 366.355469 209.078125 365.5625 209.785156 364.679688 C 210.492188 363.800781 211.023438 362.785156 211.378906 361.640625 C 211.730469 360.492188 211.910156 359.347656 211.910156 358.199219 L 211.910156 357.9375 C 211.910156 355.910156 211.378906 354.058594 210.316406 352.382812 C 209.34375 350.707031 208.015625 349.382812 206.335938 348.414062 C 204.652344 347.355469 202.796875 346.828125 200.761719 346.828125 L 142.226562 346.828125 L 142.226562 335.324219 L 200.761719 335.324219 C 203.324219 335.324219 205.847656 335.761719 208.324219 336.644531 C 212.839844 338.230469 216.511719 341.007812 219.34375 344.976562 C 222.171875 348.855469 223.589844 353.21875 223.589844 358.070312 C 223.589844 362.035156 222.570312 365.738281 220.535156 369.175781 C 218.058594 373.585938 214.5625 376.804688 210.050781 378.832031 L 209.785156 378.964844 C 206.867188 380.199219 203.855469 380.816406 200.761719 380.816406 L 165.054688 380.816406 C 161.960938 380.816406 159.304688 381.917969 157.09375 384.121094 C 154.96875 386.238281 153.863281 388.792969 153.773438 391.792969 L 153.773438 414.671875 L 142.226562 414.671875 Z M 142.226562 391.925781 " fill-opacity="1" fill-rule="nonzero"/></g><g clip-path="url(#d1d8b9089a)"><path fill="#000000" d="M 236.847656 335.324219 L 248.394531 335.324219 L 248.394531 414.671875 L 236.847656 414.671875 Z M 236.847656 335.324219 " fill-opacity="1" fill-rule="nonzero"/></g><g clip-path="url(#04ff53d5db)"><path fill="#000000" d="M 321.746094 414.671875 L 321.746094 403.164062 L 373.777344 403.164062 C 378.640625 403.164062 382.800781 401.445312 386.253906 398.007812 C 389.703125 394.480469 391.429688 390.292969 391.429688 385.445312 L 391.429688 364.550781 C 391.429688 359.699219 389.703125 355.554688 386.253906 352.117188 C 382.800781 348.589844 378.640625 346.828125 373.777344 346.828125 L 321.746094 346.828125 L 321.746094 335.324219 L 373.777344 335.324219 C 381.828125 335.324219 388.730469 338.1875 394.480469 343.917969 C 400.234375 349.648438 403.109375 356.527344 403.109375 364.550781 L 403.109375 385.445312 C 403.109375 393.464844 400.234375 400.34375 394.480469 406.074219 C 388.730469 411.804688 381.828125 414.671875 373.777344 414.671875 Z M 321.746094 414.671875 " fill-opacity="1" fill-rule="nonzero"/></g><g clip-path="url(#33f49cf2f2)"><path fill="#000000" d="M 416.367188 364.550781 C 416.367188 356.527344 419.242188 349.648438 424.996094 343.917969 C 430.746094 338.1875 437.648438 335.324219 445.699219 335.324219 L 478.617188 335.324219 C 486.667969 335.324219 493.570312 338.1875 499.320312 343.917969 C 505.074219 349.648438 507.949219 356.527344 507.949219 364.550781 L 507.949219 385.445312 C 507.949219 393.464844 505.074219 400.34375 499.320312 406.074219 C 493.570312 411.804688 486.667969 414.671875 478.617188 414.671875 L 445.699219 414.671875 C 437.648438 414.671875 430.746094 411.804688 424.996094 406.074219 C 419.242188 400.34375 416.367188 393.464844 416.367188 385.445312 Z M 445.699219 403.164062 L 478.617188 403.164062 C 483.484375 403.164062 487.640625 401.445312 491.09375 398.007812 C 494.632812 394.480469 496.402344 390.292969 496.402344 385.445312 L 496.402344 364.550781 C 496.402344 359.699219 494.632812 355.554688 491.09375 352.117188 C 487.640625 348.589844 483.484375 346.828125 478.617188 346.828125 L 445.699219 346.828125 C 442.515625 346.828125 439.550781 347.621094 436.808594 349.207031 C 434.066406 350.796875 431.894531 352.957031 430.304688 355.6875 C 428.710938 358.421875 427.914062 361.375 427.914062 364.550781 L 427.914062 385.445312 C 427.914062 390.292969 429.640625 394.480469 433.089844 398.007812 C 436.628906 401.445312 440.832031 403.164062 445.699219 403.164062 Z M 445.699219 403.164062 " fill-opacity="1" fill-rule="nonzero"/></g><g clip-path="url(#3d78b7f012)"><path fill="#000000" d="M 558.65625 414.671875 L 558.65625 346.828125 L 521.226562 346.828125 L 521.226562 335.324219 L 607.765625 335.324219 L 607.765625 346.828125 L 570.203125 346.828125 L 570.203125 414.671875 Z M 558.65625 414.671875 " fill-opacity="1" fill-rule="nonzero"/></g><path fill="#000000" d="M 343.648438 373.433594 C 343.648438 380.082031 338.382812 385.328125 331.886719 385.328125 C 325.390625 385.328125 320.125 380.082031 320.125 373.433594 C 320.125 366.964844 325.390625 361.714844 331.886719 361.714844 C 338.382812 361.714844 343.648438 366.964844 343.648438 373.433594 Z M 343.648438 373.433594 " fill-opacity="1" fill-rule="nonzero"/></svg>