<?xml version="1.0" encoding="UTF-8"?>
<svg version="1.1" xmlns="http://www.w3.org/2000/svg" width="1177" height="212">
<path d="M0 0 C0.93774261 -0.00335861 1.87548523 -0.00671722 2.84164429 -0.01017761 C5.92211251 -0.01962661 9.00252602 -0.02162773 12.08300781 -0.02270508 C14.2400108 -0.02592207 16.39701357 -0.02928647 18.55401611 -0.03279114 C23.06954453 -0.03876744 27.58505385 -0.0406326 32.10058594 -0.04003906 C37.86117945 -0.03993758 43.62164933 -0.05358272 49.38221359 -0.07081127 C53.83657382 -0.08197941 58.29090462 -0.08395679 62.7452774 -0.08342934 C64.86775386 -0.08460247 66.99023125 -0.08898644 69.11269379 -0.0967617 C92.88759984 -0.175699 114.17402444 3.1706307 132.28613281 20.14526367 C132.28613281 20.80526367 132.28613281 21.46526367 132.28613281 22.14526367 C132.8675 22.37729492 133.44886719 22.60932617 134.04785156 22.84838867 C143.88100381 28.5457823 150.22710356 44.71315968 153.16113281 55.14526367 C154.63681377 61.12270551 155.41184242 66.86681014 155.44726562 73.0300293 C155.45223053 73.6911673 155.45719543 74.3523053 155.46231079 75.03347778 C155.4768313 77.20616733 155.48372009 79.3787837 155.48925781 81.55151367 C155.49349888 82.67546791 155.49349888 82.67546791 155.49782562 83.8221283 C155.512783 87.79345039 155.52203221 91.76473653 155.52636719 95.73608398 C155.53182352 99.79943701 155.55580086 103.86245015 155.58433914 107.92569733 C155.60314951 111.08309829 155.60818095 114.24042071 155.60970306 117.39787292 C155.61269267 118.89350731 155.62059291 120.38914158 155.63388824 121.88471985 C155.82630806 145.20870962 149.15508144 163.58252704 133.09863281 180.83276367 C118.92914983 194.43447992 101.1501212 201.4716181 81.61083984 201.41992188 C80.59477661 201.42503281 79.57871338 201.43014374 78.53186035 201.43540955 C75.20249394 201.44920921 71.87333677 201.44835605 68.54394531 201.44604492 C66.21043828 201.44993709 63.87693194 201.45427283 61.54342651 201.45903015 C56.66320494 201.46647166 51.78305575 201.46621607 46.90283203 201.4609375 C40.67365215 201.45514528 34.44476984 201.47207831 28.21563911 201.49528217 C23.39926444 201.51007047 18.58296059 201.51088428 13.76656723 201.50777245 C11.47104173 201.50828308 9.17551199 201.51347197 6.8800087 201.52358437 C-15.98960009 201.61197947 -15.98960009 201.61197947 -25.71386719 198.14526367 C-26.85082031 197.76885742 -27.98777344 197.39245117 -29.15917969 197.00463867 C-49.26870088 188.67941416 -64.26240594 173.05215383 -72.71386719 153.14526367 C-75.52576505 144.98766987 -76.82453831 136.87080783 -76.875 128.23876953 C-76.88244736 127.26147385 -76.88244736 127.26147385 -76.89004517 126.26443481 C-76.90453108 124.12964784 -76.91144785 121.99493528 -76.91699219 119.86010742 C-76.91981956 119.12275423 -76.92264694 118.38540104 -76.92556 117.62570381 C-76.94050163 113.71921564 -76.94976133 109.81276389 -76.95410156 105.90625 C-76.9595619 101.91130464 -76.98355245 97.91670427 -77.01207352 93.92186642 C-77.03088553 90.81507967 -77.03591536 87.70837273 -77.03743744 84.60153389 C-77.04042564 83.13101897 -77.04832082 81.66050411 -77.06162262 80.19004631 C-77.25794227 56.80891041 -70.39999637 37.88886077 -54.02636719 20.95776367 C-39.25786559 6.25981224 -20.51241376 -0.01070027 0 0 Z M-37.95605469 48.67651367 C-43.49621536 56.45736155 -45.81966874 64.34155577 -45.875 73.79638672 C-45.8799649 74.44429672 -45.88492981 75.09220673 -45.89004517 75.75975037 C-45.90458598 77.8921721 -45.91145641 80.02451936 -45.91699219 82.15698242 C-45.91981956 82.8901298 -45.92264694 83.62327717 -45.92556 84.37864113 C-45.94052259 88.26105735 -45.94976961 92.14343672 -45.95410156 96.02587891 C-45.95957144 100.01230765 -45.9835762 103.99839231 -46.01207352 107.98471355 C-46.03081292 111.07075444 -46.03591154 114.15671444 -46.03743744 117.24280739 C-46.04044078 118.71104621 -46.04838972 120.1792844 -46.06162262 121.64746666 C-46.18225387 136.06428492 -43.71033834 147.14923363 -33.90136719 158.18432617 C-19.92327545 171.40527127 -3.40197466 171.45422646 14.59863281 171.41088867 C16.57820686 171.41223822 18.55778059 171.41418116 20.53735352 171.41668701 C24.67272111 171.41962464 28.80800192 171.4153846 32.94335938 171.40600586 C38.22208059 171.3946122 43.50059836 171.40117899 48.77931213 171.41315079 C52.86301178 171.42040624 56.94666385 171.41806458 61.03036499 171.4128952 C62.97586085 171.41156889 64.92136114 171.4131704 66.86685181 171.41785431 C83.929207 171.44992641 99.31445941 170.63071102 112.47363281 158.18432617 C122.88996514 146.4659523 124.76040315 134.62818193 124.71972656 119.46166992 C124.72429937 117.95531481 124.72960817 116.44896178 124.73561096 114.94261169 C124.74449675 111.8000333 124.74217106 108.65770966 124.73217773 105.51513672 C124.72069189 101.51643653 124.74091606 97.51862001 124.77009487 93.52003574 C124.78856637 90.41333058 124.78814286 87.30683297 124.78245735 84.20008659 C124.78230548 82.72709857 124.78823703 81.25409525 124.80074883 79.78116035 C124.90266404 65.82047887 122.01749298 54.35148665 112.25097656 43.98510742 C102.28867715 34.58505419 91.279087 30.84030744 77.77172852 30.85473633 C76.85509933 30.8480191 75.93847015 30.84130188 74.99406433 30.8343811 C71.98329141 30.81548563 68.97274249 30.8114809 65.96191406 30.80932617 C63.85214652 30.80289141 61.74237985 30.79616255 59.63261414 30.78915405 C55.21542291 30.77720167 50.79830976 30.77347103 46.38110352 30.7746582 C40.75048704 30.77486105 35.12037723 30.74758518 29.48988056 30.71311378 C25.13239797 30.69075675 20.7750355 30.68682339 16.41750145 30.68787766 C14.3432866 30.68553393 12.26906781 30.67678053 10.19491005 30.66121292 C-9.32551642 30.52843903 -24.63942145 32.93377317 -37.95605469 48.67651367 Z " fill="#F49607" transform="translate(767.7138671875,4.854736328125)"/>
<path d="M0 0 C19.83731918 -0.06787166 39.6745435 -0.12307155 59.51194954 -0.15543652 C68.72399189 -0.17086741 77.93595667 -0.1918842 87.14794922 -0.22631836 C95.1825287 -0.25633692 103.21705197 -0.27560242 111.25168598 -0.28226548 C115.50106387 -0.28615676 119.75028101 -0.29522185 123.99960709 -0.31719017 C128.01002053 -0.33775278 132.02020901 -0.34379446 136.03067017 -0.33932304 C137.49222924 -0.3401395 138.95379688 -0.34598631 140.41530991 -0.35761642 C158.96814853 -0.49784572 175.22572204 3.21433992 188.9375 16.1875 C196.32035283 24.1204909 202.48120165 33.34194419 205 44 C205.17917969 44.72445312 205.35835937 45.44890625 205.54296875 46.1953125 C208.20734942 62.54595629 205.35145382 77.76638737 195.87109375 91.5078125 C186.54042562 103.93571702 173.79438234 113.58884204 158 116 C154.67634122 116.15286645 151.35507461 116.15402736 148.02832031 116.15771484 C146.52735306 116.16533592 146.52735306 116.16533592 144.99606323 116.17311096 C142.82607137 116.18379797 140.6560686 116.19242467 138.4860611 116.19923019 C135.04702552 116.21104434 131.60811409 116.23050424 128.16912842 116.25234985 C118.39209139 116.31387831 108.61506748 116.36797321 98.83789062 116.40136719 C92.85385166 116.42235416 86.87004004 116.45768972 80.88613129 116.50212479 C78.6104882 116.51625238 76.3348049 116.52499987 74.05912018 116.52817917 C70.86892534 116.53310765 67.67933006 116.55631622 64.48925781 116.58349609 C63.55699371 116.58048996 62.62472961 116.57748383 61.66421509 116.5743866 C53.65746574 116.67529199 46.28860524 118.12381791 40.1875 123.625 C39.47980469 124.23601562 38.77210937 124.84703125 38.04296875 125.4765625 C31.53625499 133.5135359 31.39669459 141.87520733 31.390625 151.87890625 C31.37561795 153.30095784 31.35888556 154.72299216 31.34051514 156.14500427 C31.29711166 159.8586616 31.27690326 163.57208394 31.26177979 167.28594971 C31.23864229 171.75748 31.1862444 176.22875465 31.13883972 180.70008087 C31.07033127 187.4667867 31.03863682 194.23276114 31 201 C20.77 201 10.54 201 0 201 C-0.12032643 185.2595206 -0.12032643 185.2595206 -0.14648438 178.48046875 C-0.16432497 173.87896166 -0.18528644 169.27763591 -0.22631836 164.67626953 C-0.25923673 160.96094544 -0.27692036 157.24581618 -0.28463173 153.53035736 C-0.29011765 152.12237232 -0.30082777 150.71439631 -0.31719017 149.30649567 C-0.51864553 131.23127314 3.90147373 115.37417577 16.75 102.11328125 C25.48446483 93.90955647 35.38484346 88.88914818 47 86 C48.00609566 85.73949356 48.00609566 85.73949356 49.03251648 85.47372437 C53.29229818 84.79369957 57.4966036 84.84714816 61.80395508 84.84228516 C62.78669907 84.83720444 63.76944305 84.83212372 64.78196716 84.82688904 C66.91267321 84.81620342 69.04339035 84.80757618 71.17411232 84.80076981 C74.54986509 84.78895635 77.92549133 84.76949713 81.30119324 84.74765015 C90.89809954 84.68611577 100.49499214 84.63200572 110.09204102 84.59863281 C115.96585236 84.57765893 121.83943151 84.542335 127.71310997 84.49787521 C129.94771272 84.48373851 132.18235652 84.47499805 134.41700172 84.47182083 C137.54753458 84.46689846 140.67745372 84.44370597 143.80786133 84.41650391 C144.72501923 84.41951004 145.64217712 84.42251617 146.58712769 84.4256134 C155.42318115 84.31190517 161.77642792 81.90337876 168.3046875 75.8359375 C173.78779272 69.89801249 174.41370619 62.90362479 174.34765625 55.17578125 C173.5469984 47.8619067 169.68161166 41.59939992 164 37 C158.14649645 33.11528207 153.6747166 31.88174018 146.71051025 31.84178162 C145.41764603 31.8319928 144.1247818 31.82220398 142.79273987 31.81211853 C141.36215247 31.8062147 139.93156468 31.80040423 138.50097656 31.79467773 C136.99301384 31.7850965 135.4850538 31.77508627 133.97709656 31.76467896 C129.88450584 31.73765043 125.79190362 31.71662975 121.69927311 31.69667697 C117.4217882 31.67480477 113.14433868 31.64742211 108.86688232 31.62062073 C100.76740318 31.57071055 92.66790438 31.5257655 84.56838679 31.48259836 C75.34716439 31.43321169 66.1259775 31.37829886 56.90478945 31.32291877 C37.9365578 31.20912442 18.9682935 31.10300935 0 31 C0 20.77 0 10.54 0 0 Z " fill="#F59606" transform="translate(2,5)"/>
<path d="M0 0 C1.14926468 -0.00571014 2.29852936 -0.01142029 3.48262024 -0.01730347 C4.75521194 -0.01842133 6.02780365 -0.01953918 7.33895874 -0.02069092 C8.68421058 -0.02531738 10.0294611 -0.03034181 11.37471008 -0.03573608 C15.0428959 -0.04889382 18.71106337 -0.05531361 22.37926912 -0.05974674 C24.67544965 -0.06267696 26.97162518 -0.06678205 29.26780319 -0.07125092 C36.46368564 -0.0849455 43.65955665 -0.09459795 50.85545123 -0.09845281 C59.13743772 -0.1029142 67.41925758 -0.12036383 75.70119345 -0.1494534 C82.11328798 -0.17118445 88.52533608 -0.18116342 94.93746698 -0.18249393 C98.76040507 -0.18353544 102.58318696 -0.18930006 106.40608597 -0.20731354 C110.01599976 -0.22398869 113.62564339 -0.22585733 117.23558235 -0.21717453 C119.16620501 -0.21605598 121.09681948 -0.22962943 123.02738953 -0.243927 C146.13556001 -0.13566725 164.32851714 7.8729857 180.70370483 24.14044189 C185.8447456 29.54609506 189.62089937 35.41537582 193.01620483 42.01544189 C193.50467896 42.95045532 193.50467896 42.95045532 194.00302124 43.90435791 C199.67120395 55.46916022 200.16738937 67.26544764 200.13729858 79.88262939 C200.14187286 81.58072109 200.14718207 83.27881094 200.15318298 84.97689819 C200.16206471 88.51863167 200.15974816 92.06013907 200.14974976 95.60186768 C200.13827195 100.10238723 200.15847854 104.6021207 200.18766689 109.10253716 C200.20616425 112.60481584 200.20570966 116.10691086 200.20002937 119.60922623 C200.19987778 121.26673611 200.20578561 122.92425977 200.21832085 124.58172226 C200.34399267 143.91850266 195.35152145 160.1136312 182.70370483 175.14044189 C181.94057983 176.15106689 181.17745483 177.16169189 180.39120483 178.20294189 C169.03128867 190.61959445 151.60411278 200.33354263 134.58346367 201.32156754 C130.87527466 201.3857888 127.17192571 201.38778535 123.46322632 201.36749268 C122.04319771 201.36692757 120.62316853 201.36724705 119.20314026 201.36837769 C115.3731648 201.36894834 111.54331622 201.35724094 107.71337008 201.34322977 C103.70153377 201.33067416 99.68969412 201.32954812 95.67784119 201.32717896 C88.09201286 201.32097833 80.50624261 201.3045868 72.92043978 201.28447998 C64.27953304 201.26207673 55.63862343 201.25111644 46.99769485 201.24108911 C29.23299196 201.22021922 11.46836862 201.18356082 -6.29629517 201.14044189 C-6.29629517 191.24044189 -6.29629517 181.34044189 -6.29629517 171.14044189 C-2.28005981 171.12585938 1.73617554 171.11127686 5.87411499 171.09625244 C19.17741414 171.04580546 32.48059341 170.97934033 45.78377724 170.90472698 C53.84561474 170.85989834 61.90740934 170.82045444 69.96932983 170.79400635 C77.00197433 170.77092091 84.03448156 170.73740683 91.06701696 170.69174033 C94.78537631 170.66794915 98.50360092 170.6491286 102.22203445 170.64282799 C106.38880755 170.63557119 110.55511612 170.60501531 114.72177124 170.57281494 C116.539795 170.57496758 116.539795 170.57496758 118.39454651 170.5771637 C132.86057805 170.42014835 145.06378185 167.98146789 155.98495483 158.07012939 C167.28449374 146.30680344 169.01722182 132.00951224 169.00448608 116.34356689 C169.01091377 114.55580841 169.01091377 114.55580841 169.01747131 112.73193359 C169.02318211 110.22422924 169.02373905 107.71650833 169.01937866 105.20880127 C169.01622515 101.41488736 169.03969821 97.62175939 169.06503296 93.82794189 C169.19892724 66.86121039 169.19892724 66.86121039 156.20370483 43.95294189 C148.26258748 36.39582441 137.71361161 32.05107364 126.82545471 31.98222351 C125.64901398 31.97243469 124.47257324 31.96264587 123.26048279 31.95256042 C121.97870651 31.94680496 120.69693024 31.9410495 119.37631226 31.93511963 C118.00613107 31.92553428 116.63595281 31.91552382 115.26577759 31.90512085 C111.55340085 31.87813682 107.84101149 31.85709216 104.1285913 31.83711886 C100.24616059 31.8152191 96.36376852 31.78784997 92.48136902 31.76106262 C85.13274348 31.71118962 77.78409644 31.66623083 70.43542892 31.62304026 C62.06785297 31.57362174 53.7003158 31.51872075 45.33277738 31.46336067 C28.1231224 31.34962342 10.91343138 31.24276647 -6.29629517 31.14044189 C-6.32095139 26.88629567 -6.33913415 22.63218692 -6.35122681 18.37799072 C-6.35626618 16.92974117 -6.3630977 15.48149673 -6.37173462 14.03326416 C-6.38381764 11.95569601 -6.38952728 9.87819492 -6.39395142 7.80059814 C-6.39918823 6.54899902 -6.40442505 5.2973999 -6.40982056 4.00787354 C-6.21750316 -0.84969174 -4.36937973 0.01293753 0 0 Z " fill="#F59606" transform="translate(459.2962951660156,4.85955810546875)"/>
<path d="M0 0 C72.27 0 144.54 0 219 0 C219 10.23 219 20.46 219 31 C187.98 31.33 156.96 31.66 125 32 C125 87.77 125 143.54 125 201 C114.77 201 104.54 201 94 201 C94 144.9 94 88.8 94 31 C62.98 31 31.96 31 0 31 C0 20.77 0 10.54 0 0 Z " fill="#F49609" transform="translate(955,5)"/>
<path d="M0 0 C9.9 0 19.8 0 30 0 C31.74864475 1.74864475 31.12244143 4.03373396 31.12908131 6.36370426 C31.12471205 7.52661949 31.12471205 7.52661949 31.12025452 8.71302795 C31.12110894 9.53059285 31.12196337 10.34815775 31.12284368 11.19049734 C31.12450099 13.95132011 31.11897304 16.71208315 31.11352539 19.47290039 C31.11324355 21.44346617 31.1134012 23.41403206 31.1139679 25.38459778 C31.11425598 30.75214509 31.1083575 36.11967027 31.10139394 41.48721242 C31.0951622 47.08997947 31.09455674 52.69274698 31.09336853 58.29551697 C31.09025468 68.91319558 31.08204057 79.53086396 31.07201904 90.14853805 C31.06085957 102.23297324 31.05534787 114.31740891 31.05032361 126.40184796 C31.039858 151.26790452 31.02205718 176.13395126 31 201 C20.77 201 10.54 201 0 201 C0 134.67 0 68.34 0 0 Z " fill="#F69504" transform="translate(240,5)"/>
<path d="M0 0 C7.85545849 4.75602589 13.23595724 11.00355601 15.95703125 19.82421875 C17.64166214 28.34183847 16.68328885 36.40117171 12.375 43.9375 C6.92839967 51.78336225 -0.16717937 57.0797138 -9.625 58.9375 C-18.68294975 59.6799549 -26.70804441 57.45468856 -33.8046875 51.6796875 C-41.07739689 44.71911156 -43.91925272 37.89491874 -44.58984375 27.93359375 C-44.67888337 20.34543961 -42.02755294 12.65006332 -36.8671875 7.01953125 C-34.86741918 5.18052862 -32.81571045 3.54293716 -30.625 1.9375 C-30.06425781 1.50050781 -29.50351562 1.06351562 -28.92578125 0.61328125 C-21.17538441 -4.35045605 -8.17932159 -3.78858147 0 0 Z " fill="#F59606" transform="translate(493.625,74.0625)"/>
<path d="M0 0 C9.9 0 19.8 0 30 0 C31.74864475 1.74864475 31.12244143 4.03373396 31.12908131 6.36370426 C31.12471205 7.52661949 31.12471205 7.52661949 31.12025452 8.71302795 C31.12110894 9.53059285 31.12196337 10.34815775 31.12284368 11.19049734 C31.12450099 13.95132011 31.11897304 16.71208315 31.11352539 19.47290039 C31.11324355 21.44346617 31.1134012 23.41403206 31.1139679 25.38459778 C31.11425598 30.75214509 31.1083575 36.11967027 31.10139394 41.48721242 C31.0951622 47.08997947 31.09455674 52.69274698 31.09336853 58.29551697 C31.09025468 68.91319558 31.08204057 79.53086396 31.07201904 90.14853805 C31.06085957 102.23297324 31.05534787 114.31740891 31.05032361 126.40184796 C31.039858 151.26790452 31.02205718 176.13395126 31 201 C20.77 201 10.54 201 0 201 C0 134.67 0 68.34 0 0 Z M1 2 C1 67.34 1 132.68 1 200 C10.24 200 19.48 200 29 200 C29 134.66 29 69.32 29 2 C19.76 2 10.52 2 1 2 Z " fill="#E6A036" transform="translate(240,5)"/>
<path d="M0 0 C1.14926468 -0.00571014 2.29852936 -0.01142029 3.48262024 -0.01730347 C4.75521194 -0.01842133 6.02780365 -0.01953918 7.33895874 -0.02069092 C8.68421058 -0.02531738 10.0294611 -0.03034181 11.37471008 -0.03573608 C15.0428959 -0.04889382 18.71106337 -0.05531361 22.37926912 -0.05974674 C24.67544965 -0.06267696 26.97162518 -0.06678205 29.26780319 -0.07125092 C36.46368564 -0.0849455 43.65955665 -0.09459795 50.85545123 -0.09845281 C59.13743772 -0.1029142 67.41925758 -0.12036383 75.70119345 -0.1494534 C82.11328798 -0.17118445 88.52533608 -0.18116342 94.93746698 -0.18249393 C98.76040507 -0.18353544 102.58318696 -0.18930006 106.40608597 -0.20731354 C110.01599976 -0.22398869 113.62564339 -0.22585733 117.23558235 -0.21717453 C119.16620501 -0.21605598 121.09681948 -0.22962943 123.02738953 -0.243927 C139.01883258 -0.1690085 154.93623347 2.98449876 167.70370483 13.14044189 C165.89120483 13.82794189 165.89120483 13.82794189 163.70370483 14.14044189 C162.25839233 12.85919189 162.25839233 12.85919189 160.70370483 11.14044189 C148.6758636 4.26738976 135.90761135 2.69269563 122.28451538 2.70806885 C120.89344426 2.69902577 119.50238104 2.68869243 118.11132812 2.67718506 C114.37872412 2.64988717 110.64627238 2.64036813 106.91358161 2.63433099 C102.99646086 2.6248755 99.07945073 2.59866704 95.16239929 2.57432556 C87.76445889 2.53085249 80.36654019 2.50218821 72.9685114 2.47900218 C64.53783438 2.45184687 56.10726971 2.40794226 47.67667329 2.36271346 C30.35239591 2.27014241 13.0281299 2.20054657 -4.29629517 2.14044189 C-4.29629517 11.38044189 -4.29629517 20.62044189 -4.29629517 30.14044189 C40.91370483 30.14044189 86.12370483 30.14044189 132.70370483 30.14044189 C132.70370483 30.47044189 132.70370483 30.80044189 132.70370483 31.14044189 C86.83370483 31.14044189 40.96370483 31.14044189 -6.29629517 31.14044189 C-6.29629517 0.01864304 -6.29629517 0.01864304 0 0 Z " fill="#E6A23B" transform="translate(459.2962951660156,4.85955810546875)"/>
<path d="M0 0 C19.95821186 -0.02258149 39.91641335 -0.04099931 59.87463474 -0.05181217 C69.14176961 -0.05696642 78.40889598 -0.06399254 87.67602539 -0.07543945 C95.7541188 -0.08541289 103.83220605 -0.09185977 111.91030544 -0.09408849 C116.18678388 -0.09539108 120.4632447 -0.09844834 124.73971748 -0.10573006 C128.76729285 -0.11253221 132.79484337 -0.11460842 136.82242393 -0.11310768 C138.29820007 -0.11338212 139.77397707 -0.11536231 141.24974823 -0.11920547 C143.27042027 -0.12420824 145.29110572 -0.12238241 147.31178284 -0.12025452 C148.44097924 -0.12117631 149.57017565 -0.1220981 150.73359013 -0.12304783 C154.21277729 0.00801546 157.56398213 0.45094368 161 1 C161 1.33 161 1.66 161 2 C108.2 2 55.4 2 1 2 C1 11.24 1 20.48 1 30 C3.89612312 29.99333817 3.89612312 29.99333817 6.85075378 29.98654175 C25.02363072 29.94604312 43.19649856 29.91591835 61.36941051 29.89637566 C70.71284484 29.886061 80.05624549 29.87199703 89.3996582 29.84912109 C97.54292219 29.82919303 105.68616178 29.81628494 113.82944947 29.81182301 C118.14165758 29.80921465 122.45379592 29.80307988 126.76598167 29.78853989 C130.82475973 29.77496522 134.88343926 29.77077713 138.94223785 29.77378464 C140.4317586 29.77323442 141.92128265 29.76925627 143.41078377 29.76158905 C145.44527426 29.75163019 147.47981761 29.75522457 149.514328 29.75949097 C151.22194951 29.75672559 151.22194951 29.75672559 152.96406841 29.75390434 C156.03077715 30.00249483 158.23034271 30.69762004 161 32 C161 32.66 161 33.32 161 34 C159.9884082 33.67657623 158.97681641 33.35315247 157.93457031 33.01992798 C151.40569308 31.40264729 144.73077712 31.69062064 138.046875 31.68115234 C136.53831959 31.67184259 135.02976929 31.66167237 133.52122498 31.65071106 C129.4453932 31.62351496 125.36959579 31.60829262 121.29369736 31.59528303 C117.02689442 31.57960682 112.76016119 31.552831 108.4934082 31.5272522 C100.42240199 31.4805437 92.35138255 31.44376131 84.28031063 31.41057932 C75.08799564 31.37230179 65.8957508 31.32290644 56.70349503 31.27259517 C37.80237546 31.16939327 18.90122619 31.08156227 0 31 C0 20.77 0 10.54 0 0 Z " fill="#E6A33D" transform="translate(2,5)"/>
<path d="M0 0 C1.65 0 3.3 0 5 0 C-2.39495009 8.10004998 -16.39746489 12.53382992 -27.27068043 13.12304783 C-28.04775191 13.12212604 -28.8248234 13.12120424 -29.6254425 13.12025452 C-30.52421616 13.12162918 -31.42298981 13.12300385 -32.34899902 13.12442017 C-33.32220093 13.12082489 -34.29540283 13.11722961 -35.2980957 13.11352539 C-36.85000862 13.11374443 -36.85000862 13.11374443 -38.43327332 13.1139679 C-41.84746407 13.11327214 -45.26160004 13.10549544 -48.67578125 13.09765625 C-51.04518097 13.09579088 -53.41458108 13.09436754 -55.78398132 13.09336853 C-62.01629707 13.08955276 -68.24858947 13.07973047 -74.480896 13.06866455 C-80.84207849 13.05843024 -87.20326477 13.05386658 -93.56445312 13.04882812 C-106.042979 13.03810739 -118.52148756 13.02104222 -131 13 C-131 12.67 -131 12.34 -131 12 C-120.26913129 10.79328609 -109.57684618 10.87150549 -98.796875 10.90234375 C-96.86346473 10.90421245 -94.93005398 10.90563422 -92.99664307 10.90663147 C-87.9464585 10.91042106 -82.89630341 10.92022032 -77.84613037 10.93133545 C-72.67737222 10.94162671 -67.50860923 10.94614551 -62.33984375 10.95117188 C-52.22654966 10.96184632 -42.1132773 10.97887919 -32 11 C-32 10.34 -32 9.68 -32 9 C-30.68942607 8.63877119 -29.37646376 8.28619689 -28.0625 7.9375 C-27.33160156 7.74027344 -26.60070312 7.54304687 -25.84765625 7.33984375 C-25.23792969 7.22769531 -24.62820313 7.11554688 -24 7 C-23.505 7.495 -23.505 7.495 -23 8 C-17.88909672 8.45406785 -13.686236 8.20528753 -9 6 C-8.01 6 -7.02 6 -6 6 C-6 5.34 -6 4.68 -6 4 C-3.03 3.01 -3.03 3.01 0 2 C0 1.34 0 0.68 0 0 Z " fill="#ED9D20" transform="translate(885,193)"/>
<path d="M0 0 C4.55904795 1.27786453 7.5767431 2.95464844 11.1875 6 C13.75396269 8.14463242 16.21402361 10.14268241 19 12 C19 12.66 19 13.32 19 14 C19.5775 14.226875 20.155 14.45375 20.75 14.6875 C23.5663661 16.33038023 25.08077114 18.39533227 27 21 C26.67 21.66 26.34 22.32 26 23 C23.97954558 22.39816251 21.97888961 21.72693904 20 21 C18.75453595 18.50907189 19.2232422 17.58919267 20 15 C19.34 15 18.68 15 18 15 C18 14.34 18 13.68 18 13 C16.35 13.66 14.7 14.32 13 15 C13.33 13.68 13.66 12.36 14 11 C12.41906946 9.87162591 10.83515284 8.74743482 9.25 7.625 C8.36828125 6.99851562 7.4865625 6.37203125 6.578125 5.7265625 C4.42585021 4.28519059 2.34539477 3.08501907 0 2 C0 1.34 0 0.68 0 0 Z " fill="#ED9C22" transform="translate(881,13)"/>
<path d="M0 0 C1.24546405 2.49092811 0.7767578 3.41080733 0 6 C-0.66 6 -1.32 6 -2 6 C-1.49396008 8.16874252 -1.00016187 9.99967627 0 12 C-0.928125 12.7734375 -0.928125 12.7734375 -1.875 13.5625 C-4.47476742 16.54458615 -5.11949123 19.18446201 -6 23 C-6.66 23 -7.32 23 -8 23 C-7.84694977 14.12308677 -4.15315766 7.62315884 0 0 Z " fill="#EC9B1B" transform="translate(11,117)"/>
<path d="M0 0 C0.33 0 0.66 0 1 0 C1 4.62 1 9.24 1 14 C-8.24 14 -17.48 14 -27 14 C-27 13.67 -27 13.34 -27 13 C-16.605 12.505 -16.605 12.505 -6 12 C-6 11.34 -6 10.68 -6 10 C-4.35 9.67 -2.7 9.34 -1 9 C-0.67 9.66 -0.34 10.32 0 11 C0 7.37 0 3.74 0 0 Z " fill="#F19A16" transform="translate(1078,192)"/>
<path d="M0 0 C1.81684486 5.45053459 -1.76051827 10.9379028 -4 16 C-5.21156825 18.22451875 -6.41361451 20.01701813 -8 22 C-8.33 22 -8.66 22 -9 22 C-9 20.35 -9 18.7 -9 17 C-8.34 17 -7.68 17 -7 17 C-7 16.34 -7 15.68 -7 15 C-6.34 15 -5.68 15 -5 15 C-5.020625 14.05125 -5.04125 13.1025 -5.0625 12.125 C-5 9 -5 9 -4 7 C-4.66 7 -5.32 7 -6 7 C-6 6.01 -6 5.02 -6 4 C-4.35 4.33 -2.7 4.66 -1 5 C-0.67 3.35 -0.34 1.7 0 0 Z " fill="#EE9B1C" transform="translate(206,74)"/>
<path d="M0 0 C5.60069766 5.09043887 9.80848128 12.69162824 10.875 20.25 C10.91625 21.1575 10.9575 22.065 11 23 C10.67 22.34 10.34 21.68 10 21 C9.34 21 8.68 21 8 21 C6.5216774 18.04335481 6.93967217 15.25770263 7 12 C6.34 12 5.68 12 5 12 C4.896875 11.360625 4.79375 10.72125 4.6875 10.0625 C4.460625 9.381875 4.23375 8.70125 4 8 C3.01 7.67 2.02 7.34 1 7 C0.67 4.69 0.34 2.38 0 0 Z " fill="#EA9D26" transform="translate(196,29)"/>
<path d="M0 0 C1.65 0 3.3 0 5 0 C5.33 1.32 5.66 2.64 6 4 C6.66 4.12375 7.32 4.2475 8 4.375 C11 5 11 5 14.6875 6.0625 C19.45126274 7.29215195 24.11232258 7.18028318 29 7 C23.32432516 10.1378731 18.00097242 9.4368092 11.9375 7.8125 C7.21762554 6.28784194 3.8149221 4.15145739 0 1 C0 0.67 0 0.34 0 0 Z " fill="#E7A42E" transform="translate(459,124)"/>
<path d="M0 0 C0 3.98734393 -1.19683009 6.45583845 -3 10 C-5.625 12.25 -5.625 12.25 -8 14 C-8.33 14.99 -8.66 15.98 -9 17 C-9.66 17 -10.32 17 -11 17 C-8.66182116 10.37515995 -4.51233273 5.26438819 0 0 Z " fill="#EB991E" transform="translate(710,30)"/>
<path d="M0 0 C0.33 1.32 0.66 2.64 1 4 C0.34 4 -0.32 4 -1 4 C-1.33 4.99 -1.66 5.98 -2 7 C-2.825 7.309375 -3.65 7.61875 -4.5 7.9375 C-5.325 8.288125 -6.15 8.63875 -7 9 C-7.88693303 11.04105639 -7.88693303 11.04105639 -8 13 C-11.01031744 13.93423645 -11.86650268 14.04449911 -15 13 C-14.25234375 12.48050781 -13.5046875 11.96101562 -12.734375 11.42578125 C-11.74953125 10.72839844 -10.7646875 10.03101563 -9.75 9.3125 C-8.28820312 8.28576172 -8.28820312 8.28576172 -6.796875 7.23828125 C-4.05359194 5.04288852 -2.07498563 2.82099237 0 0 Z " fill="#EAA01E" transform="translate(884,157)"/>
<path d="M0 0 C1.35304209 4.05912626 0.15216503 5.77149591 -1.4375 9.6875 C-1.91058594 10.86699219 -2.38367188 12.04648438 -2.87109375 13.26171875 C-3.24363281 14.16535156 -3.61617187 15.06898438 -4 16 C-4.33 16 -4.66 16 -5 16 C-5 14.35 -5 12.7 -5 11 C-4.34 11 -3.68 11 -3 11 C-3 10.34 -3 9.68 -3 9 C-3.99 8.67 -4.98 8.34 -6 8 C-4.625 6.5 -4.625 6.5 -3 5 C-2.34 5 -1.68 5 -1 5 C-0.67 3.35 -0.34 1.7 0 0 Z " fill="#E79C21" transform="translate(656,150)"/>
<path d="M0 0 C-1.26572233 1.15147661 -2.53777906 2.29599314 -3.8125 3.4375 C-4.52019531 4.07558594 -5.22789062 4.71367188 -5.95703125 5.37109375 C-8 7 -8 7 -11 8 C-10.67 6.68 -10.34 5.36 -10 4 C-9.01 4 -8.02 4 -7 4 C-6.8453125 3.0409375 -6.8453125 3.0409375 -6.6875 2.0625 C-6.460625 1.381875 -6.23375 0.70125 -6 0 C-3 -1 -3 -1 0 0 Z " fill="#EA9A23" transform="translate(192,104)"/>
<path d="M0 0 C1.32 0 2.64 0 4 0 C4 0.66 4 1.32 4 2 C4.94875 2.165 5.8975 2.33 6.875 2.5 C10 4 10 4 10.84375 5.9140625 C11.32618625 7.92184864 11.67119562 9.96141284 12 12 C8 8 4 4 0 0 Z " fill="#E79C24" transform="translate(163,39)"/>
<path d="M0 0 C3.53600465 1.91135386 5.78972846 3.62642766 8 7 C3.545 7.495 3.545 7.495 -1 8 C-0.649375 7.236875 -0.29875 6.47375 0.0625 5.6875 C1.32360884 2.95240621 1.32360884 2.95240621 0 0 Z " fill="#EF9919" transform="translate(182,15)"/>
<path d="M0 0 C7.48291572 6.15034169 7.48291572 6.15034169 10 10 C9.67 10.66 9.34 11.32 9 12 C8.01 11.67 7.02 11.34 6 11 C5.3125 8.9375 5.3125 8.9375 5 7 C3.35 7 1.7 7 0 7 C0.33 6.01 0.66 5.02 1 4 C0.61067144 1.85744207 0.61067144 1.85744207 0 0 Z " fill="#EA9927" transform="translate(497,77)"/>
<path d="M0 0 C-2.90600261 1.25664978 -4.79604584 2 -8 2 C-8.268125 2.639375 -8.53625 3.27875 -8.8125 3.9375 C-10 6 -10 6 -13 7 C-13.33 5.68 -13.66 4.36 -14 3 C-12.42274653 2.29866401 -10.83788667 1.614417 -9.25 0.9375 C-7.92742188 0.36322266 -7.92742188 0.36322266 -6.578125 -0.22265625 C-3.84743691 -1.04600008 -2.63098653 -0.9773992 0 0 Z " fill="#EE9B1B" transform="translate(747,9)"/>
<path d="M0 0 C1.32 0.66 2.64 1.32 4 2 C2.71372289 3.17260611 1.42080217 4.3379283 0.125 5.5 C-0.59429688 6.1496875 -1.31359375 6.799375 -2.0546875 7.46875 C-4 9 -4 9 -6 9 C-6.33 7.68 -6.66 6.36 -7 5 C-4.525 5.495 -4.525 5.495 -2 6 C-2 5.34 -2 4.68 -2 4 C-1.34 4 -0.68 4 0 4 C0 2.68 0 1.36 0 0 Z " fill="#EE9824" transform="translate(631,185)"/>
<path d="M0 0 C1.125 3.75 1.125 3.75 0 6 C-2.0625 7.125 -2.0625 7.125 -4 8 C-4 8.99 -4 9.98 -4 11 C-5.98 11 -7.96 11 -10 11 C-9.278125 10.29875 -8.55625 9.5975 -7.8125 8.875 C-5.00176187 6.07229255 -2.50483774 3.07737208 0 0 Z " fill="#E99B23" transform="translate(174,76)"/>
<path d="M0 0 C2.31 0.33 4.62 0.66 7 1 C4.35419527 2.76386982 1.78215116 4.15902704 -1.0625 5.5625 C-1.94035156 5.99691406 -2.81820312 6.43132813 -3.72265625 6.87890625 C-4.47417969 7.24886719 -5.22570312 7.61882813 -6 8 C-6.99 8.495 -6.99 8.495 -8 9 C-6.99328314 5.97984943 -6.451644 4.90683422 -4 3 C-2.68 3 -1.36 3 0 3 C0 2.01 0 1.02 0 0 Z " fill="#E89C31" transform="translate(747,36)"/>
<path d="M0 0 C-2.28814723 2.28814723 -3.80751622 2.75451161 -6.875 3.6875 C-7.73867188 3.95949219 -8.60234375 4.23148438 -9.4921875 4.51171875 C-12.08694932 5.01692938 -13.530785 4.85561171 -16 4 C-5.62642369 -0.59225513 -5.62642369 -0.59225513 0 0 Z " fill="#E99D2F" transform="translate(614,200)"/>
<path d="M0 0 C0.33 0 0.66 0 1 0 C0.51030705 6.61085476 -1.33442742 11.94977014 -4 18 C-5.72251754 13.9154674 -4.07280563 10.63026304 -2.5625 6.75 C-2.31951172 6.1003125 -2.07652344 5.450625 -1.82617188 4.78125 C-1.22714006 3.18383183 -0.61485679 1.59139406 0 0 Z " fill="#E69E25" transform="translate(920,147)"/>
<path d="M0 0 C2.475 0.495 2.475 0.495 5 1 C5 1.99 5 2.98 5 4 C4.01 4.495 4.01 4.495 3 5 C2.59270772 7.32156597 2.25561323 9.6568787 2 12 C1.67 12 1.34 12 1 12 C0.67 8.04 0.34 4.08 0 0 Z " fill="#F19A15" transform="translate(627,66)"/>
<path d="M0 0 C0.33 0 0.66 0 1 0 C0.67 3.3 0.34 6.6 0 10 C-1.65 10.33 -3.3 10.66 -5 11 C-3.35 7.37 -1.7 3.74 0 0 Z " fill="#EB9721" transform="translate(890,145)"/>
<path d="M0 0 C0.66 0.33 1.32 0.66 2 1 C1.4375 2.9375 1.4375 2.9375 0 5 C-3.4118321 5.74439973 -6.51394686 6 -10 6 C-8.70903219 5.18639005 -7.41720125 4.37414954 -6.125 3.5625 C-5.04605469 2.88380859 -5.04605469 2.88380859 -3.9453125 2.19140625 C-2 1 -2 1 0 0 Z " fill="#EA9F1B" transform="translate(469,73)"/>
<path d="M0 0 C1.98 0.495 1.98 0.495 4 1 C3.34 3.64 2.68 6.28 2 9 C1.01 9 0.02 9 -1 9 C-0.67 8.01 -0.34 7.02 0 6 C0 5.34 0 4.68 0 4 C0 2.68 0 1.36 0 0 Z " fill="#F29C10" transform="translate(912,160)"/>
<path d="M0 0 C0.45375 0.61875 0.9075 1.2375 1.375 1.875 C2.97108919 4.05919833 2.97108919 4.05919833 5 6 C4.67 6.66 4.34 7.32 4 8 C1.11562221 6.70700306 -0.87219421 5.34058637 -3 3 C-2.34 3 -1.68 3 -1 3 C-0.67 2.01 -0.34 1.02 0 0 Z " fill="#ED9A16" transform="translate(873,38)"/>
<path d="M0 0 C0 0.66 0 1.32 0 2 C-0.99 2 -1.98 2 -3 2 C-3.33 2.99 -3.66 3.98 -4 5 C-6.375 6.25 -6.375 6.25 -9 7 C-9.99 6.67 -10.98 6.34 -12 6 C-10.37829621 4.99466333 -8.75252763 3.99588093 -7.125 3 C-5.76761719 2.1646875 -5.76761719 2.1646875 -4.3828125 1.3125 C-2 0 -2 0 0 0 Z " fill="#EB9D26" transform="translate(38,95)"/>
<path d="M0 0 C2.31 0.33 4.62 0.66 7 1 C6.67 3.31 6.34 5.62 6 8 C3.33264727 5.51047079 1.44253657 3.36591866 0 0 Z " fill="#F29612" transform="translate(881,50)"/>
<path d="M0 0 C0.53625 0.680625 1.0725 1.36125 1.625 2.0625 C-0.92202616 3.33601308 -1.8032945 2.86441925 -4.5 2.125 C-5.22445312 1.93035156 -5.94890625 1.73570313 -6.6953125 1.53515625 C-7.24960937 1.37917969 -7.80390625 1.22320312 -8.375 1.0625 C-8.375 0.4025 -8.375 -0.2575 -8.375 -0.9375 C-2.95961538 -2.41442308 -2.95961538 -2.41442308 0 0 Z " fill="#EF9A22" transform="translate(600.375,35.9375)"/>
<path d="M0 0 C0.66 0 1.32 0 2 0 C2.33 0.66 2.66 1.32 3 2 C3.99 2 4.98 2 6 2 C6.33 4.31 6.66 6.62 7 9 C4.03595495 6.19195732 1.55500981 3.81684226 0 0 Z " fill="#EE9F1F" transform="translate(701,169)"/>
<path d="M0 0 C0.99 0.33 1.98 0.66 3 1 C1.02 5.455 1.02 5.455 -1 10 C-1.89130413 7.3260876 -2.47731534 4.76276177 -3 2 C-2.01 1.34 -1.02 0.68 0 0 Z " fill="#E89A1C" transform="translate(725,57)"/>
<path d="M0 0 C2.96404505 2.80804268 5.44499019 5.18315774 7 9 C4.03 8.505 4.03 8.505 1 8 C0.67 5.36 0.34 2.72 0 0 Z " fill="#EA9C22" transform="translate(639,29)"/>
<path d="M0 0 C2.6855594 2.6855594 3.06049974 5.37621328 4 9 C2.35 8.67 0.7 8.34 -1 8 C-0.67 5.36 -0.34 2.72 0 0 Z " fill="#EC991C" transform="translate(723,145)"/>
<path d="M0 0 C0.66 0 1.32 0 2 0 C2 0.66 2 1.32 2 2 C2.66 2 3.32 2 4 2 C3.34 3.32 2.68 4.64 2 6 C1.67 5.34 1.34 4.68 1 4 C-0.98 4.99 -0.98 4.99 -3 6 C-1.125 1.125 -1.125 1.125 0 0 Z " fill="#F09713" transform="translate(193,94)"/>
<path d="M0 0 C0.66 0 1.32 0 2 0 C2 0.66 2 1.32 2 2 C2.804375 2.12375 3.60875 2.2475 4.4375 2.375 C5.7059375 2.684375 5.7059375 2.684375 7 3 C7.33 3.66 7.66 4.32 8 5 C6.1875 5.6875 6.1875 5.6875 4 6 C1.51384442 4.15840327 0.99843096 2.99529289 0 0 Z " fill="#EC9710" transform="translate(600,35)"/>
<path d="M0 0 C2.97 0.495 2.97 0.495 6 1 C3.6875 3.0625 3.6875 3.0625 1 5 C0.01 4.67 -0.98 4.34 -2 4 C-1.34 2.68 -0.68 1.36 0 0 Z " fill="#F09721" transform="translate(618,194)"/>
<path d="M0 0 C0 1.65 0 3.3 0 5 C-2.88437779 3.70700306 -4.87219421 2.34058637 -7 0 C-2.25 -1.125 -2.25 -1.125 0 0 Z " fill="#EE9822" transform="translate(724,188)"/>
<path d="M0 0 C1.37562854 1.28965176 2.70766393 2.62689293 4 4 C4 4.66 4 5.32 4 6 C3.01 6 2.02 6 1 6 C1 6.66 1 7.32 1 8 C0.34 8 -0.32 8 -1 8 C-0.67 5.36 -0.34 2.72 0 0 Z " fill="#F29521" transform="translate(727,154)"/>
<path d="M0 0 C2.4375 0.625 2.4375 0.625 5 2 C5.8125 5.125 5.8125 5.125 6 8 C1.125 3.375 1.125 3.375 0 0 Z " fill="#EDA316" transform="translate(453,116)"/>
<path d="M0 0 C0.66 0.33 1.32 0.66 2 1 C1.19185349 2.33597652 0.37836819 3.668725 -0.4375 5 C-0.88996094 5.7425 -1.34242188 6.485 -1.80859375 7.25 C-2.20175781 7.8275 -2.59492188 8.405 -3 9 C-3.33 9 -3.66 9 -4 9 C-4 7.35 -4 5.7 -4 4 C-3.34 4 -2.68 4 -2 4 C-2 3.34 -2 2.68 -2 2 C-1.34 2 -0.68 2 0 2 C0 1.34 0 0.68 0 0 Z " fill="#E79825" transform="translate(201,87)"/>
<path d="M0 0 C1.98 1.65 3.96 3.3 6 5 C5.67 5.66 5.34 6.32 5 7 C3.35 6.67 1.7 6.34 0 6 C0 4.02 0 2.04 0 0 Z " fill="#EB9920" transform="translate(190,22)"/>
<path d="M0 0 C0.99 0 1.98 0 3 0 C2.01 2.97 1.02 5.94 0 9 C-0.33 9 -0.66 9 -1 9 C-1.125 2.25 -1.125 2.25 0 0 Z " fill="#E89A1D" transform="translate(34,133)"/>
<path d="M0 0 C2.475 0.99 2.475 0.99 5 2 C4.67 3.98 4.34 5.96 4 8 C2.22293791 5.33440687 1.12451727 2.9719385 0 0 Z " fill="#E89B21" transform="translate(623,58)"/>
<path d="M0 0 C0.66 0.66 1.32 1.32 2 2 C-0.97 4.475 -0.97 4.475 -4 7 C-3.67 5.02 -3.34 3.04 -3 1 C-2.01 1.33 -1.02 1.66 0 2 C0 1.34 0 0.68 0 0 Z " fill="#E99E28" transform="translate(901,181)"/>
</svg>
