<svg id="Layer_1" data-name="Layer 1" xmlns="http://www.w3.org/2000/svg" xmlns:xlink="http://www.w3.org/1999/xlink" viewBox="0 0 921.93 156.74"><defs><style>.cls-1{fill:none;}.cls-2{clip-path:url(#clip-path);}.cls-3{fill:#fff;}.cls-4{clip-path:url(#clip-path-2);}.cls-5{clip-path:url(#clip-path-3);}.cls-6{clip-path:url(#clip-path-4);}.cls-7{clip-path:url(#clip-path-5);}</style><clipPath id="clip-path" transform="translate(-39.04 -455.54)"><rect class="cls-1" x="39" y="455.54" width="161.35" height="156.74"/></clipPath><clipPath id="clip-path-2" transform="translate(-39.04 -455.54)"><rect class="cls-1" x="224.94" y="455.54" width="24.59" height="156.74"/></clipPath><clipPath id="clip-path-3" transform="translate(-39.04 -455.54)"><rect class="cls-1" x="393.97" y="455.54" width="162.89" height="156.74"/></clipPath><clipPath id="clip-path-4" transform="translate(-39.04 -455.54)"><rect class="cls-1" x="581.44" y="455.54" width="182.86" height="156.74"/></clipPath><clipPath id="clip-path-5" transform="translate(-39.04 -455.54)"><rect class="cls-1" x="788.89" y="455.54" width="172.11" height="156.74"/></clipPath></defs><g class="cls-2"><path class="cls-3" d="M39,567.35A44.42,44.42,0,0,1,69.27,525a43,43,0,0,1,15-2.61H155a21.49,21.49,0,0,0,6.83-1,18,18,0,0,0,6.05-3.13,25.2,25.2,0,0,0,5-4.71,17.77,17.77,0,0,0,3.16-6,22.92,22.92,0,0,0,1.05-6.79v-.53a20.07,20.07,0,0,0-3.15-11,21.17,21.17,0,0,0-7.89-7.83,20.27,20.27,0,0,0-11-3.14H39V455.54H155a45.42,45.42,0,0,1,36.8,19.07,42.79,42.79,0,0,1,8.41,25.86,42.18,42.18,0,0,1-6,21.95,43.92,43.92,0,0,1-20.76,19.07l-.53.26A45.53,45.53,0,0,1,155,545.41H84.24A22.38,22.38,0,0,0,61.9,567.09v45.19H39Z" transform="translate(-39.04 -455.54)"/></g><g class="cls-4"><path class="cls-3" d="M226.42,455.54h22.86V612.28H226.42Z" transform="translate(-39.04 -455.54)"/></g><g class="cls-5"><path class="cls-3" d="M394.55,612.28V589.56h103a33.75,33.75,0,0,0,24.71-10.2,34.22,34.22,0,0,0,10.25-24.81V513.27a35.34,35.34,0,0,0-35-35h-103V455.54h103a56.06,56.06,0,0,1,41,17q17.1,17,17.09,40.75v41.28q0,23.78-17.09,40.75a56.06,56.06,0,0,1-41,17Z" transform="translate(-39.04 -455.54)"/></g><g class="cls-6"><path class="cls-3" d="M581.93,513.27q0-23.76,17.08-40.75t41-17h65.19a56.1,56.1,0,0,1,41,17q17.09,17,17.08,40.75v41.28q0,23.78-17.08,40.75a56.1,56.1,0,0,1-41,17H640q-23.92,0-41-17t-17.08-40.75ZM640,589.56h65.19a35.37,35.37,0,0,0,35.22-35V513.27a32.94,32.94,0,0,0-10.52-24.55,33.33,33.33,0,0,0-24.7-10.45H640a35.29,35.29,0,0,0-30.49,17.5,34,34,0,0,0-4.74,17.5v41.28a34.19,34.19,0,0,0,10.26,24.81A34.63,34.63,0,0,0,640,589.56Z" transform="translate(-39.04 -455.54)"/></g><g class="cls-7"><path class="cls-3" d="M863.71,612.28v-134H789.59V455.54H961v22.73H886.58v134Z" transform="translate(-39.04 -455.54)"/></g><path class="cls-3" d="M437.92,530.83a23.3,23.3,0,1,1-23.3-23.15A23.3,23.3,0,0,1,437.92,530.83Z" transform="translate(-39.04 -455.54)"/></svg>