<svg width="146" height="60" viewBox="0 0 146 60" fill="none" xmlns="http://www.w3.org/2000/svg">
<g clip-path="url(#clip0_1092_89)">
<path d="M145.942 43.0223H145.904V43.0069H141.716V0.0761719L101.028 45.3069H69.7918C68.4471 45.3069 67.3713 44.8146 67.3713 43.4685C67.3713 42.5454 67.8708 41.7762 68.6008 41.3531C68.6392 41.3339 68.6392 41.3262 68.6776 41.3146C71.8281 39.6993 74.8634 38.8531 76.5924 38.3531L77.1302 38.1993C78.1676 37.8916 79.4739 37.6223 80.8187 37.3146C81.2797 37.1992 81.7792 37.0839 82.2787 37.0069C90.5392 35.1223 101.72 31.3069 101.72 18.1146C101.72 15.1916 100.99 12.23 99.2992 9.57617C96.6097 5.3454 91.5381 1.92233 83.2392 0.922326C81.6255 0.730018 79.8581 0.614633 77.9755 0.614633C65.1045 0.614633 56.4213 7.38386 56.1139 17.5377V18.0762C56.1139 23.6916 60.6476 28.23 66.2571 28.23C71.8666 28.23 76.4002 23.6531 76.4002 18.0762C76.4002 12.4992 71.8666 7.92233 66.2571 7.92233C65.9497 7.92233 65.6424 7.92233 65.335 7.96079H65.2966C63.2218 8.1531 62.9298 8.27233 61.4084 8.86848C62.4803 7.46079 62.7492 7.28002 64.5666 5.95694C64.605 5.95694 64.605 5.91848 64.6434 5.91848C68.1013 3.68771 72.7118 2.45694 78.1292 2.45694C78.7055 2.45694 79.2818 2.45694 79.8197 2.4954H80.1655C81.3566 2.64925 82.1634 3.39925 82.1634 4.63002V32.6877C82.1634 33.9954 81.2413 35.1108 80.0502 35.4185C79.9734 35.4185 79.935 35.4569 79.8581 35.4569C78.7055 35.6877 77.6681 35.9569 76.746 36.2262L76.2466 36.38C73.7492 37.0723 68.5624 38.5339 63.9902 42.0339C62.3766 43.2646 60.9934 44.6108 59.8023 46.1108C56.8055 49.9185 55.3071 54.5723 55.3071 59.9954H87.9266L101.105 45.3416H125.041V59.9954H141.754V45.3531H145.904V45.3416H145.942V43.0185V43.0223ZM125.003 42.9993L106.488 42.9762L125.003 21.9685V42.9993ZM22.2266 12.4608C20.1518 16.8069 15.8487 17.2685 15.8487 17.2685L17.9234 21.6916V21.73L0.0576172 59.9608H2.58572L8.58709 47.1531H29.807L35.7623 59.9608H54.189L27.1829 1.88386L22.2266 12.4608ZM9.70899 44.8069L19.2182 24.4762L28.7044 44.8069H9.70899Z" fill="white"/>
</g>
<defs>
<clipPath id="clip0_1092_89">
<rect width="146" height="60" fill="white"/>
</clipPath>
</defs>
</svg>
