<svg width="286" height="40" viewBox="0 0 286 40" fill="none" xmlns="http://www.w3.org/2000/svg">
<g clip-path="url(#clip0_841_2)">
<path d="M169.624 1.41406C163.727 1.41406 157.964 6.51406 157.302 13.8832V2.02134H148.835V37.7868H157.405V20.4759C157.405 15.6268 161.004 8.78497 169.624 8.78497V1.41406ZM259.596 32.0613V7.5577H264.562C271.182 7.5577 276.56 11.5104 276.56 19.6122C276.56 27.7141 271.182 32.0613 264.562 32.0613H259.596ZM251.115 37.7922H265.596C274.491 37.7922 285.455 32.2595 285.455 19.6122C285.455 7.16315 274.491 2.02497 265.596 2.02497H251.115V37.7922ZM218.589 20.0104C218.589 13.4886 222.105 8.15406 227.898 8.15406C233.484 8.15406 236.587 13.4886 236.587 20.0086C236.587 26.5304 233.484 31.8668 227.898 31.8668C222.105 31.8668 218.589 26.5304 218.589 20.0104ZM209.9 20.405C209.9 31.0759 215.693 38.585 224.795 38.585C231.415 38.585 235.345 34.4359 237.415 27.7159V37.7941H245.895V2.02861H237.415V11.5122C235.553 5.19043 231.622 1.43588 225.416 1.43588C216.107 1.43588 209.9 9.5377 209.9 20.405ZM16.7564 38.585C6.20545 38.585 0 30.4832 0 20.405C0 9.93224 6.82727 1.43588 19.86 1.43588C33.3055 1.43588 37.8564 10.1304 38.0636 15.0704H28.3418C28.1345 12.3032 25.6509 8.15406 19.6509 8.15406C13.24 8.15406 9.10182 13.4886 9.10182 20.0086C9.10182 26.5304 13.24 31.8668 19.6527 31.8668C25.4455 31.8668 27.9273 27.5195 28.9618 23.1722H19.6527V19.6141H39.1855V37.7959H30.6182V26.3341C29.9982 30.4832 27.3091 38.585 16.7582 38.585H16.7564ZM56.56 38.5813C48.4927 38.5813 43.5273 33.445 43.5273 23.1686V2.02497H52.2164V23.1704C52.2164 28.505 54.9055 31.0741 59.4564 31.0741C68.3509 31.0741 71.6618 20.6013 71.6618 13.2886V2.02497H80.3491V37.7922H71.8691V24.5522C70.2145 31.8632 65.6618 38.5832 56.56 38.5832V38.5813ZM132.256 1.41406C124.844 1.41406 120.167 8.25406 118.642 14.5777C118.38 6.10497 114.016 1.41406 107.036 1.41406C101.004 1.41406 95.4073 6.55224 93.9545 14.6813V2.02315H85.4855V37.7904H94.0636V24.9686C94.0636 21.7886 95.4509 8.74315 104.085 8.74315C109.68 8.74315 110.264 13.5632 110.264 20.1522V37.7904H118.838V24.9686C118.838 21.7886 120.282 8.74315 128.918 8.74315C134.507 8.74315 135.085 13.5632 135.085 20.1522V37.7904H143.671V16.6359C143.711 6.48679 139.958 1.4177 132.256 1.4177V1.41406ZM188.027 1.41406C176.92 1.41406 169.396 9.73225 169.396 19.9995C169.396 31.3104 176.553 38.5813 188.027 38.5813C199.133 38.5813 206.791 30.265 206.791 19.9995C206.791 8.68679 199.495 1.41406 188.027 1.41406ZM188.027 32.2504C181.562 32.2504 177.373 27.0232 177.373 19.9995C177.373 12.9759 181.576 7.74497 188.027 7.74497C194.476 7.74497 198.511 12.9741 198.511 19.9995C198.511 27.0232 194.473 32.2504 188.027 32.2504Z" fill="white"/>
</g>
<defs>
<clipPath id="clip0_841_2">
<rect width="285.455" height="40" fill="white"/>
</clipPath>
</defs>
</svg>
