<svg width="59" height="40" viewBox="0 0 59 40" fill="none" xmlns="http://www.w3.org/2000/svg">
<g clip-path="url(#clip0_661_2)">
<path d="M43.4802 28.7138C43.4802 30.2751 43.4658 31.5387 43.4882 32.8024C43.4962 33.2358 43.354 33.3747 42.94 33.3647C41.9315 33.3416 40.9197 33.3267 39.9112 33.3697C39.3869 33.3929 39.3022 33.1729 39.307 32.6999C39.3262 30.4488 39.323 28.1961 39.3134 25.9433C39.3054 24.2612 38.9569 22.7081 37.4945 21.7058C36.1711 20.7994 34.7438 20.7613 33.334 21.4461C31.9195 22.1341 31.1347 23.3647 31.09 24.9641C31.0165 27.5162 31.0389 30.0717 31.0596 32.6254C31.0644 33.201 30.9157 33.3846 30.3532 33.3565C29.3718 33.3102 28.3872 33.33 27.4043 33.3499C27.0366 33.3581 26.8896 33.2523 26.8928 32.847C26.9183 29.9906 26.7921 27.1259 26.9711 24.281C27.1581 21.3187 29.482 18.1563 33.1055 17.2516C37.528 16.1467 41.9762 18.6492 43.127 23.0339C43.6417 24.9973 43.4339 27.0151 43.4786 28.7138H43.4802Z" fill="white"/>
<path d="M50.2456 5.07283C50.2456 6.14462 50.3208 7.22302 50.2233 8.2832C50.1418 9.17142 50.5573 9.3352 51.2478 9.42616C53.0683 9.66764 54.8553 9.55016 56.5862 8.92334C57.1568 8.7166 57.3822 8.86542 57.5485 9.43112C57.8042 10.2945 58.1094 11.1446 58.4323 11.9832C58.6129 12.4496 58.5218 12.6498 58.0439 12.8135C55.7343 13.6025 53.372 13.8258 50.9761 13.4982C50.2888 13.404 50.2297 13.6422 50.2377 14.2177C50.2601 16.1678 50.2265 18.1179 50.2585 20.0662C50.268 20.6568 50.137 20.9131 49.5136 20.8734C48.6937 20.8205 47.8658 20.8254 47.0442 20.8734C46.4305 20.9082 46.2195 20.7179 46.2307 20.0513C46.2706 17.8003 46.2259 15.5476 46.2579 13.2965C46.2659 12.6828 46.0932 12.4794 45.4874 12.357C43.5759 11.9667 41.6819 11.9468 39.8086 12.4827C39.23 12.6481 39.0542 12.4562 38.9247 11.9435C38.7042 11.0685 38.4964 10.1853 38.1879 9.34342C37.9625 8.72653 38.223 8.57601 38.7057 8.46023C40.9785 7.91771 43.269 7.72253 45.5722 8.19394C46.1332 8.30801 46.2579 8.17075 46.2514 7.61831C46.229 5.61368 46.261 3.60905 46.2307 1.60441C46.2227 1.04371 46.357 0.820417 46.9339 0.853499C47.781 0.901469 48.6362 0.89981 49.4833 0.853499C50.0587 0.822077 50.2856 0.972588 50.2568 1.61599C50.2057 2.76717 50.2425 3.92165 50.2425 5.07614L50.2456 5.07283Z" fill="white"/>
<path d="M29.9936 11.2374C30.3117 11.1564 30.3165 11.3896 30.3596 11.512C30.7224 12.5673 31.0469 13.6374 31.4273 14.686C31.6367 15.2633 31.1508 15.1954 30.9302 15.2914C27.9478 16.5848 25.9387 18.8094 24.823 21.9404C24.1837 23.735 24.0878 25.6321 23.7361 27.4797C22.8907 31.9256 20.9934 35.6884 17.1926 38.2124C16.2975 38.8062 15.3338 39.2494 14.3508 39.6629C13.9352 39.8382 13.7898 39.7175 13.6635 39.3189C13.3598 38.358 13.0433 37.3986 12.6837 36.4591C12.5367 36.0738 12.6246 35.9431 12.9698 35.7959C17.549 33.8442 19.5278 30.0583 20.0824 25.1888C20.5683 20.9133 22.0052 17.0611 25.205 14.1022C26.5476 12.8617 28.0964 11.9834 29.7635 11.3119C29.8626 11.2722 29.9649 11.2457 29.9953 11.2374H29.9936Z" fill="white"/>
<path d="M9.04562 17.0078C4.18353 17.0144 0.612858 20.5689 0.600071 25.4316C0.587285 30.2993 4.12119 33.991 8.80592 34.0026C13.5977 34.0142 17.1811 30.4382 17.2019 25.6334C17.2243 20.0148 12.9823 17.0012 9.04562 17.0078ZM9.01688 30.0446C6.50749 30.0363 4.73974 28.1292 4.75733 25.4465C4.7733 22.8977 6.56344 20.9791 8.90977 20.9956C11.3073 21.0121 13.0558 22.9374 13.0415 25.5424C13.0271 28.068 11.2545 30.0512 9.01525 30.0429L9.01688 30.0446Z" fill="white"/>
</g>
<defs>
<clipPath id="clip0_661_2">
<rect width="58.5185" height="40" fill="white"/>
</clipPath>
</defs>
</svg>
