<svg xmlns="http://www.w3.org/2000/svg" xmlns:xlink="http://www.w3.org/1999/xlink" width="1000" zoomAndPan="magnify" viewBox="0 0 750 749.999995" height="1000" preserveAspectRatio="xMidYMid meet" version="1.0"><defs><g/><clipPath id="699849ae2d"><path d="M 327 281 L 464 281 L 464 417.632812 L 327 417.632812 Z M 327 281 " clip-rule="nonzero"/></clipPath><clipPath id="07d4cbe138"><path d="M 412 208.382812 L 472.800781 208.382812 L 472.800781 270 L 412 270 Z M 412 208.382812 " clip-rule="nonzero"/></clipPath><clipPath id="9ce5e1a787"><path d="M 277.050781 211 L 385 211 L 385 367 L 277.050781 367 Z M 277.050781 211 " clip-rule="nonzero"/></clipPath></defs><path fill="#192a2c" d="M 349.148438 280.398438 L 464.519531 280.398438 L 464.519531 324.398438 L 349.148438 324.398438 Z M 349.148438 280.398438 " fill-opacity="1" fill-rule="nonzero"/><path fill="#192a2c" d="M 464.519531 280.398438 L 464.519531 395.769531 L 420.519531 395.769531 L 420.519531 280.398438 Z M 464.519531 280.398438 " fill-opacity="1" fill-rule="nonzero"/><g clip-path="url(#699849ae2d)"><path fill="#192a2c" d="M 327.542969 386.109375 L 431.992188 281.660156 L 463.105469 312.773438 L 358.65625 417.222656 Z M 327.542969 386.109375 " fill-opacity="1" fill-rule="nonzero"/></g><g clip-path="url(#07d4cbe138)"><path fill="#192a2c" d="M 472.941406 238.820312 C 472.941406 239.816406 472.894531 240.808594 472.796875 241.800781 C 472.699219 242.792969 472.550781 243.777344 472.355469 244.753906 C 472.164062 245.730469 471.921875 246.695312 471.632812 247.652344 C 471.34375 248.605469 471.007812 249.539062 470.625 250.460938 C 470.246094 251.382812 469.820312 252.28125 469.347656 253.160156 C 468.878906 254.039062 468.367188 254.890625 467.816406 255.722656 C 467.261719 256.550781 466.667969 257.347656 466.035156 258.117188 C 465.402344 258.890625 464.734375 259.625 464.03125 260.332031 C 463.328125 261.035156 462.589844 261.703125 461.820312 262.335938 C 461.050781 262.96875 460.25 263.5625 459.421875 264.113281 C 458.59375 264.667969 457.738281 265.179688 456.859375 265.648438 C 455.980469 266.117188 455.082031 266.542969 454.160156 266.925781 C 453.242188 267.308594 452.304688 267.640625 451.351562 267.929688 C 450.398438 268.21875 449.433594 268.460938 448.453125 268.65625 C 447.476562 268.851562 446.492188 268.996094 445.5 269.09375 C 444.511719 269.191406 443.515625 269.242188 442.519531 269.242188 C 441.523438 269.242188 440.53125 269.191406 439.539062 269.09375 C 438.546875 268.996094 437.5625 268.851562 436.585938 268.65625 C 435.609375 268.460938 434.640625 268.21875 433.6875 267.929688 C 432.734375 267.640625 431.796875 267.308594 430.878906 266.925781 C 429.957031 266.542969 429.058594 266.117188 428.179688 265.648438 C 427.300781 265.179688 426.445312 264.667969 425.617188 264.113281 C 424.789062 263.5625 423.992188 262.96875 423.222656 262.335938 C 422.449219 261.703125 421.714844 261.035156 421.007812 260.332031 C 420.304688 259.625 419.636719 258.890625 419.003906 258.117188 C 418.371094 257.347656 417.777344 256.550781 417.226562 255.722656 C 416.671875 254.890625 416.160156 254.039062 415.691406 253.160156 C 415.222656 252.28125 414.796875 251.382812 414.414062 250.460938 C 414.03125 249.539062 413.699219 248.605469 413.410156 247.652344 C 413.121094 246.695312 412.878906 245.730469 412.683594 244.753906 C 412.488281 243.777344 412.34375 242.792969 412.246094 241.800781 C 412.148438 240.808594 412.097656 239.816406 412.097656 238.820312 C 412.097656 237.824219 412.148438 236.828125 412.246094 235.835938 C 412.34375 234.847656 412.488281 233.863281 412.683594 232.882812 C 412.878906 231.90625 413.121094 230.941406 413.410156 229.988281 C 413.699219 229.035156 414.03125 228.097656 414.414062 227.179688 C 414.796875 226.257812 415.222656 225.359375 415.691406 224.480469 C 416.160156 223.601562 416.671875 222.746094 417.226562 221.917969 C 417.777344 221.089844 418.371094 220.289062 419.003906 219.519531 C 419.636719 218.75 420.304688 218.011719 421.007812 217.308594 C 421.714844 216.605469 422.449219 215.933594 423.222656 215.304688 C 423.992188 214.671875 424.789062 214.078125 425.617188 213.523438 C 426.445312 212.972656 427.300781 212.460938 428.179688 211.988281 C 429.058594 211.519531 429.957031 211.09375 430.878906 210.714844 C 431.796875 210.332031 432.734375 209.996094 433.6875 209.707031 C 434.640625 209.417969 435.609375 209.175781 436.585938 208.984375 C 437.5625 208.789062 438.546875 208.640625 439.539062 208.542969 C 440.53125 208.445312 441.523438 208.398438 442.519531 208.398438 C 443.515625 208.398438 444.511719 208.445312 445.5 208.542969 C 446.492188 208.640625 447.476562 208.789062 448.453125 208.984375 C 449.433594 209.175781 450.398438 209.417969 451.351562 209.707031 C 452.304688 209.996094 453.242188 210.332031 454.160156 210.714844 C 455.082031 211.09375 455.980469 211.519531 456.859375 211.988281 C 457.738281 212.460938 458.59375 212.972656 459.421875 213.523438 C 460.25 214.078125 461.050781 214.671875 461.820312 215.304688 C 462.589844 215.933594 463.328125 216.605469 464.03125 217.308594 C 464.734375 218.011719 465.402344 218.75 466.035156 219.519531 C 466.667969 220.289062 467.261719 221.089844 467.816406 221.917969 C 468.367188 222.746094 468.878906 223.601562 469.347656 224.480469 C 469.820312 225.359375 470.246094 226.257812 470.625 227.179688 C 471.007812 228.097656 471.34375 229.035156 471.632812 229.988281 C 471.921875 230.941406 472.164062 231.90625 472.355469 232.882812 C 472.550781 233.863281 472.699219 234.847656 472.796875 235.835938 C 472.894531 236.828125 472.941406 237.824219 472.941406 238.820312 Z M 472.941406 238.820312 " fill-opacity="1" fill-rule="nonzero"/></g><g clip-path="url(#9ce5e1a787)"><path fill="#192a2c" d="M 384.515625 212.609375 C 364.949219 209.050781 344.753906 211.988281 327.015625 220.976562 C 309.273438 229.964844 294.960938 244.503906 286.253906 262.386719 C 277.546875 280.265625 274.921875 300.5 278.789062 320.007812 C 282.652344 339.515625 291.871094 353.402344 306.734375 366.613281 L 335.253906 339.382812 C 327.164062 332.191406 321.644531 322.554688 319.542969 311.9375 C 317.441406 301.320312 318.867188 290.304688 323.605469 280.574219 C 328.34375 270.84375 336.136719 262.929688 345.789062 258.039062 C 355.445312 253.148438 366.433594 251.550781 377.082031 253.484375 Z M 384.515625 212.609375 " fill-opacity="1" fill-rule="nonzero"/></g><g fill="#192a2c" fill-opacity="1"><g transform="translate(160.867759, 514.307905)"><g><path d="M 78.578125 -42.9375 L 78.578125 0 L 63.765625 0 L 63.765625 -5.921875 C 57.160156 -1.210938 49.757812 1.140625 41.5625 1.140625 C 31.007812 1.140625 22.015625 -2.578125 14.578125 -10.015625 C 7.140625 -17.460938 3.421875 -26.460938 3.421875 -37.015625 C 3.421875 -47.566406 7.140625 -56.5625 14.578125 -64 C 22.015625 -71.4375 31.007812 -75.15625 41.5625 -75.15625 C 50.976562 -75.15625 59.253906 -72.117188 66.390625 -66.046875 L 55 -54.78125 C 50.976562 -57.738281 46.5 -59.21875 41.5625 -59.21875 C 35.34375 -59.21875 30.144531 -57.050781 25.96875 -52.71875 C 21.5625 -48.320312 19.359375 -43.085938 19.359375 -37.015625 C 19.359375 -30.941406 21.5625 -25.703125 25.96875 -21.296875 C 30.289062 -16.960938 35.488281 -14.796875 41.5625 -14.796875 C 47.5625 -14.796875 52.800781 -16.960938 57.28125 -21.296875 C 57.425781 -21.441406 57.578125 -21.59375 57.734375 -21.75 L 58.296875 -22.3125 C 58.828125 -22.925781 59.320312 -23.5 59.78125 -24.03125 C 61.070312 -25.625 61.945312 -26.988281 62.40625 -28.125 L 45.328125 -28.125 L 45.328125 -42.9375 Z M 63.65625 -28.125 L 63.765625 -28.015625 L 63.765625 -28.125 Z M 63.65625 -28.125 "/></g></g></g><g fill="#192a2c" fill-opacity="1"><g transform="translate(242.845064, 514.307905)"><g><path d="M 21.1875 -29.03125 L 21.1875 -15.9375 L 55.109375 -15.9375 L 55.109375 0 L 3.421875 0 L 3.421875 -74.015625 L 55.109375 -74.015625 L 55.109375 -58.078125 L 21.1875 -58.078125 L 21.1875 -44.984375 L 49.984375 -44.984375 L 49.984375 -29.03125 Z M 21.1875 -29.03125 "/></g></g></g><g fill="#192a2c" fill-opacity="1"><g transform="translate(301.367763, 514.307905)"><g><path d="M 51.8125 -74.015625 L 69.578125 -74.015625 L 69.578125 0 L 20.5 -36.09375 L 20.5 0 L 2.734375 0 L 2.734375 -74.015625 L 51.8125 -36.21875 Z M 51.8125 -74.015625 "/></g></g></g><g fill="#192a2c" fill-opacity="1"><g transform="translate(373.667197, 514.307905)"><g><path d="M 21.1875 -29.03125 L 21.1875 -15.9375 L 55.109375 -15.9375 L 55.109375 0 L 3.421875 0 L 3.421875 -74.015625 L 55.109375 -74.015625 L 55.109375 -58.078125 L 21.1875 -58.078125 L 21.1875 -44.984375 L 49.984375 -44.984375 L 49.984375 -29.03125 Z M 21.1875 -29.03125 "/></g></g></g><g fill="#192a2c" fill-opacity="1"><g transform="translate(432.189896, 514.307905)"><g><path d="M 33.59375 0.109375 C 28.582031 0.109375 24.179688 -0.609375 20.390625 -2.046875 C 17.347656 -3.265625 14.234375 -5.273438 11.046875 -8.078125 C 7.398438 -11.421875 5.082031 -15.5625 4.09375 -20.5 C 3.71875 -22.09375 3.53125 -23.6875 3.53125 -25.28125 C 3.457031 -25.8125 3.457031 -26.34375 3.53125 -26.875 L 3.53125 -27.671875 L 19.125 -27.4375 L 19.125 -27.5625 C 19.125 -24.75 19.734375 -22.429688 20.953125 -20.609375 C 23.234375 -17.191406 27.445312 -15.484375 33.59375 -15.484375 C 43.457031 -15.484375 48.390625 -17.800781 48.390625 -22.4375 C 48.390625 -26.914062 43.304688 -29.722656 33.140625 -30.859375 C 27.296875 -31.546875 22.285156 -32.757812 18.109375 -34.5 C 14.234375 -36.09375 11.082031 -38.21875 8.65625 -40.875 C 5.238281 -44.675781 3.53125 -49.082031 3.53125 -54.09375 C 3.53125 -57.207031 4.097656 -60.128906 5.234375 -62.859375 C 6.066406 -64.910156 7.207031 -66.769531 8.65625 -68.4375 C 13.96875 -74.4375 22.394531 -77.4375 33.9375 -77.4375 C 40.84375 -77.4375 46.6875 -76.066406 51.46875 -73.328125 C 55.113281 -71.285156 58.078125 -68.554688 60.359375 -65.140625 C 62.023438 -62.554688 63.203125 -59.59375 63.890625 -56.25 C 64.109375 -55.113281 64.257812 -53.976562 64.34375 -52.84375 C 64.414062 -52.457031 64.453125 -52.078125 64.453125 -51.703125 L 64.453125 -51.015625 L 48.859375 -51.015625 L 48.859375 -50.90625 C 48.929688 -53.175781 48.359375 -55.109375 47.140625 -56.703125 C 44.710938 -60.117188 40.3125 -61.828125 33.9375 -61.828125 C 30.0625 -61.828125 26.875 -61.335938 24.375 -60.359375 C 21.257812 -59.140625 19.703125 -57.390625 19.703125 -55.109375 C 19.703125 -50.410156 24.75 -47.488281 34.84375 -46.34375 C 46.226562 -45.050781 54.425781 -41.519531 59.4375 -35.75 C 62.78125 -31.800781 64.453125 -27.363281 64.453125 -22.4375 L 64.453125 -21.40625 C 64.453125 -20.945312 64.414062 -20.492188 64.34375 -20.046875 C 64.257812 -18.828125 64.109375 -17.6875 63.890625 -16.625 C 63.128906 -13.59375 61.6875 -10.898438 59.5625 -8.546875 C 57.050781 -5.734375 53.671875 -3.566406 49.421875 -2.046875 C 45.171875 -0.609375 39.894531 0.109375 33.59375 0.109375 Z M 33.59375 0.109375 "/></g></g></g><g fill="#192a2c" fill-opacity="1"><g transform="translate(500.048899, 514.307905)"><g><path d="M 1.703125 -74.015625 L 19.46875 -74.015625 L 19.46875 0 L 1.703125 0 Z M 1.703125 -74.015625 "/></g></g></g><g fill="#192a2c" fill-opacity="1"><g transform="translate(521.226381, 514.307905)"><g><path d="M 33.59375 0.109375 C 28.582031 0.109375 24.179688 -0.609375 20.390625 -2.046875 C 17.347656 -3.265625 14.234375 -5.273438 11.046875 -8.078125 C 7.398438 -11.421875 5.082031 -15.5625 4.09375 -20.5 C 3.71875 -22.09375 3.53125 -23.6875 3.53125 -25.28125 C 3.457031 -25.8125 3.457031 -26.34375 3.53125 -26.875 L 3.53125 -27.671875 L 19.125 -27.4375 L 19.125 -27.5625 C 19.125 -24.75 19.734375 -22.429688 20.953125 -20.609375 C 23.234375 -17.191406 27.445312 -15.484375 33.59375 -15.484375 C 43.457031 -15.484375 48.390625 -17.800781 48.390625 -22.4375 C 48.390625 -26.914062 43.304688 -29.722656 33.140625 -30.859375 C 27.296875 -31.546875 22.285156 -32.757812 18.109375 -34.5 C 14.234375 -36.09375 11.082031 -38.21875 8.65625 -40.875 C 5.238281 -44.675781 3.53125 -49.082031 3.53125 -54.09375 C 3.53125 -57.207031 4.097656 -60.128906 5.234375 -62.859375 C 6.066406 -64.910156 7.207031 -66.769531 8.65625 -68.4375 C 13.96875 -74.4375 22.394531 -77.4375 33.9375 -77.4375 C 40.84375 -77.4375 46.6875 -76.066406 51.46875 -73.328125 C 55.113281 -71.285156 58.078125 -68.554688 60.359375 -65.140625 C 62.023438 -62.554688 63.203125 -59.59375 63.890625 -56.25 C 64.109375 -55.113281 64.257812 -53.976562 64.34375 -52.84375 C 64.414062 -52.457031 64.453125 -52.078125 64.453125 -51.703125 L 64.453125 -51.015625 L 48.859375 -51.015625 L 48.859375 -50.90625 C 48.929688 -53.175781 48.359375 -55.109375 47.140625 -56.703125 C 44.710938 -60.117188 40.3125 -61.828125 33.9375 -61.828125 C 30.0625 -61.828125 26.875 -61.335938 24.375 -60.359375 C 21.257812 -59.140625 19.703125 -57.390625 19.703125 -55.109375 C 19.703125 -50.410156 24.75 -47.488281 34.84375 -46.34375 C 46.226562 -45.050781 54.425781 -41.519531 59.4375 -35.75 C 62.78125 -31.800781 64.453125 -27.363281 64.453125 -22.4375 L 64.453125 -21.40625 C 64.453125 -20.945312 64.414062 -20.492188 64.34375 -20.046875 C 64.257812 -18.828125 64.109375 -17.6875 63.890625 -16.625 C 63.128906 -13.59375 61.6875 -10.898438 59.5625 -8.546875 C 57.050781 -5.734375 53.671875 -3.566406 49.421875 -2.046875 C 45.171875 -0.609375 39.894531 0.109375 33.59375 0.109375 Z M 33.59375 0.109375 "/></g></g></g></svg>