<svg xmlns="http://www.w3.org/2000/svg" xmlns:xlink="http://www.w3.org/1999/xlink" width="1000" zoomAndPan="magnify" viewBox="0 0 750 749.999995" height="1000" preserveAspectRatio="xMidYMid meet" version="1.0"><defs><g/><clipPath id="7602591467"><path d="M 298 311 L 434 311 L 434 447.632812 L 298 447.632812 Z M 298 311 " clip-rule="nonzero"/></clipPath><clipPath id="addf3de2ee"><path d="M 382 238.382812 L 443.417969 238.382812 L 443.417969 300 L 382 300 Z M 382 238.382812 " clip-rule="nonzero"/></clipPath><clipPath id="1e33ae5df3"><path d="M 247.667969 241 L 356 241 L 356 397 L 247.667969 397 Z M 247.667969 241 " clip-rule="nonzero"/></clipPath></defs><path fill="#545454" d="M 319.765625 310.398438 L 435.136719 310.398438 L 435.136719 354.398438 L 319.765625 354.398438 Z M 319.765625 310.398438 " fill-opacity="1" fill-rule="nonzero"/><path fill="#545454" d="M 435.136719 310.398438 L 435.136719 425.769531 L 391.136719 425.769531 L 391.136719 310.398438 Z M 435.136719 310.398438 " fill-opacity="1" fill-rule="nonzero"/><g clip-path="url(#7602591467)"><path fill="#545454" d="M 298.160156 416.109375 L 402.609375 311.660156 L 433.722656 342.773438 L 329.273438 447.222656 Z M 298.160156 416.109375 " fill-opacity="1" fill-rule="nonzero"/></g><g clip-path="url(#addf3de2ee)"><path fill="#545454" d="M 443.558594 268.820312 C 443.558594 269.816406 443.507812 270.808594 443.410156 271.800781 C 443.3125 272.792969 443.167969 273.777344 442.972656 274.753906 C 442.78125 275.730469 442.539062 276.695312 442.25 277.652344 C 441.960938 278.605469 441.625 279.539062 441.242188 280.460938 C 440.863281 281.382812 440.4375 282.28125 439.964844 283.160156 C 439.496094 284.039062 438.984375 284.890625 438.429688 285.722656 C 437.878906 286.550781 437.285156 287.347656 436.652344 288.117188 C 436.019531 288.890625 435.351562 289.625 434.648438 290.332031 C 433.945312 291.035156 433.207031 291.703125 432.4375 292.335938 C 431.664062 292.96875 430.867188 293.5625 430.039062 294.113281 C 429.210938 294.667969 428.355469 295.179688 427.476562 295.648438 C 426.597656 296.117188 425.699219 296.542969 424.777344 296.925781 C 423.859375 297.308594 422.921875 297.640625 421.96875 297.929688 C 421.015625 298.21875 420.050781 298.460938 419.070312 298.65625 C 418.09375 298.851562 417.109375 298.996094 416.117188 299.09375 C 415.128906 299.191406 414.132812 299.242188 413.136719 299.242188 C 412.140625 299.242188 411.148438 299.191406 410.15625 299.09375 C 409.164062 298.996094 408.179688 298.851562 407.203125 298.65625 C 406.226562 298.460938 405.257812 298.21875 404.304688 297.929688 C 403.351562 297.640625 402.414062 297.308594 401.496094 296.925781 C 400.574219 296.542969 399.675781 296.117188 398.796875 295.648438 C 397.917969 295.179688 397.0625 294.667969 396.234375 294.113281 C 395.40625 293.5625 394.609375 292.96875 393.835938 292.335938 C 393.066406 291.703125 392.332031 291.035156 391.625 290.332031 C 390.921875 289.625 390.253906 288.890625 389.621094 288.117188 C 388.988281 287.347656 388.394531 286.550781 387.84375 285.722656 C 387.289062 284.890625 386.777344 284.039062 386.308594 283.160156 C 385.839844 282.28125 385.414062 281.382812 385.03125 280.460938 C 384.648438 279.539062 384.316406 278.605469 384.027344 277.652344 C 383.734375 276.695312 383.496094 275.730469 383.300781 274.753906 C 383.105469 273.777344 382.960938 272.792969 382.863281 271.800781 C 382.765625 270.808594 382.714844 269.816406 382.714844 268.820312 C 382.714844 267.824219 382.765625 266.828125 382.863281 265.835938 C 382.960938 264.847656 383.105469 263.863281 383.300781 262.882812 C 383.496094 261.90625 383.734375 260.941406 384.027344 259.988281 C 384.316406 259.035156 384.648438 258.097656 385.03125 257.179688 C 385.414062 256.257812 385.839844 255.359375 386.308594 254.480469 C 386.777344 253.601562 387.289062 252.746094 387.84375 251.917969 C 388.394531 251.089844 388.988281 250.289062 389.621094 249.519531 C 390.253906 248.75 390.921875 248.011719 391.625 247.308594 C 392.332031 246.605469 393.066406 245.933594 393.835938 245.304688 C 394.609375 244.671875 395.40625 244.078125 396.234375 243.523438 C 397.0625 242.972656 397.917969 242.460938 398.796875 241.988281 C 399.675781 241.519531 400.574219 241.09375 401.496094 240.714844 C 402.414062 240.332031 403.351562 239.996094 404.304688 239.707031 C 405.257812 239.417969 406.226562 239.175781 407.203125 238.984375 C 408.179688 238.789062 409.164062 238.640625 410.15625 238.542969 C 411.148438 238.445312 412.140625 238.398438 413.136719 238.398438 C 414.132812 238.398438 415.128906 238.445312 416.117188 238.542969 C 417.109375 238.640625 418.09375 238.789062 419.070312 238.984375 C 420.050781 239.175781 421.015625 239.417969 421.96875 239.707031 C 422.921875 239.996094 423.859375 240.332031 424.777344 240.714844 C 425.699219 241.09375 426.597656 241.519531 427.476562 241.988281 C 428.355469 242.460938 429.210938 242.972656 430.039062 243.523438 C 430.867188 244.078125 431.664062 244.671875 432.4375 245.304688 C 433.207031 245.933594 433.945312 246.605469 434.648438 247.308594 C 435.351562 248.011719 436.019531 248.75 436.652344 249.519531 C 437.285156 250.289062 437.878906 251.089844 438.429688 251.917969 C 438.984375 252.746094 439.496094 253.601562 439.964844 254.480469 C 440.4375 255.359375 440.863281 256.257812 441.242188 257.179688 C 441.625 258.097656 441.960938 259.035156 442.25 259.988281 C 442.539062 260.941406 442.78125 261.90625 442.972656 262.882812 C 443.167969 263.863281 443.3125 264.847656 443.410156 265.835938 C 443.507812 266.828125 443.558594 267.824219 443.558594 268.820312 Z M 443.558594 268.820312 " fill-opacity="1" fill-rule="nonzero"/></g><g clip-path="url(#1e33ae5df3)"><path fill="#545454" d="M 355.132812 242.609375 C 335.566406 239.050781 315.371094 241.988281 297.632812 250.976562 C 279.890625 259.964844 265.578125 274.503906 256.871094 292.386719 C 248.164062 310.265625 245.539062 330.5 249.40625 350.007812 C 253.269531 369.515625 262.488281 383.402344 277.351562 396.613281 L 305.871094 369.382812 C 297.78125 362.191406 292.261719 352.554688 290.160156 341.9375 C 288.058594 331.320312 289.484375 320.304688 294.222656 310.574219 C 298.960938 300.84375 306.75 292.929688 316.40625 288.039062 C 326.0625 283.148438 337.050781 281.550781 347.699219 283.484375 Z M 355.132812 242.609375 " fill-opacity="1" fill-rule="nonzero"/></g><g fill="#545454" fill-opacity="1"><g transform="translate(131.484795, 544.307896)"><g><path d="M 78.578125 -42.9375 L 78.578125 0 L 63.765625 0 L 63.765625 -5.921875 C 57.160156 -1.210938 49.757812 1.140625 41.5625 1.140625 C 31.007812 1.140625 22.015625 -2.578125 14.578125 -10.015625 C 7.140625 -17.460938 3.421875 -26.460938 3.421875 -37.015625 C 3.421875 -47.566406 7.140625 -56.5625 14.578125 -64 C 22.015625 -71.4375 31.007812 -75.15625 41.5625 -75.15625 C 50.976562 -75.15625 59.253906 -72.117188 66.390625 -66.046875 L 55 -54.78125 C 50.976562 -57.738281 46.5 -59.21875 41.5625 -59.21875 C 35.34375 -59.21875 30.144531 -57.050781 25.96875 -52.71875 C 21.5625 -48.320312 19.359375 -43.085938 19.359375 -37.015625 C 19.359375 -30.941406 21.5625 -25.703125 25.96875 -21.296875 C 30.289062 -16.960938 35.488281 -14.796875 41.5625 -14.796875 C 47.5625 -14.796875 52.800781 -16.960938 57.28125 -21.296875 C 57.425781 -21.441406 57.578125 -21.59375 57.734375 -21.75 L 58.296875 -22.3125 C 58.828125 -22.925781 59.320312 -23.5 59.78125 -24.03125 C 61.070312 -25.625 61.945312 -26.988281 62.40625 -28.125 L 45.328125 -28.125 L 45.328125 -42.9375 Z M 63.65625 -28.125 L 63.765625 -28.015625 L 63.765625 -28.125 Z M 63.65625 -28.125 "/></g></g></g><g fill="#545454" fill-opacity="1"><g transform="translate(213.4621, 544.307896)"><g><path d="M 21.1875 -29.03125 L 21.1875 -15.9375 L 55.109375 -15.9375 L 55.109375 0 L 3.421875 0 L 3.421875 -74.015625 L 55.109375 -74.015625 L 55.109375 -58.078125 L 21.1875 -58.078125 L 21.1875 -44.984375 L 49.984375 -44.984375 L 49.984375 -29.03125 Z M 21.1875 -29.03125 "/></g></g></g><g fill="#545454" fill-opacity="1"><g transform="translate(271.9848, 544.307896)"><g><path d="M 51.8125 -74.015625 L 69.578125 -74.015625 L 69.578125 0 L 20.5 -36.09375 L 20.5 0 L 2.734375 0 L 2.734375 -74.015625 L 51.8125 -36.21875 Z M 51.8125 -74.015625 "/></g></g></g><g fill="#545454" fill-opacity="1"><g transform="translate(344.284234, 544.307896)"><g><path d="M 21.1875 -29.03125 L 21.1875 -15.9375 L 55.109375 -15.9375 L 55.109375 0 L 3.421875 0 L 3.421875 -74.015625 L 55.109375 -74.015625 L 55.109375 -58.078125 L 21.1875 -58.078125 L 21.1875 -44.984375 L 49.984375 -44.984375 L 49.984375 -29.03125 Z M 21.1875 -29.03125 "/></g></g></g><g fill="#545454" fill-opacity="1"><g transform="translate(402.806933, 544.307896)"><g><path d="M 33.59375 0.109375 C 28.582031 0.109375 24.179688 -0.609375 20.390625 -2.046875 C 17.347656 -3.265625 14.234375 -5.273438 11.046875 -8.078125 C 7.398438 -11.421875 5.082031 -15.5625 4.09375 -20.5 C 3.71875 -22.09375 3.53125 -23.6875 3.53125 -25.28125 C 3.457031 -25.8125 3.457031 -26.34375 3.53125 -26.875 L 3.53125 -27.671875 L 19.125 -27.4375 L 19.125 -27.5625 C 19.125 -24.75 19.734375 -22.429688 20.953125 -20.609375 C 23.234375 -17.191406 27.445312 -15.484375 33.59375 -15.484375 C 43.457031 -15.484375 48.390625 -17.800781 48.390625 -22.4375 C 48.390625 -26.914062 43.304688 -29.722656 33.140625 -30.859375 C 27.296875 -31.546875 22.285156 -32.757812 18.109375 -34.5 C 14.234375 -36.09375 11.082031 -38.21875 8.65625 -40.875 C 5.238281 -44.675781 3.53125 -49.082031 3.53125 -54.09375 C 3.53125 -57.207031 4.097656 -60.128906 5.234375 -62.859375 C 6.066406 -64.910156 7.207031 -66.769531 8.65625 -68.4375 C 13.96875 -74.4375 22.394531 -77.4375 33.9375 -77.4375 C 40.84375 -77.4375 46.6875 -76.066406 51.46875 -73.328125 C 55.113281 -71.285156 58.078125 -68.554688 60.359375 -65.140625 C 62.023438 -62.554688 63.203125 -59.59375 63.890625 -56.25 C 64.109375 -55.113281 64.257812 -53.976562 64.34375 -52.84375 C 64.414062 -52.457031 64.453125 -52.078125 64.453125 -51.703125 L 64.453125 -51.015625 L 48.859375 -51.015625 L 48.859375 -50.90625 C 48.929688 -53.175781 48.359375 -55.109375 47.140625 -56.703125 C 44.710938 -60.117188 40.3125 -61.828125 33.9375 -61.828125 C 30.0625 -61.828125 26.875 -61.335938 24.375 -60.359375 C 21.257812 -59.140625 19.703125 -57.390625 19.703125 -55.109375 C 19.703125 -50.410156 24.75 -47.488281 34.84375 -46.34375 C 46.226562 -45.050781 54.425781 -41.519531 59.4375 -35.75 C 62.78125 -31.800781 64.453125 -27.363281 64.453125 -22.4375 L 64.453125 -21.40625 C 64.453125 -20.945312 64.414062 -20.492188 64.34375 -20.046875 C 64.257812 -18.828125 64.109375 -17.6875 63.890625 -16.625 C 63.128906 -13.59375 61.6875 -10.898438 59.5625 -8.546875 C 57.050781 -5.734375 53.671875 -3.566406 49.421875 -2.046875 C 45.171875 -0.609375 39.894531 0.109375 33.59375 0.109375 Z M 33.59375 0.109375 "/></g></g></g><g fill="#545454" fill-opacity="1"><g transform="translate(470.665936, 544.307896)"><g><path d="M 1.703125 -74.015625 L 19.46875 -74.015625 L 19.46875 0 L 1.703125 0 Z M 1.703125 -74.015625 "/></g></g></g><g fill="#545454" fill-opacity="1"><g transform="translate(491.843418, 544.307896)"><g><path d="M 33.59375 0.109375 C 28.582031 0.109375 24.179688 -0.609375 20.390625 -2.046875 C 17.347656 -3.265625 14.234375 -5.273438 11.046875 -8.078125 C 7.398438 -11.421875 5.082031 -15.5625 4.09375 -20.5 C 3.71875 -22.09375 3.53125 -23.6875 3.53125 -25.28125 C 3.457031 -25.8125 3.457031 -26.34375 3.53125 -26.875 L 3.53125 -27.671875 L 19.125 -27.4375 L 19.125 -27.5625 C 19.125 -24.75 19.734375 -22.429688 20.953125 -20.609375 C 23.234375 -17.191406 27.445312 -15.484375 33.59375 -15.484375 C 43.457031 -15.484375 48.390625 -17.800781 48.390625 -22.4375 C 48.390625 -26.914062 43.304688 -29.722656 33.140625 -30.859375 C 27.296875 -31.546875 22.285156 -32.757812 18.109375 -34.5 C 14.234375 -36.09375 11.082031 -38.21875 8.65625 -40.875 C 5.238281 -44.675781 3.53125 -49.082031 3.53125 -54.09375 C 3.53125 -57.207031 4.097656 -60.128906 5.234375 -62.859375 C 6.066406 -64.910156 7.207031 -66.769531 8.65625 -68.4375 C 13.96875 -74.4375 22.394531 -77.4375 33.9375 -77.4375 C 40.84375 -77.4375 46.6875 -76.066406 51.46875 -73.328125 C 55.113281 -71.285156 58.078125 -68.554688 60.359375 -65.140625 C 62.023438 -62.554688 63.203125 -59.59375 63.890625 -56.25 C 64.109375 -55.113281 64.257812 -53.976562 64.34375 -52.84375 C 64.414062 -52.457031 64.453125 -52.078125 64.453125 -51.703125 L 64.453125 -51.015625 L 48.859375 -51.015625 L 48.859375 -50.90625 C 48.929688 -53.175781 48.359375 -55.109375 47.140625 -56.703125 C 44.710938 -60.117188 40.3125 -61.828125 33.9375 -61.828125 C 30.0625 -61.828125 26.875 -61.335938 24.375 -60.359375 C 21.257812 -59.140625 19.703125 -57.390625 19.703125 -55.109375 C 19.703125 -50.410156 24.75 -47.488281 34.84375 -46.34375 C 46.226562 -45.050781 54.425781 -41.519531 59.4375 -35.75 C 62.78125 -31.800781 64.453125 -27.363281 64.453125 -22.4375 L 64.453125 -21.40625 C 64.453125 -20.945312 64.414062 -20.492188 64.34375 -20.046875 C 64.257812 -18.828125 64.109375 -17.6875 63.890625 -16.625 C 63.128906 -13.59375 61.6875 -10.898438 59.5625 -8.546875 C 57.050781 -5.734375 53.671875 -3.566406 49.421875 -2.046875 C 45.171875 -0.609375 39.894531 0.109375 33.59375 0.109375 Z M 33.59375 0.109375 "/></g></g></g></svg>