<svg xmlns="http://www.w3.org/2000/svg" xmlns:xlink="http://www.w3.org/1999/xlink" width="1000" zoomAndPan="magnify" viewBox="0 0 750 749.999995" height="1000" preserveAspectRatio="xMidYMid meet" version="1.0"><defs><g/><clipPath id="08f139988a"><path d="M 298 311 L 434 311 L 434 447.632812 L 298 447.632812 Z M 298 311 " clip-rule="nonzero"/></clipPath><clipPath id="bcb8d73cac"><path d="M 382 238.382812 L 443.417969 238.382812 L 443.417969 300 L 382 300 Z M 382 238.382812 " clip-rule="nonzero"/></clipPath><clipPath id="1e761ba5e4"><path d="M 247.667969 241 L 356 241 L 356 397 L 247.667969 397 Z M 247.667969 241 " clip-rule="nonzero"/></clipPath></defs><path fill="#ffffff" d="M 319.714844 310.5 L 435.003906 310.5 L 435.003906 354.5625 L 319.714844 354.5625 Z M 319.714844 310.5 " fill-opacity="1" fill-rule="nonzero"/><path fill="#ffffff" d="M 435 310.5 L 435 426.03125 L 391.03125 426.03125 L 391.03125 310.5 Z M 435 310.5 " fill-opacity="1" fill-rule="nonzero"/><g clip-path="url(#08f139988a)"><path fill="#ffffff" d="M 298.125 416.359375 L 402.496094 311.765625 L 433.589844 342.921875 L 329.214844 447.515625 Z M 298.125 416.359375 " fill-opacity="1" fill-rule="nonzero"/></g><g clip-path="url(#bcb8d73cac)"><path fill="#ffffff" d="M 443.417969 268.863281 C 443.417969 269.859375 443.367188 270.855469 443.269531 271.847656 C 443.175781 272.839844 443.027344 273.828125 442.832031 274.804688 C 442.640625 275.785156 442.398438 276.75 442.109375 277.707031 C 441.820312 278.660156 441.484375 279.597656 441.105469 280.519531 C 440.722656 281.441406 440.296875 282.34375 439.828125 283.222656 C 439.359375 284.101562 438.847656 284.957031 438.292969 285.789062 C 437.742188 286.617188 437.148438 287.417969 436.515625 288.1875 C 435.886719 288.960938 435.21875 289.699219 434.515625 290.402344 C 433.808594 291.109375 433.074219 291.777344 432.304688 292.410156 C 431.535156 293.042969 430.734375 293.636719 429.90625 294.191406 C 429.078125 294.746094 428.226562 295.257812 427.347656 295.730469 C 426.46875 296.199219 425.570312 296.625 424.652344 297.007812 C 423.730469 297.390625 422.796875 297.726562 421.84375 298.015625 C 420.890625 298.304688 419.925781 298.546875 418.949219 298.742188 C 417.972656 298.9375 416.988281 299.082031 415.996094 299.179688 C 415.007812 299.277344 414.015625 299.328125 413.019531 299.328125 C 412.023438 299.328125 411.03125 299.277344 410.039062 299.179688 C 409.046875 299.082031 408.0625 298.9375 407.085938 298.742188 C 406.109375 298.546875 405.144531 298.304688 404.195312 298.015625 C 403.242188 297.726562 402.304688 297.390625 401.382812 297.007812 C 400.464844 296.625 399.566406 296.199219 398.6875 295.730469 C 397.808594 295.257812 396.957031 294.746094 396.128906 294.191406 C 395.300781 293.636719 394.503906 293.042969 393.734375 292.410156 C 392.964844 291.777344 392.226562 291.109375 391.523438 290.402344 C 390.820312 289.699219 390.152344 288.960938 389.519531 288.1875 C 388.886719 287.417969 388.296875 286.617188 387.742188 285.789062 C 387.1875 284.957031 386.675781 284.101562 386.207031 283.222656 C 385.738281 282.34375 385.3125 281.441406 384.933594 280.519531 C 384.550781 279.597656 384.214844 278.660156 383.925781 277.707031 C 383.636719 276.75 383.398438 275.785156 383.203125 274.804688 C 383.007812 273.828125 382.863281 272.839844 382.765625 271.847656 C 382.667969 270.855469 382.617188 269.859375 382.617188 268.863281 C 382.617188 267.863281 382.667969 266.871094 382.765625 265.875 C 382.863281 264.882812 383.007812 263.898438 383.203125 262.917969 C 383.398438 261.941406 383.636719 260.972656 383.925781 260.019531 C 384.214844 259.0625 384.550781 258.125 384.933594 257.203125 C 385.3125 256.28125 385.738281 255.382812 386.207031 254.5 C 386.675781 253.621094 387.1875 252.765625 387.742188 251.9375 C 388.296875 251.109375 388.886719 250.308594 389.519531 249.535156 C 390.152344 248.765625 390.820312 248.027344 391.523438 247.320312 C 392.226562 246.617188 392.964844 245.945312 393.734375 245.3125 C 394.503906 244.679688 395.300781 244.085938 396.128906 243.53125 C 396.957031 242.976562 397.808594 242.464844 398.6875 241.996094 C 399.566406 241.523438 400.464844 241.097656 401.382812 240.71875 C 402.304688 240.335938 403.242188 240 404.195312 239.710938 C 405.144531 239.421875 406.109375 239.179688 407.085938 238.984375 C 408.0625 238.789062 409.046875 238.644531 410.039062 238.542969 C 411.03125 238.445312 412.023438 238.398438 413.019531 238.398438 C 414.015625 238.398438 415.007812 238.445312 415.996094 238.542969 C 416.988281 238.644531 417.972656 238.789062 418.949219 238.984375 C 419.925781 239.179688 420.890625 239.421875 421.84375 239.710938 C 422.796875 240 423.730469 240.335938 424.652344 240.71875 C 425.570312 241.097656 426.46875 241.523438 427.347656 241.996094 C 428.226562 242.464844 429.078125 242.976562 429.90625 243.53125 C 430.734375 244.085938 431.535156 244.679688 432.304688 245.3125 C 433.074219 245.945312 433.808594 246.617188 434.515625 247.320312 C 435.21875 248.027344 435.886719 248.765625 436.515625 249.535156 C 437.148438 250.308594 437.742188 251.109375 438.292969 251.9375 C 438.847656 252.765625 439.359375 253.621094 439.828125 254.5 C 440.296875 255.382812 440.722656 256.28125 441.105469 257.203125 C 441.484375 258.125 441.820312 259.0625 442.109375 260.019531 C 442.398438 260.972656 442.640625 261.941406 442.832031 262.917969 C 443.027344 263.898438 443.175781 264.882812 443.269531 265.875 C 443.367188 266.871094 443.417969 267.863281 443.417969 268.863281 Z M 443.417969 268.863281 " fill-opacity="1" fill-rule="nonzero"/></g><g clip-path="url(#1e761ba5e4)"><path fill="#ffffff" d="M 355.054688 242.613281 C 335.503906 239.050781 315.324219 241.996094 297.597656 250.996094 C 279.867188 259.992188 265.5625 274.554688 256.863281 292.460938 C 248.160156 310.363281 245.542969 330.628906 249.402344 350.164062 C 253.265625 369.699219 262.476562 383.605469 277.332031 396.835938 L 305.828125 369.566406 C 297.742188 362.363281 292.230469 352.714844 290.128906 342.082031 C 288.027344 331.449219 289.453125 320.421875 294.1875 310.675781 C 298.925781 300.933594 306.710938 293.007812 316.359375 288.109375 C 326.003906 283.210938 336.988281 281.609375 347.628906 283.546875 Z M 355.054688 242.613281 " fill-opacity="1" fill-rule="nonzero"/></g><g fill="#ffffff" fill-opacity="1"><g transform="translate(131.484795, 544.307968)"><g><path d="M 78.578125 -42.9375 L 78.578125 0 L 63.765625 0 L 63.765625 -5.921875 C 57.160156 -1.210938 49.757812 1.140625 41.5625 1.140625 C 31.007812 1.140625 22.015625 -2.578125 14.578125 -10.015625 C 7.140625 -17.460938 3.421875 -26.460938 3.421875 -37.015625 C 3.421875 -47.566406 7.140625 -56.5625 14.578125 -64 C 22.015625 -71.4375 31.007812 -75.15625 41.5625 -75.15625 C 50.976562 -75.15625 59.253906 -72.117188 66.390625 -66.046875 L 55 -54.78125 C 50.976562 -57.738281 46.5 -59.21875 41.5625 -59.21875 C 35.34375 -59.21875 30.144531 -57.050781 25.96875 -52.71875 C 21.5625 -48.320312 19.359375 -43.085938 19.359375 -37.015625 C 19.359375 -30.941406 21.5625 -25.703125 25.96875 -21.296875 C 30.289062 -16.960938 35.488281 -14.796875 41.5625 -14.796875 C 47.5625 -14.796875 52.800781 -16.960938 57.28125 -21.296875 C 57.425781 -21.441406 57.578125 -21.59375 57.734375 -21.75 L 58.296875 -22.3125 C 58.828125 -22.925781 59.320312 -23.5 59.78125 -24.03125 C 61.070312 -25.625 61.945312 -26.988281 62.40625 -28.125 L 45.328125 -28.125 L 45.328125 -42.9375 Z M 63.65625 -28.125 L 63.765625 -28.015625 L 63.765625 -28.125 Z M 63.65625 -28.125 "/></g></g></g><g fill="#ffffff" fill-opacity="1"><g transform="translate(213.4621, 544.307968)"><g><path d="M 21.1875 -29.03125 L 21.1875 -15.9375 L 55.109375 -15.9375 L 55.109375 0 L 3.421875 0 L 3.421875 -74.015625 L 55.109375 -74.015625 L 55.109375 -58.078125 L 21.1875 -58.078125 L 21.1875 -44.984375 L 49.984375 -44.984375 L 49.984375 -29.03125 Z M 21.1875 -29.03125 "/></g></g></g><g fill="#ffffff" fill-opacity="1"><g transform="translate(271.9848, 544.307968)"><g><path d="M 51.8125 -74.015625 L 69.578125 -74.015625 L 69.578125 0 L 20.5 -36.09375 L 20.5 0 L 2.734375 0 L 2.734375 -74.015625 L 51.8125 -36.21875 Z M 51.8125 -74.015625 "/></g></g></g><g fill="#ffffff" fill-opacity="1"><g transform="translate(344.284234, 544.307968)"><g><path d="M 21.1875 -29.03125 L 21.1875 -15.9375 L 55.109375 -15.9375 L 55.109375 0 L 3.421875 0 L 3.421875 -74.015625 L 55.109375 -74.015625 L 55.109375 -58.078125 L 21.1875 -58.078125 L 21.1875 -44.984375 L 49.984375 -44.984375 L 49.984375 -29.03125 Z M 21.1875 -29.03125 "/></g></g></g><g fill="#ffffff" fill-opacity="1"><g transform="translate(402.806933, 544.307968)"><g><path d="M 33.59375 0.109375 C 28.582031 0.109375 24.179688 -0.609375 20.390625 -2.046875 C 17.347656 -3.265625 14.234375 -5.273438 11.046875 -8.078125 C 7.398438 -11.421875 5.082031 -15.5625 4.09375 -20.5 C 3.71875 -22.09375 3.53125 -23.6875 3.53125 -25.28125 C 3.457031 -25.8125 3.457031 -26.34375 3.53125 -26.875 L 3.53125 -27.671875 L 19.125 -27.4375 L 19.125 -27.5625 C 19.125 -24.75 19.734375 -22.429688 20.953125 -20.609375 C 23.234375 -17.191406 27.445312 -15.484375 33.59375 -15.484375 C 43.457031 -15.484375 48.390625 -17.800781 48.390625 -22.4375 C 48.390625 -26.914062 43.304688 -29.722656 33.140625 -30.859375 C 27.296875 -31.546875 22.285156 -32.757812 18.109375 -34.5 C 14.234375 -36.09375 11.082031 -38.21875 8.65625 -40.875 C 5.238281 -44.675781 3.53125 -49.082031 3.53125 -54.09375 C 3.53125 -57.207031 4.097656 -60.128906 5.234375 -62.859375 C 6.066406 -64.910156 7.207031 -66.769531 8.65625 -68.4375 C 13.96875 -74.4375 22.394531 -77.4375 33.9375 -77.4375 C 40.84375 -77.4375 46.6875 -76.066406 51.46875 -73.328125 C 55.113281 -71.285156 58.078125 -68.554688 60.359375 -65.140625 C 62.023438 -62.554688 63.203125 -59.59375 63.890625 -56.25 C 64.109375 -55.113281 64.257812 -53.976562 64.34375 -52.84375 C 64.414062 -52.457031 64.453125 -52.078125 64.453125 -51.703125 L 64.453125 -51.015625 L 48.859375 -51.015625 L 48.859375 -50.90625 C 48.929688 -53.175781 48.359375 -55.109375 47.140625 -56.703125 C 44.710938 -60.117188 40.3125 -61.828125 33.9375 -61.828125 C 30.0625 -61.828125 26.875 -61.335938 24.375 -60.359375 C 21.257812 -59.140625 19.703125 -57.390625 19.703125 -55.109375 C 19.703125 -50.410156 24.75 -47.488281 34.84375 -46.34375 C 46.226562 -45.050781 54.425781 -41.519531 59.4375 -35.75 C 62.78125 -31.800781 64.453125 -27.363281 64.453125 -22.4375 L 64.453125 -21.40625 C 64.453125 -20.945312 64.414062 -20.492188 64.34375 -20.046875 C 64.257812 -18.828125 64.109375 -17.6875 63.890625 -16.625 C 63.128906 -13.59375 61.6875 -10.898438 59.5625 -8.546875 C 57.050781 -5.734375 53.671875 -3.566406 49.421875 -2.046875 C 45.171875 -0.609375 39.894531 0.109375 33.59375 0.109375 Z M 33.59375 0.109375 "/></g></g></g><g fill="#ffffff" fill-opacity="1"><g transform="translate(470.665936, 544.307968)"><g><path d="M 1.703125 -74.015625 L 19.46875 -74.015625 L 19.46875 0 L 1.703125 0 Z M 1.703125 -74.015625 "/></g></g></g><g fill="#ffffff" fill-opacity="1"><g transform="translate(491.843418, 544.307968)"><g><path d="M 33.59375 0.109375 C 28.582031 0.109375 24.179688 -0.609375 20.390625 -2.046875 C 17.347656 -3.265625 14.234375 -5.273438 11.046875 -8.078125 C 7.398438 -11.421875 5.082031 -15.5625 4.09375 -20.5 C 3.71875 -22.09375 3.53125 -23.6875 3.53125 -25.28125 C 3.457031 -25.8125 3.457031 -26.34375 3.53125 -26.875 L 3.53125 -27.671875 L 19.125 -27.4375 L 19.125 -27.5625 C 19.125 -24.75 19.734375 -22.429688 20.953125 -20.609375 C 23.234375 -17.191406 27.445312 -15.484375 33.59375 -15.484375 C 43.457031 -15.484375 48.390625 -17.800781 48.390625 -22.4375 C 48.390625 -26.914062 43.304688 -29.722656 33.140625 -30.859375 C 27.296875 -31.546875 22.285156 -32.757812 18.109375 -34.5 C 14.234375 -36.09375 11.082031 -38.21875 8.65625 -40.875 C 5.238281 -44.675781 3.53125 -49.082031 3.53125 -54.09375 C 3.53125 -57.207031 4.097656 -60.128906 5.234375 -62.859375 C 6.066406 -64.910156 7.207031 -66.769531 8.65625 -68.4375 C 13.96875 -74.4375 22.394531 -77.4375 33.9375 -77.4375 C 40.84375 -77.4375 46.6875 -76.066406 51.46875 -73.328125 C 55.113281 -71.285156 58.078125 -68.554688 60.359375 -65.140625 C 62.023438 -62.554688 63.203125 -59.59375 63.890625 -56.25 C 64.109375 -55.113281 64.257812 -53.976562 64.34375 -52.84375 C 64.414062 -52.457031 64.453125 -52.078125 64.453125 -51.703125 L 64.453125 -51.015625 L 48.859375 -51.015625 L 48.859375 -50.90625 C 48.929688 -53.175781 48.359375 -55.109375 47.140625 -56.703125 C 44.710938 -60.117188 40.3125 -61.828125 33.9375 -61.828125 C 30.0625 -61.828125 26.875 -61.335938 24.375 -60.359375 C 21.257812 -59.140625 19.703125 -57.390625 19.703125 -55.109375 C 19.703125 -50.410156 24.75 -47.488281 34.84375 -46.34375 C 46.226562 -45.050781 54.425781 -41.519531 59.4375 -35.75 C 62.78125 -31.800781 64.453125 -27.363281 64.453125 -22.4375 L 64.453125 -21.40625 C 64.453125 -20.945312 64.414062 -20.492188 64.34375 -20.046875 C 64.257812 -18.828125 64.109375 -17.6875 63.890625 -16.625 C 63.128906 -13.59375 61.6875 -10.898438 59.5625 -8.546875 C 57.050781 -5.734375 53.671875 -3.566406 49.421875 -2.046875 C 45.171875 -0.609375 39.894531 0.109375 33.59375 0.109375 Z M 33.59375 0.109375 "/></g></g></g></svg>