<svg xmlns="http://www.w3.org/2000/svg" xmlns:xlink="http://www.w3.org/1999/xlink" width="1000" zoomAndPan="magnify" viewBox="0 0 750 749.999995" height="1000" preserveAspectRatio="xMidYMid meet" version="1.0"><defs><clipPath id="e3f583b036"><path d="M 225 260.523438 L 426 260.523438 L 426 413.523438 L 225 413.523438 Z M 225 260.523438 " clip-rule="nonzero"/></clipPath><clipPath id="e35549d3fa"><path d="M 442 330 L 525 330 L 525 413.523438 L 442 413.523438 Z M 442 330 " clip-rule="nonzero"/></clipPath><clipPath id="f98a9ebbcf"><path d="M 225 438.34375 L 278 438.34375 L 278 489.34375 L 225 489.34375 Z M 225 438.34375 " clip-rule="nonzero"/></clipPath><clipPath id="1d7b81c714"><path d="M 285 438.34375 L 294 438.34375 L 294 489.34375 L 285 489.34375 Z M 285 438.34375 " clip-rule="nonzero"/></clipPath><clipPath id="61271243ad"><path d="M 340 438.34375 L 394 438.34375 L 394 489.34375 L 340 489.34375 Z M 340 438.34375 " clip-rule="nonzero"/></clipPath><clipPath id="5217af1636"><path d="M 401 438.34375 L 461 438.34375 L 461 489.34375 L 401 489.34375 Z M 401 438.34375 " clip-rule="nonzero"/></clipPath><clipPath id="ff56ae39e1"><path d="M 469 438.34375 L 525 438.34375 L 525 489.34375 L 469 489.34375 Z M 469 438.34375 " clip-rule="nonzero"/></clipPath></defs><rect x="-75" width="900" fill="#ffffff" y="-74.999999" height="899.999994" fill-opacity="1"/><rect x="-75" width="900" fill="#ffffff" y="-74.999999" height="899.999994" fill-opacity="1"/><g clip-path="url(#e3f583b036)"><path fill="#f69605" d="M 225.003906 289.59375 L 259.777344 260.523438 L 425.863281 260.523438 L 425.863281 413.664062 L 389.535156 413.664062 L 389.535156 307.765625 L 368.773438 307.765625 L 290.917969 413.664062 L 225.003906 413.664062 L 302.855469 289.59375 Z M 225.003906 289.59375 " fill-opacity="1" fill-rule="nonzero"/></g><g clip-path="url(#e35549d3fa)"><path fill="#f69605" d="M 524.996094 372.097656 C 524.996094 373.460938 524.929688 374.816406 524.796875 376.171875 C 524.664062 377.527344 524.464844 378.871094 524.199219 380.207031 C 523.933594 381.542969 523.601562 382.863281 523.207031 384.164062 C 522.8125 385.46875 522.355469 386.746094 521.835938 388.003906 C 521.316406 389.261719 520.738281 390.492188 520.09375 391.691406 C 519.453125 392.894531 518.757812 394.058594 518.003906 395.191406 C 517.246094 396.324219 516.4375 397.414062 515.574219 398.46875 C 514.714844 399.519531 513.800781 400.527344 512.839844 401.492188 C 511.878906 402.453125 510.875 403.367188 509.824219 404.230469 C 508.773438 405.09375 507.683594 405.902344 506.550781 406.660156 C 505.421875 407.417969 504.257812 408.117188 503.058594 408.757812 C 501.859375 409.398438 500.632812 409.980469 499.378906 410.5 C 498.121094 411.023438 496.84375 411.480469 495.542969 411.875 C 494.242188 412.269531 492.925781 412.601562 491.59375 412.867188 C 490.261719 413.132812 488.917969 413.332031 487.566406 413.464844 C 486.210938 413.597656 484.855469 413.664062 483.496094 413.664062 C 482.136719 413.664062 480.78125 413.597656 479.429688 413.464844 C 478.078125 413.332031 476.734375 413.132812 475.402344 412.867188 C 474.070312 412.601562 472.75 412.269531 471.449219 411.875 C 470.152344 411.480469 468.871094 411.023438 467.617188 410.5 C 466.359375 409.980469 465.132812 409.398438 463.933594 408.757812 C 462.738281 408.117188 461.570312 407.417969 460.441406 406.660156 C 459.3125 405.902344 458.222656 405.09375 457.171875 404.230469 C 456.121094 403.367188 455.113281 402.453125 454.152344 401.492188 C 453.191406 400.527344 452.28125 399.519531 451.417969 398.46875 C 450.554688 397.417969 449.746094 396.324219 448.992188 395.191406 C 448.238281 394.058594 447.539062 392.894531 446.898438 391.691406 C 446.257812 390.492188 445.679688 389.261719 445.15625 388.003906 C 444.636719 386.746094 444.179688 385.46875 443.785156 384.164062 C 443.390625 382.863281 443.0625 381.542969 442.796875 380.207031 C 442.53125 378.871094 442.332031 377.527344 442.199219 376.171875 C 442.066406 374.816406 442 373.460938 442 372.097656 C 442 370.738281 442.066406 369.378906 442.199219 368.023438 C 442.332031 366.667969 442.53125 365.324219 442.796875 363.988281 C 443.0625 362.652344 443.390625 361.335938 443.785156 360.03125 C 444.179688 358.730469 444.636719 357.449219 445.15625 356.191406 C 445.679688 354.933594 446.257812 353.703125 446.898438 352.503906 C 447.539062 351.304688 448.238281 350.136719 448.992188 349.003906 C 449.746094 347.875 450.554688 346.78125 451.417969 345.730469 C 452.28125 344.675781 453.191406 343.667969 454.152344 342.707031 C 455.113281 341.742188 456.121094 340.832031 457.171875 339.96875 C 458.222656 339.105469 459.3125 338.292969 460.441406 337.539062 C 461.570312 336.78125 462.738281 336.082031 463.933594 335.441406 C 465.132812 334.796875 466.359375 334.21875 467.617188 333.695312 C 468.871094 333.175781 470.152344 332.71875 471.449219 332.320312 C 472.75 331.925781 474.070312 331.597656 475.402344 331.332031 C 476.734375 331.066406 478.078125 330.867188 479.429688 330.730469 C 480.78125 330.597656 482.136719 330.53125 483.496094 330.53125 C 484.855469 330.53125 486.210938 330.597656 487.566406 330.730469 C 488.917969 330.867188 490.261719 331.066406 491.59375 331.332031 C 492.925781 331.597656 494.242188 331.925781 495.542969 332.320312 C 496.84375 332.71875 498.121094 333.175781 499.378906 333.695312 C 500.632812 334.21875 501.859375 334.796875 503.058594 335.441406 C 504.257812 336.082031 505.421875 336.78125 506.550781 337.539062 C 507.683594 338.292969 508.773438 339.105469 509.824219 339.96875 C 510.875 340.832031 511.878906 341.742188 512.839844 342.707031 C 513.800781 343.667969 514.714844 344.675781 515.574219 345.730469 C 516.4375 346.78125 517.246094 347.875 518.003906 349.003906 C 518.757812 350.136719 519.453125 351.304688 520.09375 352.503906 C 520.738281 353.703125 521.316406 354.933594 521.835938 356.191406 C 522.355469 357.449219 522.8125 358.730469 523.207031 360.03125 C 523.601562 361.335938 523.933594 362.652344 524.199219 363.988281 C 524.464844 365.324219 524.664062 366.667969 524.796875 368.023438 C 524.929688 369.378906 524.996094 370.738281 524.996094 372.097656 Z M 524.996094 372.097656 " fill-opacity="1" fill-rule="nonzero"/></g><g clip-path="url(#f98a9ebbcf)"><path fill="#f69605" d="M 225.011719 474.8125 C 225.011719 471.746094 225.894531 468.933594 227.664062 466.378906 C 229.488281 463.820312 231.882812 462.03125 234.847656 461.007812 C 236.386719 460.441406 238.011719 460.15625 239.722656 460.15625 L 262.726562 460.15625 C 263.527344 460.15625 264.265625 460.042969 264.953125 459.816406 C 265.691406 459.589844 266.347656 459.25 266.917969 458.792969 C 267.546875 458.339844 268.085938 457.828125 268.542969 457.261719 C 269 456.691406 269.34375 456.039062 269.570312 455.300781 C 269.796875 454.5625 269.910156 453.824219 269.910156 453.085938 L 269.910156 452.914062 C 269.910156 451.609375 269.570312 450.414062 268.886719 449.335938 C 268.257812 448.253906 267.402344 447.402344 266.320312 446.777344 C 265.238281 446.097656 264.039062 445.757812 262.726562 445.757812 L 225.011719 445.757812 L 225.011719 438.34375 L 262.726562 438.34375 C 264.382812 438.34375 266.007812 438.625 267.601562 439.195312 C 270.511719 440.21875 272.878906 442.007812 274.703125 444.5625 C 276.527344 447.0625 277.4375 449.875 277.4375 453 C 277.4375 455.554688 276.78125 457.941406 275.472656 460.15625 C 273.875 462.996094 271.621094 465.070312 268.714844 466.378906 L 268.542969 466.464844 C 266.660156 467.257812 264.722656 467.65625 262.726562 467.65625 L 239.722656 467.65625 C 237.726562 467.65625 236.015625 468.367188 234.589844 469.785156 C 233.222656 471.148438 232.507812 472.796875 232.453125 474.730469 L 232.453125 489.472656 L 225.011719 489.472656 Z M 225.011719 474.8125 " fill-opacity="1" fill-rule="nonzero"/></g><g clip-path="url(#1d7b81c714)"><path fill="#f69605" d="M 285.980469 438.34375 L 293.421875 438.34375 L 293.421875 489.472656 L 285.980469 489.472656 Z M 285.980469 438.34375 " fill-opacity="1" fill-rule="nonzero"/></g><g clip-path="url(#61271243ad)"><path fill="#f69605" d="M 340.6875 489.472656 L 340.6875 482.058594 L 374.214844 482.058594 C 377.347656 482.058594 380.027344 480.949219 382.253906 478.734375 C 384.476562 476.460938 385.589844 473.761719 385.589844 470.640625 L 385.589844 457.175781 C 385.589844 454.050781 384.476562 451.378906 382.253906 449.164062 C 380.027344 446.890625 377.347656 445.757812 374.214844 445.757812 L 340.6875 445.757812 L 340.6875 438.34375 L 374.214844 438.34375 C 379.402344 438.34375 383.847656 440.1875 387.554688 443.882812 C 391.261719 447.574219 393.113281 452.003906 393.113281 457.175781 L 393.113281 470.640625 C 393.113281 475.808594 391.261719 480.238281 387.554688 483.933594 C 383.847656 487.625 379.402344 489.472656 374.214844 489.472656 Z M 340.6875 489.472656 " fill-opacity="1" fill-rule="nonzero"/></g><g clip-path="url(#5217af1636)"><path fill="#f69605" d="M 401.65625 457.175781 C 401.65625 452.003906 403.511719 447.574219 407.21875 443.882812 C 410.921875 440.1875 415.371094 438.34375 420.558594 438.34375 L 441.769531 438.34375 C 446.957031 438.34375 451.40625 440.1875 455.109375 443.882812 C 458.816406 447.574219 460.671875 452.003906 460.671875 457.175781 L 460.671875 470.640625 C 460.671875 475.808594 458.816406 480.238281 455.109375 483.933594 C 451.40625 487.625 446.957031 489.472656 441.769531 489.472656 L 420.558594 489.472656 C 415.371094 489.472656 410.921875 487.625 407.21875 483.933594 C 403.511719 480.238281 401.65625 475.808594 401.65625 470.640625 Z M 420.558594 482.058594 L 441.769531 482.058594 C 444.90625 482.058594 447.585938 480.949219 449.808594 478.734375 C 452.089844 476.460938 453.230469 473.761719 453.230469 470.640625 L 453.230469 457.175781 C 453.230469 454.050781 452.089844 451.378906 449.808594 449.164062 C 447.585938 446.890625 444.90625 445.757812 441.769531 445.757812 L 420.558594 445.757812 C 418.507812 445.757812 416.597656 446.265625 414.828125 447.289062 C 413.0625 448.3125 411.664062 449.703125 410.636719 451.464844 C 409.613281 453.226562 409.097656 455.128906 409.097656 457.175781 L 409.097656 470.640625 C 409.097656 473.761719 410.210938 476.460938 412.433594 478.734375 C 414.714844 480.949219 417.421875 482.058594 420.558594 482.058594 Z M 420.558594 482.058594 " fill-opacity="1" fill-rule="nonzero"/></g><g clip-path="url(#ff56ae39e1)"><path fill="#f69605" d="M 493.34375 489.472656 L 493.34375 445.757812 L 469.226562 445.757812 L 469.226562 438.34375 L 524.988281 438.34375 L 524.988281 445.757812 L 500.785156 445.757812 L 500.785156 489.472656 Z M 493.34375 489.472656 " fill-opacity="1" fill-rule="nonzero"/></g><path fill="#f69605" d="M 354.800781 462.902344 C 354.800781 467.183594 351.40625 470.566406 347.222656 470.566406 C 343.035156 470.566406 339.644531 467.183594 339.644531 462.902344 C 339.644531 458.730469 343.035156 455.351562 347.222656 455.351562 C 351.40625 455.351562 354.800781 458.730469 354.800781 462.902344 Z M 354.800781 462.902344 " fill-opacity="1" fill-rule="nonzero"/></svg>