<svg xmlns="http://www.w3.org/2000/svg" xmlns:xlink="http://www.w3.org/1999/xlink" width="1000" zoomAndPan="magnify" viewBox="0 0 750 749.999995" height="1000" preserveAspectRatio="xMidYMid meet" version="1.0"><defs><clipPath id="32c1397a1f"><path d="M 225 260.523438 L 426 260.523438 L 426 413.523438 L 225 413.523438 Z M 225 260.523438 " clip-rule="nonzero"/></clipPath><clipPath id="7b7bd149f9"><path d="M 442 330 L 525 330 L 525 413.523438 L 442 413.523438 Z M 442 330 " clip-rule="nonzero"/></clipPath><clipPath id="d1c1ad5e91"><path d="M 225 438.34375 L 278 438.34375 L 278 489.34375 L 225 489.34375 Z M 225 438.34375 " clip-rule="nonzero"/></clipPath><clipPath id="1afc0c1fc0"><path d="M 285 438.34375 L 294 438.34375 L 294 489.34375 L 285 489.34375 Z M 285 438.34375 " clip-rule="nonzero"/></clipPath><clipPath id="67586dd4ca"><path d="M 340 438.34375 L 394 438.34375 L 394 489.34375 L 340 489.34375 Z M 340 438.34375 " clip-rule="nonzero"/></clipPath><clipPath id="ff9e1e5e49"><path d="M 401 438.34375 L 461 438.34375 L 461 489.34375 L 401 489.34375 Z M 401 438.34375 " clip-rule="nonzero"/></clipPath><clipPath id="dbc9e97715"><path d="M 469 438.34375 L 525 438.34375 L 525 489.34375 L 469 489.34375 Z M 469 438.34375 " clip-rule="nonzero"/></clipPath></defs><rect x="-75" width="900" fill="#ffffff" y="-74.999999" height="899.999994" fill-opacity="1"/><rect x="-75" width="900" fill="#ffffff" y="-74.999999" height="899.999994" fill-opacity="1"/><g clip-path="url(#32c1397a1f)"><path fill="#ffffff" d="M 225.003906 289.570312 L 259.777344 260.523438 L 425.863281 260.523438 L 425.863281 413.523438 L 389.535156 413.523438 L 389.535156 307.722656 L 368.773438 307.722656 L 290.917969 413.523438 L 225.003906 413.523438 L 302.855469 289.570312 Z M 225.003906 289.570312 " fill-opacity="1" fill-rule="nonzero"/></g><g clip-path="url(#7b7bd149f9)"><path fill="#ffffff" d="M 524.996094 371.996094 C 524.996094 373.355469 524.929688 374.714844 524.796875 376.066406 C 524.664062 377.421875 524.464844 378.765625 524.199219 380.097656 C 523.933594 381.433594 523.601562 382.75 523.207031 384.050781 C 522.8125 385.351562 522.355469 386.632812 521.835938 387.886719 C 521.316406 389.144531 520.738281 390.371094 520.09375 391.574219 C 519.453125 392.773438 518.757812 393.9375 518.003906 395.066406 C 517.246094 396.199219 516.4375 397.289062 515.574219 398.339844 C 514.714844 399.394531 513.800781 400.398438 512.839844 401.359375 C 511.878906 402.324219 510.875 403.234375 509.824219 404.097656 C 508.773438 404.960938 507.683594 405.769531 506.550781 406.527344 C 505.421875 407.28125 504.257812 407.980469 503.058594 408.621094 C 501.859375 409.261719 500.632812 409.84375 499.378906 410.363281 C 498.121094 410.882812 496.84375 411.339844 495.542969 411.738281 C 494.242188 412.132812 492.925781 412.460938 491.59375 412.726562 C 490.261719 412.992188 488.917969 413.191406 487.566406 413.324219 C 486.210938 413.457031 484.855469 413.523438 483.496094 413.523438 C 482.136719 413.523438 480.78125 413.457031 479.429688 413.324219 C 478.078125 413.191406 476.734375 412.992188 475.402344 412.726562 C 474.070312 412.460938 472.75 412.132812 471.449219 411.738281 C 470.152344 411.339844 468.871094 410.882812 467.617188 410.363281 C 466.359375 409.84375 465.132812 409.261719 463.933594 408.621094 C 462.738281 407.980469 461.570312 407.28125 460.441406 406.527344 C 459.3125 405.769531 458.222656 404.960938 457.171875 404.097656 C 456.121094 403.234375 455.113281 402.324219 454.152344 401.359375 C 453.191406 400.398438 452.28125 399.394531 451.417969 398.339844 C 450.554688 397.289062 449.746094 396.199219 448.992188 395.066406 C 448.238281 393.9375 447.539062 392.773438 446.898438 391.574219 C 446.257812 390.371094 445.679688 389.144531 445.15625 387.886719 C 444.636719 386.632812 444.179688 385.351562 443.785156 384.050781 C 443.390625 382.75 443.0625 381.433594 442.796875 380.097656 C 442.53125 378.765625 442.332031 377.421875 442.199219 376.066406 C 442.066406 374.714844 442 373.355469 442 371.996094 C 442 370.636719 442.066406 369.277344 442.199219 367.925781 C 442.332031 366.570312 442.53125 365.226562 442.796875 363.894531 C 443.0625 362.558594 443.390625 361.242188 443.785156 359.941406 C 444.179688 358.640625 444.636719 357.359375 445.15625 356.105469 C 445.679688 354.847656 446.257812 353.621094 446.898438 352.417969 C 447.539062 351.21875 448.238281 350.054688 448.992188 348.925781 C 449.746094 347.792969 450.554688 346.703125 451.417969 345.652344 C 452.28125 344.597656 453.191406 343.59375 454.152344 342.632812 C 455.113281 341.667969 456.121094 340.757812 457.171875 339.894531 C 458.222656 339.03125 459.3125 338.222656 460.441406 337.464844 C 461.570312 336.710938 462.738281 336.011719 463.933594 335.371094 C 465.132812 334.730469 466.359375 334.148438 467.617188 333.628906 C 468.871094 333.109375 470.152344 332.652344 471.449219 332.253906 C 472.75 331.859375 474.070312 331.53125 475.402344 331.265625 C 476.734375 331 478.078125 330.800781 479.429688 330.667969 C 480.78125 330.535156 482.136719 330.46875 483.496094 330.46875 C 484.855469 330.46875 486.210938 330.535156 487.566406 330.667969 C 488.917969 330.800781 490.261719 331 491.59375 331.265625 C 492.925781 331.53125 494.242188 331.859375 495.542969 332.253906 C 496.84375 332.652344 498.121094 333.109375 499.378906 333.628906 C 500.632812 334.148438 501.859375 334.730469 503.058594 335.371094 C 504.257812 336.011719 505.421875 336.710938 506.550781 337.464844 C 507.683594 338.222656 508.773438 339.03125 509.824219 339.894531 C 510.875 340.757812 511.878906 341.667969 512.839844 342.632812 C 513.800781 343.59375 514.714844 344.597656 515.574219 345.652344 C 516.4375 346.703125 517.246094 347.792969 518.003906 348.925781 C 518.757812 350.054688 519.453125 351.21875 520.09375 352.417969 C 520.738281 353.621094 521.316406 354.847656 521.835938 356.105469 C 522.355469 357.359375 522.8125 358.640625 523.207031 359.941406 C 523.601562 361.242188 523.933594 362.558594 524.199219 363.894531 C 524.464844 365.226562 524.664062 366.570312 524.796875 367.925781 C 524.929688 369.277344 524.996094 370.636719 524.996094 371.996094 Z M 524.996094 371.996094 " fill-opacity="1" fill-rule="nonzero"/></g><g clip-path="url(#d1c1ad5e91)"><path fill="#ffffff" d="M 225.011719 474.722656 C 225.011719 471.664062 225.894531 468.855469 227.664062 466.308594 C 229.488281 463.757812 231.882812 461.972656 234.847656 460.953125 C 236.386719 460.386719 238.011719 460.101562 239.722656 460.101562 L 262.726562 460.101562 C 263.527344 460.101562 264.265625 459.988281 264.953125 459.761719 C 265.691406 459.535156 266.347656 459.195312 266.917969 458.742188 C 267.546875 458.289062 268.085938 457.777344 268.542969 457.210938 C 269 456.644531 269.34375 455.992188 269.570312 455.257812 C 269.796875 454.519531 269.910156 453.785156 269.910156 453.046875 L 269.910156 452.878906 C 269.910156 451.574219 269.570312 450.382812 268.886719 449.308594 C 268.257812 448.230469 267.402344 447.378906 266.320312 446.757812 C 265.238281 446.078125 264.039062 445.738281 262.726562 445.738281 L 225.011719 445.738281 L 225.011719 438.34375 L 262.726562 438.34375 C 264.382812 438.34375 266.007812 438.625 267.601562 439.191406 C 270.511719 440.210938 272.878906 441.996094 274.703125 444.546875 C 276.527344 447.039062 277.4375 449.847656 277.4375 452.960938 C 277.4375 455.511719 276.78125 457.890625 275.472656 460.101562 C 273.875 462.9375 271.621094 465.003906 268.714844 466.308594 L 268.542969 466.390625 C 266.660156 467.1875 264.722656 467.582031 262.726562 467.582031 L 239.722656 467.582031 C 237.726562 467.582031 236.015625 468.289062 234.589844 469.707031 C 233.222656 471.066406 232.507812 472.710938 232.453125 474.636719 L 232.453125 489.34375 L 225.011719 489.34375 Z M 225.011719 474.722656 " fill-opacity="1" fill-rule="nonzero"/></g><g clip-path="url(#1afc0c1fc0)"><path fill="#ffffff" d="M 285.980469 438.34375 L 293.421875 438.34375 L 293.421875 489.34375 L 285.980469 489.34375 Z M 285.980469 438.34375 " fill-opacity="1" fill-rule="nonzero"/></g><g clip-path="url(#67586dd4ca)"><path fill="#ffffff" d="M 340.6875 489.34375 L 340.6875 481.949219 L 374.214844 481.949219 C 377.347656 481.949219 380.027344 480.84375 382.253906 478.632812 C 384.476562 476.367188 385.589844 473.675781 385.589844 470.558594 L 385.589844 457.128906 C 385.589844 454.011719 384.476562 451.347656 382.253906 449.136719 C 380.027344 446.871094 377.347656 445.738281 374.214844 445.738281 L 340.6875 445.738281 L 340.6875 438.34375 L 374.214844 438.34375 C 379.402344 438.34375 383.847656 440.183594 387.554688 443.867188 C 391.261719 447.550781 393.113281 451.972656 393.113281 457.128906 L 393.113281 470.558594 C 393.113281 475.714844 391.261719 480.132812 387.554688 483.816406 C 383.847656 487.5 379.402344 489.34375 374.214844 489.34375 Z M 340.6875 489.34375 " fill-opacity="1" fill-rule="nonzero"/></g><g clip-path="url(#ff9e1e5e49)"><path fill="#ffffff" d="M 401.65625 457.128906 C 401.65625 451.972656 403.511719 447.550781 407.21875 443.867188 C 410.921875 440.183594 415.371094 438.34375 420.558594 438.34375 L 441.769531 438.34375 C 446.957031 438.34375 451.40625 440.183594 455.109375 443.867188 C 458.816406 447.550781 460.671875 451.972656 460.671875 457.128906 L 460.671875 470.558594 C 460.671875 475.714844 458.816406 480.132812 455.109375 483.816406 C 451.40625 487.5 446.957031 489.34375 441.769531 489.34375 L 420.558594 489.34375 C 415.371094 489.34375 410.921875 487.5 407.21875 483.816406 C 403.511719 480.132812 401.65625 475.714844 401.65625 470.558594 Z M 420.558594 481.949219 L 441.769531 481.949219 C 444.90625 481.949219 447.585938 480.84375 449.808594 478.632812 C 452.089844 476.367188 453.230469 473.675781 453.230469 470.558594 L 453.230469 457.128906 C 453.230469 454.011719 452.089844 451.347656 449.808594 449.136719 C 447.585938 446.871094 444.90625 445.738281 441.769531 445.738281 L 420.558594 445.738281 C 418.507812 445.738281 416.597656 446.246094 414.828125 447.265625 C 413.0625 448.289062 411.664062 449.675781 410.636719 451.433594 C 409.613281 453.1875 409.097656 455.085938 409.097656 457.128906 L 409.097656 470.558594 C 409.097656 473.675781 410.210938 476.367188 412.433594 478.632812 C 414.714844 480.84375 417.421875 481.949219 420.558594 481.949219 Z M 420.558594 481.949219 " fill-opacity="1" fill-rule="nonzero"/></g><g clip-path="url(#dbc9e97715)"><path fill="#ffffff" d="M 493.34375 489.34375 L 493.34375 445.738281 L 469.226562 445.738281 L 469.226562 438.34375 L 524.988281 438.34375 L 524.988281 445.738281 L 500.785156 445.738281 L 500.785156 489.34375 Z M 493.34375 489.34375 " fill-opacity="1" fill-rule="nonzero"/></g><path fill="#ffffff" d="M 354.800781 462.839844 C 354.800781 467.109375 351.40625 470.484375 347.222656 470.484375 C 343.035156 470.484375 339.644531 467.109375 339.644531 462.839844 C 339.644531 458.679688 343.035156 455.308594 347.222656 455.308594 C 351.40625 455.308594 354.800781 458.679688 354.800781 462.839844 Z M 354.800781 462.839844 " fill-opacity="1" fill-rule="nonzero"/></svg>